<svg width="80" height="80" viewBox="0 0 80 80" fill="none" xmlns="http://www.w3.org/2000/svg">
<g clip-path="url(#clip0_41_1471)">
<rect width="80" height="80" rx="20" fill="#F1F1F1"/>
<path d="M66.5625 41.9531C65.7171 41.9531 64.9064 42.2939 64.3086 42.9005C63.7108 43.507 63.375 44.3297 63.375 45.1875V56.7849L60.0441 60.1648C60.2564 59.4731 60.2337 58.7291 59.9796 58.052C59.7256 57.375 59.2548 56.8041 58.6429 56.4309C58.031 56.0576 57.3132 55.9037 56.6048 55.9937C55.8963 56.0837 55.2382 56.4124 54.7358 56.9272L51.4304 60.2812H50.625C48.3707 60.2812 46.2087 61.19 44.6146 62.8075C43.0205 64.425 42.125 66.6188 42.125 68.9062V79.6875H54.875V74.5589L68.8161 60.4117C69.1122 60.1115 69.3471 59.755 69.5073 59.3627C69.6676 58.9703 69.75 58.5497 69.75 58.125V45.1875C69.75 44.3297 69.4142 43.507 68.8164 42.9005C68.2186 42.2939 67.4079 41.9531 66.5625 41.9531Z" fill="#F5A888"/>
<path d="M61.2394 58.9517L60.044 60.1646C59.8868 60.6756 59.6084 61.1327 59.2429 61.5003L53.4098 67.4193L53.941 67.9583L60.3054 61.5003C60.6349 61.1703 60.8892 60.7712 61.0505 60.3309C61.2118 59.8907 61.2763 59.4199 61.2394 58.9517Z" fill="#D17862"/>
<path d="M13.4375 41.9531C14.2829 41.9531 15.0936 42.2939 15.6914 42.9005C16.2892 43.507 16.625 44.3297 16.625 45.1875V56.7849L19.9559 60.1648C19.7436 59.4731 19.7663 58.7291 20.0204 58.052C20.2744 57.375 20.7452 56.8041 21.3571 56.4309C21.969 56.0576 22.6868 55.9037 23.3952 55.9937C24.1037 56.0837 24.7618 56.4124 25.2642 56.9272L28.5696 60.2812H29.375C31.6293 60.2812 33.7913 61.19 35.3854 62.8075C36.9795 64.425 37.875 66.6188 37.875 68.9062V79.6875H25.125V74.5589L11.1839 60.4117C10.8878 60.1115 10.6529 59.755 10.4927 59.3627C10.3324 58.9703 10.25 58.5497 10.25 58.125V45.1875C10.25 44.3297 10.5858 43.507 11.1836 42.9005C11.7814 42.2939 12.5921 41.9531 13.4375 41.9531Z" fill="#F5A888"/>
<path d="M18.7606 58.9517L19.9559 60.1646C20.1132 60.6756 20.3915 61.1327 20.757 61.5003L26.5902 67.4193L26.0589 67.9583L19.6945 61.5003C19.3651 61.1703 19.1108 60.7712 18.9495 60.3309C18.7881 59.8907 18.7237 59.4199 18.7606 58.9517Z" fill="#D17862"/>
<path d="M40 58.125C49.3888 58.125 57 50.4019 57 40.875C57 31.3481 49.3888 23.625 40 23.625C30.6112 23.625 23 31.3481 23 40.875C23 50.4019 30.6112 58.125 40 58.125Z" fill="#C80A50"/>
<path d="M53.8125 31.1718H54.0569C53.6892 30.6252 53.2919 30.1012 52.8669 29.6021C52.7845 29.7665 52.745 29.9496 52.7521 30.1339C52.7593 30.3182 52.8128 30.4976 52.9076 30.6549C53.0024 30.8123 53.1353 30.9424 53.2937 31.0329C53.4521 31.1234 53.6307 31.1712 53.8125 31.1718ZM55.2862 33.3173L52.8626 38.2357C52.749 38.4648 52.7196 38.7274 52.7797 38.9765C52.8397 39.2256 52.9853 39.4449 53.1903 39.5948C53.3954 39.7448 53.6463 39.8157 53.8982 39.7949C54.1501 39.774 54.3864 39.6627 54.5647 39.4809L56.6483 37.3667C56.3627 35.9645 55.9051 34.6041 55.2862 33.3173ZM26.1875 31.1718C26.3693 31.1712 26.5479 31.1234 26.7063 31.0329C26.8647 30.9424 26.9976 30.8123 27.0924 30.6549C27.1872 30.4976 27.2407 30.3182 27.2479 30.1339C27.255 29.9496 27.2155 29.7665 27.1331 29.6021C26.7081 30.1012 26.3107 30.6252 25.9431 31.1718H26.1875ZM24.7138 33.3173C24.0947 34.6036 23.637 35.9637 23.3517 37.3656L25.4352 39.4798C25.6132 39.6616 25.8493 39.7729 26.101 39.7937C26.3527 39.8145 26.6034 39.7433 26.808 39.593C27.0126 39.4434 27.1581 39.2248 27.2184 38.9763C27.2788 38.7279 27.25 38.4657 27.1374 38.2368L24.7138 33.3173Z" fill="#A00028"/>
<path d="M62.3125 27.9385H59.7817L63.2624 20.8736C63.3754 20.6445 63.4043 20.3822 63.344 20.1335C63.2836 19.8848 63.1381 19.666 62.9333 19.5163C62.7285 19.3666 62.4778 19.2958 62.2263 19.3165C61.9747 19.3372 61.7386 19.4482 61.5603 19.6294L53.0603 28.2544C52.9117 28.4052 52.8106 28.5973 52.7696 28.8064C52.7286 29.0155 52.7497 29.2322 52.8301 29.4292C52.9105 29.6262 53.0466 29.7945 53.2213 29.913C53.396 30.0315 53.6014 30.0947 53.8115 30.0948H56.3423L52.8616 37.1597C52.7486 37.3888 52.7197 37.6511 52.78 37.8998C52.8404 38.1485 52.986 38.3673 53.1908 38.517C53.3955 38.6667 53.6462 38.7375 53.8977 38.7168C54.1493 38.6961 54.3854 38.5851 54.5637 38.4039L63.0637 29.7789C63.2123 29.6281 63.3134 29.436 63.3544 29.2269C63.3954 29.0178 63.3743 28.8011 63.2939 28.6041C63.2135 28.4071 63.0774 28.2388 62.9027 28.1203C62.728 28.0018 62.5226 27.9386 62.3125 27.9385ZM27.1374 37.1597L23.6567 30.0948H26.1875C26.3972 30.0937 26.6019 30.0299 26.7759 29.9112C26.9499 29.7926 27.0856 29.6244 27.1658 29.4279C27.246 29.2313 27.2673 29.0151 27.2269 28.8064C27.1865 28.5976 27.0862 28.4056 26.9387 28.2544L18.4387 19.6294C18.2604 19.4482 18.0243 19.3372 17.7727 19.3165C17.5212 19.2958 17.2705 19.3666 17.0657 19.5163C16.8609 19.666 16.7154 19.8848 16.655 20.1335C16.5947 20.3822 16.6236 20.6445 16.7366 20.8736L20.2173 27.9385H17.6875C17.4779 27.9396 17.2732 28.0035 17.0992 28.1221C16.9251 28.2407 16.7895 28.4089 16.7093 28.6054C16.629 28.802 16.6078 29.0182 16.6482 29.227C16.6886 29.4357 16.7888 29.6277 16.9363 29.7789L25.4363 38.4039C25.6144 38.5855 25.8506 38.6966 26.1023 38.7172C26.354 38.7378 26.6047 38.6664 26.8091 38.516C27.0135 38.3662 27.1588 38.1476 27.2189 37.8991C27.2791 37.6506 27.2502 37.3886 27.1374 37.1597Z" fill="#FAB400"/>
<path d="M32.2512 33.6437C32.0519 33.4416 31.7817 33.328 31.5 33.328C31.2182 33.328 30.948 33.4416 30.7488 33.6437C30.5495 33.8459 30.4376 34.1201 30.4376 34.406C30.4376 34.6919 30.5495 34.9661 30.7488 35.1682L32.4668 36.9115C32.1959 37.09 31.9687 37.3288 31.8024 37.6097C31.636 37.8907 31.535 38.2064 31.507 38.5329C31.4789 38.8594 31.5246 39.1881 31.6405 39.494C31.7564 39.7999 31.9396 40.075 32.176 40.2983C32.4124 40.5216 32.6958 40.6873 33.0048 40.7828C33.3138 40.8783 33.6401 40.901 33.9591 40.8494C34.278 40.7977 34.5812 40.6729 34.8455 40.4845C35.1098 40.2961 35.3283 40.049 35.4843 39.7621C35.6633 39.8093 35.8513 39.8082 36.0297 39.7588C36.2081 39.7095 36.3706 39.6136 36.5012 39.4807C36.5999 39.3807 36.6783 39.2619 36.7317 39.1311C36.7852 39.0003 36.8127 38.8601 36.8127 38.7185C36.8127 38.5769 36.7852 38.4367 36.7317 38.3059C36.6783 38.1751 36.5999 38.0563 36.5012 37.9562L32.2512 33.6437ZM49.2512 33.6437C49.1526 33.5435 49.0355 33.464 48.9066 33.4098C48.7777 33.3556 48.6395 33.3276 48.5 33.3276C48.3604 33.3276 48.2222 33.3556 48.0933 33.4098C47.9645 33.464 47.8474 33.5435 47.7488 33.6437L43.4988 37.9562C43.3333 38.1232 43.2266 38.3408 43.1953 38.5755C43.1639 38.8102 43.2097 39.0488 43.3255 39.2544C43.4413 39.46 43.6206 39.6212 43.8357 39.7129C44.0509 39.8047 44.2898 39.822 44.5156 39.7621C44.6717 40.049 44.8902 40.2961 45.1545 40.4845C45.4187 40.6729 45.7219 40.7977 46.0408 40.8494C46.3598 40.901 46.6861 40.8783 46.9951 40.7828C47.3041 40.6873 47.5876 40.5216 47.824 40.2983C48.0604 40.075 48.2435 39.7999 48.3594 39.494C48.4753 39.1881 48.521 38.8594 48.493 38.5329C48.4649 38.2064 48.3639 37.8907 48.1976 37.6097C48.0312 37.3288 47.804 37.09 47.5331 36.9115L49.2512 35.1682C49.3499 35.0682 49.4283 34.9494 49.4817 34.8186C49.5352 34.6878 49.5627 34.5476 49.5627 34.406C49.5627 34.2644 49.5352 34.1242 49.4817 33.9934C49.4283 33.8626 49.3499 33.7438 49.2512 33.6437Z" fill="#82000A"/>
<path d="M47.4375 51.6562H32.5625C32.2807 51.6562 32.0105 51.5427 31.8112 51.3405C31.6119 51.1383 31.5 50.8641 31.5 50.5781C31.5 49.1484 32.0597 47.7773 33.056 46.7664C34.0523 45.7554 35.4035 45.1875 36.8125 45.1875H43.1875C44.5965 45.1875 45.9477 45.7554 46.944 46.7664C47.9403 47.7773 48.5 49.1484 48.5 50.5781C48.5 50.8641 48.3881 51.1383 48.1888 51.3405C47.9895 51.5427 47.7193 51.6562 47.4375 51.6562Z" fill="#F0F0F0"/>
<path d="M31.6062 49.5H48.3937C48.319 49.1298 48.2065 48.7684 48.058 48.4219H31.942C31.7934 48.7684 31.6809 49.1298 31.6062 49.5Z" fill="#D2D2D2"/>
</g>
<rect x="0.5" y="0.5" width="79" height="79" rx="19.5" stroke="#EBEBEB"/>
<defs>
<clipPath id="clip0_41_1471">
<rect width="80" height="80" rx="20" fill="white"/>
</clipPath>
</defs>
</svg>
