<svg width="76" height="48" viewBox="0 0 76 48" fill="none" xmlns="http://www.w3.org/2000/svg">
<path d="M15.0879 0.30498C15.4591 0.224811 16.0473 0.126627 16.3941 0.0860922C16.7409 0.0455574 17.1156 0.0068242 17.2273 0.000518786C17.348 -0.0066874 17.466 0.0617713 17.52 0.168963C17.5759 0.280659 17.6101 1.86512 17.6101 8.366L17.1372 8.66956C16.8769 8.8362 16.4923 9.16048 16.2815 9.39017C16.0707 9.61987 15.8014 10 15.6825 10.2351C15.5645 10.4702 15.3933 10.9062 15.3023 11.2034C15.1609 11.6691 15.1375 12.0817 15.133 16.6081L23.1093 16.6981L23.1066 20.4138L23.1048 24.2646C23.1048 24.3826 22.5995 24.3998 15.0879 24.3998V36.0648C15.0879 46.3138 15.0717 47.746 14.9528 47.8649C14.8366 47.9811 14.2169 48 10.494 48C6.77111 48 6.15138 47.9811 6.03518 47.8649C5.91628 47.746 5.90006 46.3138 5.90006 24.3998L0 24.3547V16.6981L5.90006 16.6531L5.90997 14.784C5.91538 13.7562 5.93159 12.7933 5.946 12.6447C5.96041 12.496 5.99735 12.0096 6.02887 11.5637C6.0595 11.1179 6.16849 10.3477 6.26938 9.85227C6.37027 9.35685 6.59816 8.50562 6.77471 7.96065C6.95126 7.41568 7.31337 6.54373 7.5782 6.02399C7.84393 5.50424 8.35737 4.69355 8.71948 4.22244C9.08159 3.75134 9.67971 3.10548 10.049 2.78661C10.4174 2.46774 11.0029 2.02456 11.3497 1.80116C11.6965 1.57867 12.264 1.26791 12.6108 1.11117C12.9576 0.955338 13.5053 0.742756 13.8269 0.639167C14.1484 0.535578 14.7159 0.385149 15.0879 0.30498Z" fill="#13819A"/>
<path d="M62.8316 5.66368C62.7253 5.3421 62.6659 5.02323 62.6983 4.95567C62.7379 4.8746 62.8406 4.85118 62.9965 4.88631C63.1271 4.91604 63.6801 5.01963 64.2251 5.11601C64.7701 5.21329 65.7231 5.35742 66.3419 5.43758C66.9617 5.51775 67.7516 5.64746 68.0984 5.72493C68.4452 5.8033 69.0127 6.00867 69.3595 6.18252C69.7063 6.35637 70.1729 6.6194 70.3954 6.76803C70.6188 6.91575 70.9629 7.21211 71.5214 7.81292L72.287 7.44901C72.7077 7.24904 73.2148 7.02745 73.413 6.95809C73.6112 6.88783 74.0165 6.83108 74.3138 6.83018C74.7497 6.83018 74.9632 6.88693 75.4199 7.12563C75.7307 7.28777 75.9856 7.48144 75.9865 7.5553C75.9874 7.63007 75.9198 7.75167 75.8361 7.82553C75.7523 7.9003 75.3388 8.4876 74.9164 9.13165C74.4939 9.77571 73.9823 10.4927 73.7805 10.7251C73.5787 10.9575 73.1698 11.3431 72.8725 11.5827C72.5753 11.8223 72.0285 12.1844 71.6565 12.3879C71.2854 12.5915 70.7782 12.823 70.5305 12.9014C70.2828 12.9798 69.7153 13.0878 69.2694 13.1401C68.6893 13.2095 68.2543 13.2086 67.7381 13.1383C67.3418 13.0842 66.8554 12.9996 66.6572 12.9509C66.459 12.9014 66.0744 12.7753 65.8015 12.6708C65.5294 12.5654 65.043 12.3285 64.7205 12.1438C64.3981 11.9583 63.936 11.6304 63.6918 11.4151C63.4486 11.1998 63.0937 10.8107 62.9037 10.5504C62.7136 10.29 62.5587 10.0171 62.5587 9.94235C62.5587 9.86849 62.6091 9.80453 62.6713 9.80093C62.7334 9.79642 63.3721 9.78652 64.09 9.77841C64.8088 9.7694 65.4466 9.73157 65.5087 9.69464C65.5862 9.6487 65.3862 9.39378 64.8728 8.88394C64.4611 8.47499 63.9999 7.95885 63.8477 7.73546C63.6955 7.51206 63.4477 7.0869 63.2973 6.78964C63.1469 6.49239 62.937 5.98615 62.8316 5.66368Z" fill="#13819A"/>
<path d="M64.7421 32.2815C64.7295 23.7107 64.7403 16.6459 64.7665 16.5819C64.8034 16.4892 65.7141 16.4712 73.8634 16.518L73.9084 47.8198L73.7057 47.8676C73.594 47.8937 71.5376 47.9036 64.7656 47.8649L64.7421 32.2815Z" fill="#13819A"/>
<path fill-rule="evenodd" clip-rule="evenodd" d="M41.571 15.2248C42.2403 15.2176 43.3138 15.2741 43.9578 15.3489C44.6018 15.4245 45.4933 15.5725 45.9392 15.677C46.3851 15.7815 47.1557 16.0068 47.6511 16.178C48.1466 16.3492 49.0185 16.7194 49.5876 17.0022C50.1578 17.285 50.9687 17.741 51.3894 18.0149C51.8108 18.2895 52.4587 18.7589 52.8298 19.0588C53.2018 19.3587 53.8309 19.9433 54.2273 20.3576C54.6245 20.772 55.1361 21.3553 55.364 21.6526C55.5919 21.9498 55.962 22.4767 56.1863 22.8235C56.4114 23.1702 56.7979 23.8593 57.0447 24.3547C57.2924 24.8501 57.6429 25.6816 57.824 26.2014C58.005 26.7211 58.2543 27.6332 58.3777 28.2278C58.5452 29.0375 58.6144 29.7159 58.654 30.9299C58.6937 32.1685 58.6709 32.8177 58.5574 33.678C58.4754 34.2976 58.3088 35.1991 58.1873 35.6819C58.0647 36.1647 57.8208 36.9353 57.6443 37.3938C57.4677 37.8522 57.1009 38.6524 56.8298 39.1721C56.5587 39.6918 56.0765 40.483 55.7585 40.9289C55.4396 41.3748 54.7799 42.166 54.2908 42.6858C53.8016 43.2055 52.9994 43.938 52.5076 44.3127C52.016 44.6863 51.3516 45.1567 51.029 45.3576C50.7075 45.5585 50.0784 45.9058 49.6326 46.1301C49.1868 46.3534 48.4377 46.679 47.9665 46.8547C47.4964 47.0312 46.7051 47.2763 46.2097 47.4006C45.7144 47.5249 44.8434 47.699 44.2732 47.7873C43.5409 47.9008 42.7215 47.9474 41.4802 47.9465C40.286 47.9456 39.4069 47.8968 38.7331 47.7932C38.1882 47.7094 37.3576 47.5417 36.8865 47.4201C36.4163 47.2985 35.6663 47.0711 35.2205 46.9153C34.7746 46.7594 34.004 46.4372 33.5085 46.1985C33.0131 45.9606 32.1955 45.4873 31.6902 45.1487C31.1858 44.8091 30.4173 44.2287 29.9831 43.8567C29.549 43.4855 28.8936 42.8359 28.5261 42.4153C28.1586 41.9946 27.574 41.223 27.2273 40.7033C26.8797 40.1837 26.4136 39.3933 26.1902 38.9475C25.9668 38.5016 25.6664 37.8332 25.5232 37.4612C25.38 37.0901 25.157 36.401 25.029 35.9299C24.9002 35.4588 24.7349 34.7285 24.6628 34.3078C24.5899 33.8869 24.5168 32.8735 24.4988 32.0559C24.4817 31.2384 24.5078 30.2464 24.5564 29.8498C24.6059 29.4535 24.7495 28.6632 24.8748 28.093C25 27.5228 25.246 26.6725 25.4216 26.2014C25.5964 25.7304 25.9174 24.9911 26.1345 24.5578C26.3507 24.1246 26.6956 23.4955 26.8992 23.1614C27.1036 22.8272 27.4977 22.2492 27.7751 21.8772C28.0526 21.506 28.6458 20.8214 29.0925 20.3567C29.5402 19.8928 30.2305 19.2604 30.6267 18.9533C31.023 18.6453 31.5903 18.2304 31.8874 18.0305C32.1847 17.8305 32.9141 17.4223 33.5085 17.1233C34.103 16.8242 35.137 16.3964 35.8054 16.1721C36.4747 15.9478 37.4478 15.6778 37.9675 15.5715C38.488 15.4653 39.2371 15.3466 39.6335 15.3078C40.0299 15.2691 40.9027 15.2311 41.571 15.2248ZM41.8855 23.6379C41.3406 23.6163 40.6514 23.637 40.3542 23.6838C40.0571 23.7307 39.5911 23.8342 39.3191 23.9143C39.0471 23.9944 38.6205 24.1481 38.3728 24.2571C38.1251 24.366 37.68 24.6153 37.3845 24.8108C37.0892 25.0062 36.6078 25.3885 36.3142 25.6604C36.0216 25.9332 35.6081 26.3992 35.3972 26.6965C35.1856 26.9936 34.8612 27.5412 34.6765 27.9123C34.4918 28.2843 34.2634 28.8928 34.1697 29.2639C34.076 29.6359 33.9649 30.2846 33.9226 30.7053C33.8803 31.1268 33.8759 31.8562 33.9128 32.3264C33.9507 32.7974 34.0508 33.4659 34.1345 33.8127C34.2192 34.1595 34.4859 34.8486 34.7273 35.344C34.9696 35.8394 35.3844 36.5087 35.6501 36.8303C35.915 37.1528 36.3919 37.6252 36.7117 37.8801C37.0305 38.135 37.5964 38.5084 37.9675 38.7102C38.3476 38.9173 39.0375 39.1823 39.5437 39.3156C40.2994 39.5156 40.6332 39.5539 41.616 39.553C42.5147 39.5511 42.9545 39.5055 43.5076 39.3596C43.9038 39.2551 44.5114 39.0363 44.8581 38.8733C45.2049 38.7093 45.6816 38.4468 45.9167 38.2883C46.2192 38.0849 46.1407 38.1453 46.1804 38.1057C46.0815 38.1855 46.2394 38.0205 46.3611 37.967C46.3517 37.9862 46.3586 37.9801 46.3757 37.9612C46.3803 37.9595 46.385 37.9576 46.3894 37.9563C46.4635 37.8679 46.4697 37.858 46.4822 37.8449C46.4853 37.8418 46.4878 37.8382 46.491 37.8352C46.4937 37.8326 46.4969 37.8301 46.4998 37.8274C46.5451 37.7895 46.9016 37.4852 47.2039 37.1721C47.5524 36.811 47.9812 36.2721 48.156 35.9748C48.3317 35.6776 48.5809 35.1713 48.7097 34.8489C48.8385 34.5264 49.0072 33.9385 49.0847 33.5422C49.1622 33.1458 49.2394 32.437 49.2556 31.966C49.2718 31.4958 49.2511 30.7861 49.2087 30.3899C49.1664 29.9936 49.0664 29.447 48.988 29.174C48.9097 28.902 48.7433 28.4352 48.6199 28.1379C48.4955 27.8407 48.2516 27.3747 48.0769 27.1018C47.9021 26.8297 47.4917 26.328 47.1648 25.9885C46.8378 25.648 46.3263 25.1951 46.029 24.9817C45.7317 24.7673 45.2048 24.4625 44.8581 24.3049C44.5114 24.1473 43.9244 23.9424 43.5525 23.8479C43.1814 23.7533 42.4305 23.6586 41.8855 23.6379Z" fill="#13819A"/>
</svg>
