<svg width="30" height="30" viewBox="0 0 30 30" fill="none" xmlns="http://www.w3.org/2000/svg">
<path d="M20.775 0H20.9884C21.1597 2.11566 20.3521 3.69648 19.3707 4.84126C18.4077 5.97813 17.0891 7.08075 14.9563 6.91345C14.814 4.82809 15.6229 3.36451 16.603 2.22237C17.5119 1.15795 19.1784 0.210776 20.775 0ZM27.2313 22.0208V22.0801C26.632 23.8954 25.777 25.4512 24.7337 26.895C23.7812 28.2058 22.614 29.9697 20.53 29.9697C18.7292 29.9697 17.533 28.8118 15.6874 28.7801C13.7351 28.7485 12.6615 29.7484 10.8765 30H10.2678C8.95708 29.8103 7.89924 28.7722 7.12859 27.8369C4.85617 25.0731 3.10014 21.5031 2.77344 16.9345V15.5921C2.91176 12.3225 4.50048 9.66407 6.61219 8.37571C7.72667 7.69069 9.25875 7.1071 10.9647 7.36794C11.6958 7.48123 12.4428 7.73152 13.0975 7.97919C13.718 8.21763 14.4939 8.64049 15.229 8.6181C15.7269 8.60361 16.2223 8.34409 16.7242 8.16098C18.1943 7.63009 19.6355 7.02147 21.5351 7.30734C23.8181 7.65248 25.4384 8.66684 26.4396 10.2319C24.5084 11.4609 22.9816 13.3131 23.2424 16.4761C23.4743 19.3492 25.1447 21.0302 27.2313 22.0208Z" fill="black"/>
</svg>
