<svg width="30" height="30" viewBox="0 0 30 30" fill="none" xmlns="http://www.w3.org/2000/svg">
<path d="M22.2664 4.17041C19.3407 4.17041 16.4116 5.54584 15 8.17107C13.5884 5.5459 10.6593 4.17041 7.73354 4.17041C5.00155 4.17041 2.23926 5.30684 0.257446 7.28865L1.50028 8.53148L15 12.6645L28.4997 8.53148L29.7425 7.28865C27.7606 5.30684 24.9984 4.17041 22.2664 4.17041Z" fill="#ECECF1"/>
<path d="M29.7425 7.28865C27.7607 5.30684 24.9984 4.17041 22.2664 4.17041C19.3407 4.17041 16.4116 5.54584 15 8.17107V12.6645L28.4997 8.53148L29.7425 7.28865Z" fill="#CFDDE2"/>
<path d="M15 0C14.5142 0 14.1211 0.393105 14.1211 0.878906V2.63672C14.1211 3.12252 14.5142 3.51562 15 3.51562C15.4858 3.51562 15.8789 3.12252 15.8789 2.63672V0.878906C15.8789 0.393105 15.4858 0 15 0Z" fill="#FFE470"/>
<path d="M29.1211 7.03125C24.3841 7.03125 19.5834 8.15051 15.3493 10.2688L15 10.4432L14.6507 10.2688C10.4166 8.15045 5.61592 7.03125 0.878906 7.03125C0.393105 7.03125 0 7.42436 0 7.91016V25.6055C0 26.0913 0.393105 26.4844 0.878906 26.4844C5.34381 26.4844 9.87246 27.5401 13.8645 29.5365L14.6069 29.9073C14.729 29.968 14.8636 29.9996 15 29.9996C15.1364 29.9996 15.271 29.968 15.3931 29.9073L16.1355 29.5365C20.1275 27.5401 24.6562 26.4844 29.1211 26.4844C29.6069 26.4844 30 26.0913 30 25.6055V7.91016C30 7.42436 29.6069 7.03125 29.1211 7.03125Z" fill="#704C55"/>
<path d="M15.3931 29.9073L16.1355 29.5365C20.1275 27.5401 24.6562 26.4844 29.1211 26.4844C29.6069 26.4844 30 26.0913 30 25.6055V7.91016C30 7.42436 29.6069 7.03125 29.1211 7.03125C24.3841 7.03125 19.5834 8.15051 15.3493 10.2688L15 10.4432V29.9995C15.1349 29.9995 15.2693 29.9688 15.3931 29.9073Z" fill="#4B2746"/>
<path d="M10.8629 3.25812L9.10513 1.50031C8.76183 1.15701 8.76183 0.600776 9.10513 0.257476C9.44843 -0.0858252 10.0047 -0.0858252 10.348 0.257476L12.1058 2.01529C12.4491 2.35859 12.4491 2.91482 12.1058 3.25812C11.7624 3.60142 11.2062 3.60148 10.8629 3.25812Z" fill="#FFE470"/>
<path d="M15.8789 2.63673V0.878921C15.8789 0.39312 15.4858 1.46714e-05 15 1.46714e-05V3.51564C15.4858 3.51564 15.8789 3.12253 15.8789 2.63673ZM17.8942 3.25812C17.5509 2.91482 17.5509 2.35859 17.8942 2.01529L19.6521 0.257476C19.9954 -0.0858252 20.5516 -0.0858252 20.8949 0.257476C21.2382 0.600776 21.2382 1.15701 20.8949 1.50031L19.1371 3.25812C18.7937 3.60142 18.2375 3.60148 17.8942 3.25812Z" fill="#FFC473"/>
<path d="M25.443 14.3357C24.5924 14.437 23.749 14.5867 22.9101 14.7586V13.2422C22.9101 12.7564 22.517 12.3633 22.0312 12.3633C21.5454 12.3633 21.1523 12.7564 21.1523 13.2422V15.1724C20.1561 15.4384 19.1697 15.7421 18.2049 16.1072C17.7508 16.2789 17.5217 16.7862 17.6934 17.2402C17.8665 17.6981 18.3774 17.9215 18.8263 17.7517C19.5893 17.4631 20.3679 17.2192 21.1523 16.996V22.0312C21.1523 22.5171 21.5454 22.9102 22.0312 22.9102C22.517 22.9102 22.9101 22.5171 22.9101 22.0312V16.5553C23.8163 16.3577 24.7293 16.191 25.6507 16.0815C26.1322 16.024 26.4772 15.587 26.4197 15.1047C26.3622 14.6232 25.9228 14.2713 25.443 14.3357Z" fill="#FFE470"/>
<path d="M22.9102 22.0312V16.5553C23.8164 16.3577 24.7294 16.191 25.6508 16.0815C26.1323 16.024 26.4773 15.587 26.4198 15.1047C26.3623 14.6232 25.9229 14.2713 25.443 14.3357C24.5924 14.437 23.749 14.5867 22.9102 14.7586V13.2422C22.9102 12.7564 22.5171 12.3633 22.0312 12.3633V22.9102C22.5171 22.9102 22.9102 22.5171 22.9102 22.0312Z" fill="#FFC473"/>
</svg>
