<svg width="45" height="45" viewBox="0 0 45 45" fill="none" xmlns="http://www.w3.org/2000/svg">
<path d="M30.5712 1.65625C30.5507 2.42627 30.6359 3.09407 30.8267 3.65966C30.9221 3.9663 31.1333 4.12303 31.4604 4.12985L35.1402 4.2014C35.2931 4.20361 35.4421 4.24976 35.5695 4.33435C35.6969 4.41893 35.7973 4.53837 35.8587 4.67844C35.9202 4.8185 35.94 4.97327 35.9159 5.12429C35.915 5.1297 35.9141 5.13509 35.9131 5.14048C35.8869 5.28537 35.8211 5.42029 35.7228 5.53019C33.9306 7.58811 32.2611 9.66647 30.7143 11.7653C29.8693 12.9237 29.6853 14.29 30.1623 15.8641C30.2782 16.2321 30.5303 16.416 30.9187 16.416H41.9374C42.3326 16.416 42.6053 16.2321 42.7552 15.8641L43.3991 14.2593C46.227 22.2184 45.2969 29.4211 40.6086 35.8675C29.4264 51.2405 4.93573 46.3342 0.601835 27.6699C-1.83087 17.1622 3.27988 6.98163 12.888 2.22866C18.4758 -0.537951 24.3701 -0.728752 30.5712 1.65625ZM17.038 22.6818C14.2577 21.8641 14.503 25.7176 10.9459 24.307C9.75344 23.83 8.89146 24.1741 8.35995 25.3394L8.16574 25.7891C7.81139 26.5659 8.00219 27.1724 8.73814 27.6085C11.7024 29.353 14.5541 29.0566 17.2935 26.7193C18.0158 26.106 18.3701 25.3394 18.3565 24.4194C18.3507 24.0283 18.2198 23.6489 17.9827 23.3365C17.7456 23.024 17.4147 22.7947 17.038 22.6818ZM34.0771 24.2763C32.8403 24.7874 31.3991 24.8283 30.4894 23.663C29.808 22.7908 28.9358 22.5114 27.8727 22.8249C27.3276 22.9884 26.963 23.2917 26.779 23.7346C26.4179 24.6273 26.5474 25.4416 27.1675 26.1775C29.0755 28.4262 31.6274 29.1486 34.8233 28.3445C36.0397 28.0378 37.0516 27.0259 36.7756 25.6971C36.7136 25.4133 36.5903 25.1465 36.4143 24.9153C36.2383 24.6841 36.014 24.4942 35.7569 24.3589C35.4999 24.2235 35.2164 24.146 34.9262 24.1318C34.636 24.1175 34.3462 24.1668 34.0771 24.2763ZM26.5541 34.8249C26.5541 33.7432 26.1244 32.7059 25.3596 31.941C24.5948 31.1762 23.5574 30.7465 22.4758 30.7465C21.3941 30.7465 20.3568 31.1762 19.5919 31.941C18.8271 32.7059 18.3974 33.7432 18.3974 34.8249C18.3974 35.9065 18.8271 36.9439 19.5919 37.7087C20.3568 38.4736 21.3941 38.9032 22.4758 38.9032C23.5574 38.9032 24.5948 38.4736 25.3596 37.7087C26.1244 36.9439 26.5541 35.9065 26.5541 34.8249Z" fill="url(#paint0_linear_5_1089)"/>
<path d="M35.9131 5.14048C35.8869 5.28537 35.8211 5.42029 35.7228 5.53019C33.9306 7.58811 32.2611 9.66647 30.7143 11.7653C29.8693 12.9237 29.6853 14.29 30.1623 15.8641C30.2782 16.2321 30.5303 16.416 30.9187 16.416H41.9374C42.3326 16.416 42.6053 16.2321 42.7552 15.8641L43.3991 14.2593C41.301 10.3094 38.4797 7.27546 35.9131 5.14048Z" fill="url(#paint1_linear_5_1089)"/>
<path d="M13.9971 4.46875C18.481 2.24866 23.1702 1.88985 28.2061 3.47656C28.2635 3.79027 28.3406 4.09909 28.4395 4.40137V4.40234C28.4422 4.41115 28.4454 4.41987 28.4482 4.42871C28.4516 4.4387 28.4546 4.44901 28.458 4.45898L28.459 4.45801C28.6342 4.98876 28.9703 5.57168 29.5674 6.01465C30.1815 6.47027 30.8538 6.61733 31.4082 6.62891H31.4121L31.5303 6.63086C30.764 7.57402 30.0216 8.52178 29.3037 9.47461L28.7021 10.2822L28.6943 10.292C27.3149 12.1832 27.1033 14.39 27.7695 16.5889L27.7734 16.6016L27.7773 16.6152C27.9572 17.1863 28.3144 17.8232 28.9648 18.2979C29.6138 18.7713 30.3263 18.916 30.9189 18.916H41.9375C41.9896 18.916 42.0424 18.9134 42.0957 18.9111C43.1974 24.5888 42.0074 29.6932 38.5869 34.3965C28.8199 47.8239 7.56398 43.8146 3.23047 27.8721L3.03711 27.1045C0.878518 17.7778 5.38043 8.73197 13.9961 4.46973L13.9971 4.46875ZM22.4756 28.2461C20.7311 28.2461 19.0578 28.9394 17.8242 30.1729C16.5905 31.4065 15.8975 33.0805 15.8975 34.8252C15.8975 36.5698 16.5906 38.243 17.8242 39.4766C19.0578 40.7102 20.731 41.4033 22.4756 41.4033C24.2202 41.4033 25.8933 40.7101 27.127 39.4766C28.3606 38.243 29.0536 36.5698 29.0537 34.8252C29.0537 33.0805 28.3606 31.4065 27.127 30.1729C25.8933 28.9394 24.2201 28.2461 22.4756 28.2461ZM17.7432 20.2832C16.4547 19.9043 15.273 20.0354 14.2441 20.5801C13.4393 21.0062 12.7678 21.7111 12.5742 21.8926C12.4443 22.0143 12.3615 22.079 12.3164 22.1133C12.2416 22.1032 12.1 22.0749 11.873 21.9854H11.874C10.9136 21.6013 9.7017 21.3975 8.47852 21.8857C7.25355 22.3748 6.51499 23.359 6.08496 24.3018L6.0752 24.3252L6.06445 24.3486L5.87012 24.7979H5.87109C5.53864 25.5471 5.32857 26.5294 5.6582 27.5771C5.99438 28.6455 6.75151 29.3366 7.46387 29.7588L7.46973 29.7627C9.31774 30.8503 11.302 31.3953 13.3584 31.1816C15.4031 30.9691 17.2602 30.0338 18.916 28.6211L18.915 28.6201C20.1048 27.6081 20.7919 26.255 20.8525 24.6973L20.8564 24.3828L20.8369 24.0371C20.7717 23.35 20.5436 22.6889 20.1719 22.1084L19.9746 21.8252L19.7549 21.5586C19.22 20.9592 18.5282 20.5186 17.7559 20.2871L17.7432 20.2832ZM30.0869 20.4189C29.0814 20.0969 28.0756 20.1586 27.166 20.4268L27.1543 20.4307C26.0397 20.7651 24.9973 21.5078 24.4707 22.7754L24.4658 22.7861L24.4619 22.7969C24.1399 23.5929 23.9894 24.4805 24.1367 25.4072C24.2841 26.334 24.7024 27.1312 25.2559 27.7881L25.2607 27.7949C26.4986 29.2538 28.0257 30.3003 29.832 30.8115C31.6198 31.3174 33.5132 31.2517 35.4336 30.7686H35.4346C37.3738 30.2796 39.8785 28.3414 39.2236 25.1885L39.2178 25.1631C39.0955 24.6035 38.8675 24.0733 38.5469 23.6006L38.4033 23.4014L38.25 23.21C37.9325 22.837 37.5561 22.5182 37.1357 22.2666L36.9219 22.1465L36.7012 22.0381C36.1819 21.8 35.621 21.6629 35.0488 21.6348C34.3948 21.6026 33.7414 21.7141 33.1348 21.9609L33.1221 21.9658C32.9574 22.0339 32.8085 22.0766 32.6846 22.0986C32.5682 22.1193 32.4915 22.1179 32.4512 22.1143C31.8678 21.3708 31.0882 20.7397 30.0869 20.4189ZM36.2227 8.79785C37.6558 10.2193 39.0807 11.9259 40.3164 13.916H32.4336C32.4834 13.6487 32.5925 13.4328 32.7344 13.2383L32.7334 13.2373C33.831 11.7485 34.9949 10.2694 36.2227 8.79785Z" stroke="#CD8C0C" stroke-opacity="0.07" stroke-width="5"/>
<path d="M39.9443 8.19796L36.6325 11.7039C36.5869 11.7536 36.5567 11.8155 36.5456 11.882C36.5346 11.9485 36.5431 12.0168 36.5702 12.0786C36.5973 12.1404 36.6417 12.1929 36.6982 12.2298C36.7546 12.2668 36.8206 12.2865 36.888 12.2865H43.2969L43.3991 14.2593L42.7552 15.864C42.6053 16.232 42.3327 16.416 41.9374 16.416H30.9187C30.5303 16.416 30.2782 16.232 30.1624 15.864C29.6854 14.2899 29.8693 12.9237 30.7143 11.7652C32.2611 9.66644 33.9307 7.58808 35.7228 5.53016C35.8248 5.41618 35.8918 5.27528 35.9159 5.12426C35.94 4.97324 35.9202 4.81847 35.8588 4.67841C35.7974 4.53834 35.697 4.4189 35.5695 4.33432C35.4421 4.24973 35.2931 4.20358 35.1402 4.20137L31.4604 4.12982C31.1333 4.123 30.9221 3.96627 30.8267 3.65963C30.6359 3.09404 30.5507 2.42624 30.5712 1.65622C30.5644 1.32232 30.6359 0.950945 30.7858 0.542086C30.9017 0.228628 31.1265 0.0718994 31.4604 0.0718994H42.6325C42.9664 0.0718994 43.1879 0.232036 43.2969 0.552308C44.5746 4.25247 41.9477 5.80614 39.9443 8.19796Z" fill="#4752C4"/>
<path d="M10.946 24.307C14.5031 25.7176 14.2578 21.8641 17.038 22.6818C17.4147 22.7947 17.7457 23.024 17.9828 23.3365C18.2199 23.649 18.3508 24.0283 18.3565 24.4195C18.3702 25.3394 18.0159 26.106 17.2935 26.7193C14.5542 29.0566 11.7024 29.353 8.73818 27.6086C8.00224 27.1725 7.81144 26.566 8.16579 25.7891L8.36 25.3394C8.89151 24.1742 9.75349 23.83 10.946 24.307Z" fill="#020202"/>
<path d="M30.4895 23.663C31.3992 24.8283 32.8404 24.7874 34.0772 24.2763C34.3463 24.1668 34.6361 24.1175 34.9263 24.1317C35.2164 24.146 35.4999 24.2235 35.757 24.3589C36.0141 24.4942 36.2384 24.6841 36.4144 24.9153C36.5903 25.1464 36.7136 25.4133 36.7757 25.6971C37.0516 27.0259 36.0397 28.0378 34.8234 28.3444C31.6275 29.1485 29.0755 28.4262 27.1675 26.1775C26.5474 25.4416 26.4179 24.6272 26.7791 23.7346C26.9631 23.2916 27.3277 22.9884 27.8728 22.8249C28.9358 22.5114 29.8081 22.7908 30.4895 23.663Z" fill="#020202"/>
<path d="M22.4763 38.9042C24.7289 38.9042 26.5551 37.0781 26.5551 34.8254C26.5551 32.5727 24.7289 30.7466 22.4763 30.7466C20.2236 30.7466 18.3975 32.5727 18.3975 34.8254C18.3975 37.0781 20.2236 38.9042 22.4763 38.9042Z" fill="#020202"/>
<defs>
<linearGradient id="paint0_linear_5_1089" x1="22.4975" y1="0" x2="22.4975" y2="45" gradientUnits="userSpaceOnUse">
<stop stop-color="#FFE1A1"/>
<stop offset="1" stop-color="#FFAD00"/>
</linearGradient>
<linearGradient id="paint1_linear_5_1089" x1="22.4975" y1="0" x2="22.4975" y2="45" gradientUnits="userSpaceOnUse">
<stop stop-color="#FFE1A1"/>
<stop offset="1" stop-color="#FFAD00"/>
</linearGradient>
</defs>
</svg>
