<svg width="45" height="45" viewBox="0 0 45 45" fill="none" xmlns="http://www.w3.org/2000/svg">
<path d="M45 22.5C45 28.4674 42.6295 34.1903 38.4099 38.4099C34.1903 42.6295 28.4674 45 22.5 45C16.5326 45 10.8097 42.6295 6.59008 38.4099C2.37051 34.1903 0 28.4674 0 22.5C0 19.5453 0.58198 16.6195 1.71271 13.8896C2.84344 11.1598 4.50076 8.67942 6.59008 6.5901C10.8097 2.37053 16.5326 0 22.5 0C25.4547 0 28.3806 0.58198 31.1104 1.71271C33.8402 2.84344 36.3206 4.50078 38.4099 6.5901C40.4992 8.67942 42.1566 11.1598 43.2873 13.8896C44.418 16.6195 45 19.5453 45 22.5ZM10.7844 23.8609C8.339 27.882 14.9284 31.4632 16.4939 25.2831C16.542 25.0962 16.6277 24.9215 16.7457 24.7701C16.8636 24.6187 17.0113 24.4937 17.1794 24.4032C17.8615 24.028 18.281 23.4277 18.4379 22.6023C18.5144 22.1995 18.4434 21.7832 18.2382 21.4311C18.0329 21.0791 17.7075 20.8152 17.3226 20.689L10.6207 18.4584C9.46795 18.0696 8.73125 18.4652 8.41065 19.6453L8.27763 20.1057C7.99795 21.1426 8.3629 21.8418 9.37245 22.2033L10.324 22.5512C11.013 22.7967 11.1664 23.2333 10.7844 23.8609ZM34.4816 22.6944C36.0846 22.4284 36.8622 21.5791 36.8145 20.1467C36.8045 19.8634 36.7289 19.5864 36.5937 19.3373C36.4585 19.0883 36.2673 18.874 36.0353 18.7113C35.8032 18.5487 35.5365 18.4421 35.2563 18.4C34.976 18.3579 34.6898 18.3814 34.4202 18.4686L27.882 20.5969C27.5397 20.7086 27.2355 20.9137 27.0034 21.1891C26.7714 21.4644 26.6209 21.799 26.5688 22.1553C26.5167 22.5116 26.5651 22.8753 26.7085 23.2056C26.8519 23.5358 27.0847 23.8195 27.3806 24.0246C28.9256 25.0887 28.588 26.7667 29.9079 27.9843C32.3124 30.1944 36.2722 26.8077 34.0519 23.7176C33.6494 23.1514 33.7926 22.8104 34.4816 22.6944ZM24.3929 34.4407L25.8356 36.1289C26.082 36.4139 26.4082 36.6184 26.772 36.716C27.1359 36.8136 27.5206 36.7998 27.8766 36.6764C28.2325 36.553 28.5432 36.3256 28.7685 36.0237C28.9939 35.7218 29.1234 35.3593 29.1405 34.983C29.1814 34.0962 28.8711 33.2572 28.2094 32.4659C22.0089 25.0478 12.2988 34.4509 17.0771 36.7019C17.4015 36.8546 17.7669 36.8972 18.1177 36.8233C18.4686 36.7495 18.7858 36.5631 19.0212 36.2927L20.648 34.4304C20.8796 34.1617 21.1667 33.9463 21.4896 33.799C21.8125 33.6517 22.1638 33.576 22.5193 33.5769C22.8748 33.5779 23.2262 33.6556 23.5495 33.8046C23.8729 33.9537 24.1606 34.1706 24.3929 34.4407Z" fill="#F23F43"/>
<path d="M22.5 2.5C25.1263 2.5 27.7269 3.01745 30.1533 4.02246C32.5798 5.02755 34.7854 6.50025 36.6426 8.35742C38.4997 10.2146 39.9724 12.4202 40.9775 14.8467C41.9826 17.2731 42.5 19.8737 42.5 22.5C42.5 27.8043 40.3933 32.8919 36.6426 36.6426C32.8919 40.3933 27.8043 42.5 22.5 42.5C17.1957 42.5 12.1082 40.3933 8.35742 36.6426C4.6067 32.8919 2.5 27.8043 2.5 22.5C2.5 19.8737 3.01744 17.2731 4.02246 14.8467C5.02756 12.4202 6.50026 10.2146 8.35742 8.35742C12.1081 4.6067 17.1957 2.5 22.5 2.5ZM11.4092 16.0859C10.4798 15.7744 9.22604 15.6133 8.02051 16.2607C6.83046 16.8999 6.27104 18.0148 6.00977 18.9512H6.00879L5.87598 19.4121L5.86426 19.4551C5.6209 20.3575 5.56099 21.4837 6.125 22.5645C6.56006 23.398 7.23069 23.9406 7.91797 24.291C7.64189 25.3893 7.70316 26.4983 8.08105 27.5176C8.63571 29.0135 9.80938 30.1499 11.1934 30.7129C12.3289 31.1748 13.6624 31.2681 14.9424 30.8164C14.3137 31.5672 13.819 32.4102 13.541 33.3076C13.2522 34.24 13.1637 35.3662 13.6016 36.4824C14.0533 37.6339 14.9414 38.4596 16.0117 38.9639H16.0127C16.8295 39.3481 17.7494 39.4555 18.6328 39.2695C19.5145 39.0839 20.3111 38.6156 20.9033 37.9365L20.9043 37.9375L22.5156 36.0918L23.9346 37.7529L23.9395 37.7588L23.9443 37.7637C24.5178 38.427 25.2771 38.9036 26.124 39.1309C26.971 39.358 27.8668 39.3253 28.6953 39.0381C29.5239 38.7508 30.2479 38.2223 30.7725 37.5195C31.2965 36.8174 31.5975 35.9738 31.6377 35.0986C31.7094 33.5446 31.1619 32.1558 30.2324 30.9932C32.1649 31.5718 34.1725 30.8445 35.4307 29.6562C36.7613 28.3996 37.539 26.4268 37.0674 24.3926C37.4414 24.1676 37.7959 23.8904 38.1113 23.5459C39.0435 22.5276 39.3535 21.2644 39.3135 20.0635L39.3125 20.0586C39.2918 19.4725 39.1531 18.8974 38.9043 18.3682L38.791 18.1445L38.665 17.9277C38.3568 17.4308 37.9501 17.0007 37.4697 16.6641C36.9896 16.3276 36.447 16.0929 35.875 15.9727L35.6279 15.9277L35.3789 15.8975C34.7966 15.8442 34.2084 15.9093 33.6504 16.0898L33.6465 16.0918L27.1084 18.2197L27.1064 18.2207C26.4199 18.4449 25.7994 18.8323 25.2988 19.3486L25.0918 19.5781C24.6264 20.1304 24.3038 20.7867 24.1504 21.4893L24.0947 21.7939C23.9754 22.6105 24.0864 23.4442 24.415 24.2012C24.7438 24.9582 25.2777 25.6088 25.9561 26.0791L25.9629 26.083C26.0728 26.1587 26.1515 26.2158 26.3984 26.8516C26.5175 27.1582 26.697 27.6823 27.0176 28.2686C25.8461 27.6324 24.6126 27.2808 23.3672 27.1885C21.3198 27.0369 19.4011 27.5903 17.8359 28.457C18.2384 27.833 18.5568 27.1213 18.792 26.3408C19.9393 25.564 20.639 24.4083 20.8936 23.0693V23.0684C21.0699 22.1394 20.9294 21.1765 20.4902 20.3379L20.3984 20.1719L20.2988 20.0107C19.7863 19.2166 19.0169 18.6159 18.1113 18.3164H18.1123L11.4102 16.0859H11.4092Z" stroke="#CD8C0C" stroke-opacity="0.07" stroke-width="5"/>
<path d="M10.3239 22.5512L9.37235 22.2033C8.3628 21.8417 7.99785 21.1426 8.27753 20.1057L8.41055 19.6453C8.73115 18.4652 9.46785 18.0696 10.6206 18.4584L17.3225 20.6889C17.7074 20.8152 18.0328 21.079 18.2381 21.4311C18.4433 21.7832 18.5143 22.1995 18.4378 22.6023C18.2809 23.4277 17.8614 24.028 17.1793 24.4031C17.0112 24.4937 16.8635 24.6186 16.7456 24.7701C16.6276 24.9215 16.5419 25.0962 16.4938 25.2831C14.9283 31.4632 8.3389 27.882 10.7843 23.8608C11.1663 23.2333 11.0129 22.7967 10.3239 22.5512Z" fill="#020202"/>
<path d="M34.0518 23.7176C36.2721 26.8076 32.3123 30.1944 29.9078 27.9843C28.5879 26.7667 28.9256 25.0887 27.3805 24.0245C27.0846 23.8194 26.8518 23.5358 26.7084 23.2055C26.565 22.8753 26.5166 22.5115 26.5687 22.1553C26.6208 21.799 26.7713 21.4644 27.0034 21.189C27.2354 20.9137 27.5396 20.7086 27.8819 20.5968L34.4201 18.4686C34.6897 18.3814 34.9759 18.3579 35.2562 18.4C35.5364 18.4421 35.8031 18.5487 36.0352 18.7113C36.2672 18.874 36.4584 19.0883 36.5936 19.3373C36.7288 19.5864 36.8044 19.8634 36.8144 20.1466C36.8621 21.5791 36.0845 22.4284 34.4815 22.6944C33.7925 22.8104 33.6493 23.1514 34.0518 23.7176Z" fill="#020202"/>
<path d="M24.3928 34.4407C24.1605 34.1707 23.8728 33.9537 23.5494 33.8047C23.2261 33.6556 22.8747 33.5779 22.5192 33.577C22.1637 33.576 21.8124 33.6517 21.4895 33.799C21.1666 33.9463 20.8795 34.1617 20.6479 34.4305L19.021 36.2927C18.7857 36.5632 18.4685 36.7495 18.1176 36.8234C17.7668 36.8972 17.4014 36.8546 17.077 36.702C12.2987 34.4509 22.0087 25.0478 28.2093 32.4659C28.871 33.2572 29.1813 34.0962 29.1404 34.983C29.1233 35.3593 28.9937 35.7219 28.7684 36.0238C28.5431 36.3256 28.2324 36.553 27.8765 36.6764C27.5205 36.7998 27.1358 36.8136 26.7719 36.716C26.4081 36.6184 26.0819 36.4139 25.8355 36.129L24.3928 34.4407Z" fill="#020202"/>
</svg>
