<svg width="45" height="45" viewBox="0 0 45 45" fill="none" xmlns="http://www.w3.org/2000/svg">
<path d="M36.4684 4.75136C36.1551 5.78678 35.8043 6.81538 35.416 7.83717C34.3738 10.6267 34.7007 13.4059 37.9398 14.2336C39.7177 14.69 41.2538 13.9747 42.5481 12.0878C47.4527 22.7758 44.6836 34.4446 35.0992 41.0761C26.2198 47.217 14.5101 45.9704 6.82624 38.5931C-4.64848 27.5577 -1.10286 8.66483 13.3146 2.08449C20.9304 -1.40323 28.6483 -0.514269 36.4684 4.75136ZM17.412 19.2506C14.7145 17.9291 12.1464 18.1913 9.7077 20.0374C8.94476 20.6096 8.45089 21.3487 8.2261 22.2547C7.83782 23.8589 9.41138 24.6967 10.7601 24.5435C10.9367 24.5244 11.107 24.469 11.2601 24.3811C11.4132 24.2931 11.5457 24.1744 11.6491 24.0326C12.705 22.5816 14.1014 22.207 15.8384 22.9086C16.261 23.0793 16.7333 23.0813 17.1587 22.9141C17.5841 22.747 17.9305 22.4234 18.1273 22.0094L18.2703 21.6927C18.7812 20.6028 18.4951 19.7887 17.412 19.2506ZM32.7491 23.3582C33.3417 24.1484 34.0434 24.5332 34.854 24.5128C35.2218 24.505 35.5804 24.3965 35.8908 24.1992C36.2013 24.0019 36.4518 23.7233 36.615 23.3936C36.7783 23.064 36.848 22.6959 36.8168 22.3294C36.7855 21.9628 36.6545 21.6119 36.4378 21.3146C34.6735 18.8827 32.1326 18.0142 28.8152 18.709C28.4738 18.7827 28.1568 18.9447 27.8956 19.1791C26.758 20.2009 26.3493 21.0489 26.6694 21.7233C27.1667 22.7792 27.9841 23.1675 29.1217 22.8882C29.837 22.7111 30.5557 22.6225 31.2777 22.6225C31.5614 22.6257 31.841 22.6936 32.0958 22.821C32.3506 22.9484 32.5739 23.132 32.7491 23.3582ZM21.1415 38.5829C22.5244 38.869 23.897 38.8417 25.2594 38.5011C28.4065 37.7178 30.7941 35.6231 32.4221 32.2171C33.2089 30.5823 32.2075 28.7328 30.3581 28.7022C26.2028 28.634 21.3459 28.617 15.7874 28.6511C12.3473 28.6647 11.4243 30.194 13.0183 33.2389C14.4556 35.9841 17.1634 37.7655 21.1415 38.5829Z" fill="url(#paint0_linear_5_1083)"/>
<path d="M14.3555 4.35742C20.5743 1.50946 26.8654 1.8943 33.4873 5.82422C33.3559 6.19979 33.2212 6.57531 33.0791 6.94922L33.0742 6.96191C32.4537 8.6227 32.0987 10.6266 32.6846 12.5127C33.3314 14.5947 34.9736 16.0564 37.3213 16.6562V16.6553C38.7188 17.0134 40.1427 16.9272 41.4785 16.3057C44.0928 24.9981 41.2615 33.7715 33.6768 39.0195C25.8211 44.4524 15.4258 43.3833 8.55859 36.791H8.55957C-1.59931 27.0211 1.48455 10.2315 14.3525 4.3584L14.3555 4.35742ZM15.7725 26.1514C13.9551 26.1592 11.5777 26.5239 10.375 28.5166C9.2455 30.388 9.8696 32.505 10.6465 34.0889L10.8037 34.3984C12.6902 38.0015 16.1687 40.1118 20.6348 41.0303V41.0312C22.3833 41.393 24.1364 41.3589 25.8652 40.9268L25.8643 40.9258C29.8577 39.9313 32.787 37.2505 34.6777 33.2949L34.6768 33.2939C36.1573 30.2062 34.2758 26.2664 30.3994 26.2021L27.1338 26.1611C24.8701 26.1397 22.4321 26.1305 19.8203 26.1348L15.7725 26.1514ZM18.1924 16.8545C16.5902 16.1267 14.9159 15.7945 13.209 15.9688C11.5048 16.1428 9.92555 16.8061 8.48535 17.834L8.20801 18.0371C6.99544 18.9465 6.1665 20.1747 5.7998 21.6523L5.79785 21.6592L5.7959 21.667C5.35021 23.5093 6.08789 25.1045 7.32715 26.0479C8.42047 26.8801 9.81208 27.1632 11.0283 27.0283L11.0293 27.0293C11.5478 26.9732 12.051 26.8102 12.5059 26.5488C12.9609 26.2873 13.3577 25.9326 13.6689 25.5059L13.6709 25.5039C13.9441 25.1285 14.1111 25.0847 14.1357 25.0781C14.1726 25.0682 14.3879 25.0188 14.9023 25.2266C15.9197 25.6375 17.0545 25.6414 18.0732 25.2412C19.0913 24.8412 19.9174 24.0675 20.3857 23.082L20.3955 23.0605L20.4053 23.0381L20.5479 22.7207C20.9614 21.8242 21.2267 20.6557 20.7979 19.4355C20.4189 18.3575 19.6423 17.6485 18.8594 17.1924L18.5244 17.0117L18.5117 17.0059L18.1924 16.8545ZM34.0176 16.4736C32.2241 15.8606 30.2872 15.8461 28.3027 16.2617L28.2959 16.2637L28.0029 16.3369C27.3441 16.5248 26.7368 16.8606 26.2266 17.3184L26.2246 17.3193C25.5461 17.9288 24.8902 18.652 24.4834 19.4961C24.0444 20.4072 23.8444 21.6022 24.4111 22.7959V22.7949C24.8339 23.6898 25.519 24.5591 26.583 25.0645C27.6483 25.5704 28.7567 25.5523 29.7178 25.3164L29.7227 25.3145C30.1406 25.211 30.555 25.1521 30.9678 25.1318C31.915 26.2625 33.2429 27.0492 34.9062 27.0107L34.9072 27.0127C35.7316 26.9951 36.5355 26.7518 37.2314 26.3096C37.9275 25.8672 38.4895 25.242 38.8555 24.5029C39.1757 23.8562 39.3353 23.1434 39.3232 22.4248L39.3076 22.1172L39.2715 21.8105C39.1617 21.1003 38.8821 20.4249 38.457 19.8418C37.3102 18.2629 35.831 17.0935 34.0176 16.4736Z" stroke="#CD8C0C" stroke-opacity="0.07" stroke-width="5"/>
<path d="M42.5481 12.0878C41.2538 13.9747 39.7177 14.69 37.9398 14.2336C34.7007 13.4059 34.3738 10.6267 35.416 7.83718C35.8043 6.81539 36.1551 5.78679 36.4684 4.75137L38.2055 2.49321C38.276 2.40165 38.366 2.32698 38.4691 2.27464C38.5721 2.2223 38.6855 2.19362 38.801 2.19068C38.9166 2.18774 39.0313 2.21063 39.1368 2.25766C39.2424 2.3047 39.3361 2.3747 39.4112 2.46256C42.0338 5.56881 43.0794 8.77723 42.5481 12.0878Z" fill="#2EB6FF"/>
<path d="M17.4121 19.2505C18.4952 19.7886 18.7813 20.6026 18.2704 21.6926L18.1274 22.0093C17.9306 22.4233 17.5842 22.7469 17.1588 22.914C16.7334 23.0811 16.2611 23.0792 15.8386 22.9085C14.1015 22.2069 12.7051 22.5815 11.6492 24.0325C11.5458 24.1743 11.4133 24.293 11.2602 24.3809C11.1071 24.4689 10.9368 24.5242 10.7603 24.5434C9.41149 24.6966 7.83793 23.8588 8.22621 22.2545C8.45101 21.3486 8.94487 20.6095 9.70781 20.0373C12.1465 18.1912 14.7146 17.929 17.4121 19.2505Z" fill="#020202"/>
<path d="M31.2777 22.6224C30.5557 22.6224 29.837 22.7109 29.1217 22.888C27.9841 23.1673 27.1667 22.779 26.6694 21.7232C26.3493 21.0488 26.758 20.2007 27.8956 19.1789C28.1569 18.9445 28.4738 18.7825 28.8152 18.7089C32.1326 18.0141 34.6735 18.8826 36.4378 21.3145C36.6545 21.6117 36.7856 21.9627 36.8168 22.3292C36.848 22.6958 36.7783 23.0638 36.615 23.3935C36.4518 23.7231 36.2013 24.0018 35.8908 24.1991C35.5804 24.3964 35.2218 24.5048 34.854 24.5127C34.0434 24.5331 33.3417 24.1482 32.7491 23.3581C32.5739 23.1319 32.3506 22.9483 32.0958 22.8209C31.841 22.6935 31.5614 22.6256 31.2777 22.6224Z" fill="#020202"/>
<path d="M21.1416 38.5826C17.1634 37.7652 14.4556 35.9839 13.0183 33.2387C11.4243 30.1937 12.3474 28.6644 15.7874 28.6508C21.3459 28.6168 26.2028 28.6338 30.3581 28.7019C32.2076 28.7326 33.2089 30.582 32.4221 32.2169C30.7941 35.6228 28.4065 37.7175 25.2594 38.5009C23.897 38.8415 22.5244 38.8687 21.1416 38.5826Z" fill="#020202"/>
<defs>
<linearGradient id="paint0_linear_5_1083" x1="22.464" y1="0" x2="22.464" y2="45" gradientUnits="userSpaceOnUse">
<stop stop-color="#FFE1A1"/>
<stop offset="1" stop-color="#FFAD00"/>
</linearGradient>
</defs>
</svg>
