<svg width="45" height="45" viewBox="0 0 45 45" fill="none" xmlns="http://www.w3.org/2000/svg">
<path d="M45 22.5C45 28.4674 42.6295 34.1903 38.41 38.4099C34.1904 42.6295 28.4674 45 22.5 45C16.5326 45 10.8097 42.6295 6.59011 38.4099C2.37054 34.1903 0 28.4674 0 22.5C0 16.5326 2.37054 10.8097 6.59011 6.5901C10.8097 2.37053 16.5326 0 22.5 0C28.4674 0 34.1904 2.37053 38.41 6.5901C42.6295 10.8097 45 16.5326 45 22.5ZM14.28 21.4866C14.28 21.0873 14.2014 20.692 14.0486 20.3231C13.8958 19.9543 13.6719 19.6191 13.3896 19.3368C13.1072 19.0545 12.7721 18.8305 12.4032 18.6777C12.0344 18.525 11.639 18.4463 11.2398 18.4463C10.4334 18.4463 9.66016 18.7666 9.08999 19.3368C8.51983 19.9069 8.19951 20.6803 8.19951 21.4866C8.19951 22.2929 8.51983 23.0662 9.08999 23.6364C9.66016 24.2065 10.4334 24.5269 11.2398 24.5269C11.639 24.5269 12.0344 24.4482 12.4032 24.2954C12.7721 24.1426 13.1072 23.9187 13.3896 23.6364C13.6719 23.3541 13.8958 23.0189 14.0486 22.65C14.2014 22.2812 14.28 21.8858 14.28 21.4866ZM36.8005 21.4866C36.8005 20.6803 36.4802 19.9069 35.91 19.3368C35.3399 18.7666 34.5666 18.4463 33.7603 18.4463C32.9539 18.4463 32.1806 18.7666 31.6105 19.3368C31.0403 19.9069 30.72 20.6803 30.72 21.4866C30.72 22.2929 31.0403 23.0662 31.6105 23.6364C32.1806 24.2065 32.9539 24.5269 33.7603 24.5269C34.5666 24.5269 35.3399 24.2065 35.91 23.6364C36.4802 23.0662 36.8005 22.2929 36.8005 21.4866ZM28.7853 27.2293C25.571 31.3547 19.6747 32.2248 16.5935 27.6388C15.9247 26.6424 15.0307 26.3558 13.9115 26.7789C13.7204 26.8471 13.5601 26.9666 13.4304 27.1372C12.5978 28.2223 12.6217 29.2903 13.5021 30.3412C18.5692 36.4115 27.3828 36.3296 31.8767 29.727C32.7024 28.5191 32.4636 27.5876 31.1602 26.9324L30.8326 26.7687C30.0205 26.3592 29.3381 26.5127 28.7853 27.2293Z" fill="url(#paint0_linear_5_1073)"/>
<path d="M22.5 2.5C27.8043 2.5 32.8919 4.60671 36.6426 8.35742C40.3933 12.1081 42.5 17.1957 42.5 22.5C42.5 27.8043 40.3933 32.8919 36.6426 36.6426C32.8919 40.3933 27.8043 42.5 22.5 42.5C17.1957 42.5 12.1081 40.3933 8.35742 36.6426C4.6067 32.8918 2.5 27.8043 2.5 22.5C2.5 17.1957 4.6067 12.1082 8.35742 8.35742C12.1081 4.6067 17.1957 2.5 22.5 2.5ZM33.7607 15.9463C32.2914 15.9463 30.8818 16.5303 29.8428 17.5693C28.8039 18.6083 28.2198 20.0172 28.2197 21.4863C28.2197 22.4447 28.4696 23.3771 28.9307 24.1982C27.995 24.4715 27.2999 25.065 26.8135 25.6924C25.5938 27.2577 23.942 28.1024 22.4629 28.207C21.0735 28.3053 19.6971 27.7758 18.668 26.2441C18.1083 25.4109 17.301 24.6538 16.1846 24.2959C16.1354 24.2801 16.0862 24.2658 16.0371 24.252C16.157 24.044 16.2661 23.8292 16.3584 23.6064C16.6368 22.9343 16.7803 22.2138 16.7803 21.4863C16.7802 20.7589 16.6368 20.0383 16.3584 19.3662C16.08 18.6941 15.6716 18.0837 15.1572 17.5693C14.6429 17.055 14.0324 16.6466 13.3604 16.3682C12.6883 16.0898 11.9676 15.9463 11.2402 15.9463C9.77086 15.9463 8.36127 16.5303 7.32227 17.5693C6.28342 18.6082 5.69929 20.0171 5.69922 21.4863C5.69922 22.9557 6.28328 24.3653 7.32227 25.4043C8.22252 26.3045 9.40083 26.862 10.6553 26.9951C10.4366 27.5492 10.3097 28.1555 10.3242 28.8076C10.352 30.0516 10.8845 31.1073 11.583 31.9424V31.9434C17.6304 39.1878 28.4432 39.2148 33.9434 31.1338L33.9424 31.1328C34.5478 30.2458 35.1117 28.9589 34.7383 27.502C34.6901 27.314 34.6285 27.1362 34.5576 26.9678C35.732 26.7969 36.8286 26.2534 37.6777 25.4043C38.7168 24.3653 39.3008 22.9557 39.3008 21.4863C39.3007 20.0172 38.7166 18.6083 37.6777 17.5693C36.6388 16.5305 35.2299 15.9464 33.7607 15.9463Z" stroke="#CD8C0C" stroke-opacity="0.07" stroke-width="5"/>
<path d="M11.2399 24.5266C12.9189 24.5266 14.2801 23.1654 14.2801 21.4863C14.2801 19.8072 12.9189 18.446 11.2399 18.446C9.56076 18.446 8.19958 19.8072 8.19958 21.4863C8.19958 23.1654 9.56076 24.5266 11.2399 24.5266Z" fill="#020202"/>
<path d="M33.7602 24.5266C35.4393 24.5266 36.8004 23.1654 36.8004 21.4863C36.8004 19.8072 35.4393 18.446 33.7602 18.446C32.0811 18.446 30.72 19.8072 30.72 21.4863C30.72 23.1654 32.0811 24.5266 33.7602 24.5266Z" fill="#020202"/>
<path d="M16.5936 27.6385C19.6748 32.2245 25.5711 31.3544 28.7854 27.229C29.3382 26.5125 30.0206 26.3589 30.8327 26.7684L31.1603 26.9322C32.4637 27.5873 32.7025 28.5188 31.8768 29.7268C27.3829 36.3294 18.5693 36.4113 13.5021 30.341C12.6218 29.29 12.5979 28.222 13.4305 27.1369C13.5602 26.9663 13.7205 26.8469 13.9116 26.7786C15.0308 26.3555 15.9248 26.6421 16.5936 27.6385Z" fill="#020202"/>
<defs>
<linearGradient id="paint0_linear_5_1073" x1="22.5" y1="0" x2="22.5" y2="45" gradientUnits="userSpaceOnUse">
<stop stop-color="#FFE1A1"/>
<stop offset="1" stop-color="#FFAD00"/>
</linearGradient>
</defs>
</svg>
