<svg width="45" height="45" viewBox="0 0 45 45" fill="none" xmlns="http://www.w3.org/2000/svg">
<path d="M45 22.5C45 25.4547 44.418 28.3806 43.2873 31.1104C42.1566 33.8402 40.4992 36.3206 38.4099 38.4099C36.3206 40.4992 33.8402 42.1566 31.1104 43.2873C28.3806 44.418 25.4547 45 22.5 45C16.5326 45 10.8097 42.6295 6.5901 38.4099C2.37053 34.1903 0 28.4674 0 22.5C0 16.5326 2.37053 10.8097 6.5901 6.5901C10.8097 2.37053 16.5326 0 22.5 0C28.4674 0 34.1903 2.37053 38.4099 6.5901C42.6295 10.8097 45 16.5326 45 22.5ZM13.8603 18.6306C14.3449 18.5487 14.8089 18.402 15.2525 18.1904C16.614 17.5557 16.6344 15.7234 15.621 14.71C15.4004 14.4926 15.1231 14.3418 14.8207 14.2748C14.5184 14.2078 14.2033 14.2273 13.9115 14.3312C11.8233 15.0751 9.69063 15.7848 7.51365 16.4604C6.41834 16.7982 6.02935 17.8731 6.14195 18.9172C6.17294 19.1768 6.27531 19.423 6.43783 19.6289C6.60034 19.8347 6.81672 19.9922 7.06324 20.0842C7.78663 20.3503 8.18244 20.8724 8.25069 21.6504C8.6192 26.1954 15.3344 24.9568 14.1265 20.4732C14.0514 20.2138 13.9149 19.9989 13.717 19.8283C13.6147 19.7395 13.5259 19.6338 13.4509 19.5109C13.1574 19.0127 13.2939 18.7193 13.8603 18.6306ZM31.4877 19.3369C28.0175 24.0662 36.5241 27.1576 36.8107 21.2818C36.8244 20.9133 36.995 20.6438 37.3226 20.4732L38.0289 20.0944C38.3581 19.9185 38.6287 19.6502 38.8074 19.3224C38.9861 18.9947 39.0651 18.6219 39.0346 18.2499C39.0041 17.8778 38.8656 17.5228 38.636 17.2286C38.4064 16.9343 38.0957 16.7135 37.7423 16.5935L31.0271 14.3414C30.675 14.225 30.2934 14.2314 29.9442 14.3595C29.595 14.4877 29.2985 14.7302 29.1026 15.0478C28.5976 15.8872 28.5191 16.6788 28.8672 17.4227C29.0309 17.7707 29.3005 17.9993 29.6758 18.1085L31.2318 18.5794C31.6754 18.7091 31.7607 18.9616 31.4877 19.3369ZM15.3958 30.9042C14.6042 31.3751 14.2459 32.061 14.321 32.9618C14.3507 33.3207 14.4777 33.6629 14.6893 33.9544C14.9009 34.2459 15.1897 34.4766 15.5271 34.6236C15.8644 34.7705 16.2386 34.8286 16.6125 34.7921C16.9863 34.7556 17.3468 34.6257 17.6581 34.4154C20.6062 32.4192 25.008 32.5626 28.4679 32.7775C29.8601 32.8594 30.5869 32.2077 30.6483 30.8223L30.6688 30.5152C30.7097 29.5394 30.2457 28.9832 29.2766 28.8467C24.5166 28.1711 19.3574 28.5396 15.3958 30.9042Z" fill="url(#paint0_linear_5_1078)"/>
<path d="M22.5 2.5C27.8043 2.5 32.8918 4.6067 36.6426 8.35742C40.3933 12.1081 42.5 17.1957 42.5 22.5C42.5 25.1263 41.9826 27.7269 40.9775 30.1533C39.9724 32.5798 38.4998 34.7854 36.6426 36.6426C34.7854 38.4997 32.5798 39.9724 30.1533 40.9775C27.7269 41.9826 25.1263 42.5 22.5 42.5C17.1957 42.5 12.1082 40.3933 8.35742 36.6426C4.6067 32.8918 2.5 27.8043 2.5 22.5L2.50586 22.0029C2.63311 16.8787 4.72401 11.9908 8.35742 8.35742C12.1081 4.60669 17.1957 2.5 22.5 2.5ZM29.6279 26.3711C24.7367 25.6769 19.1253 25.964 14.5537 28.5049L14.1143 28.7578C13.398 29.1846 12.7483 29.7894 12.3174 30.6143C11.8847 31.4426 11.7594 32.3262 11.8291 33.167V33.168C11.8966 33.9825 12.186 34.7615 12.666 35.4229C13.1455 36.0835 13.7913 36.5949 14.5283 36.916C15.2644 37.2367 16.0671 37.3573 16.8555 37.2803C17.6435 37.2033 18.4017 36.9304 19.0576 36.4873L19.0596 36.4854C20.0478 35.8163 21.4174 35.4217 23.1152 35.2549C24.8003 35.0893 26.5917 35.1656 28.3125 35.2725L28.3213 35.2734C29.3953 35.3366 30.6869 35.1432 31.7266 34.2109C32.7512 33.2918 33.0842 32.0532 33.1406 30.9873L33.1426 30.9883L33.1631 30.6816L33.165 30.6504L33.167 30.6201C33.2043 29.7308 33.0227 28.6652 32.2715 27.7646C31.5211 26.8653 30.5067 26.4953 29.627 26.3711H29.6279ZM15.0752 11.7812C14.4035 11.6812 13.7158 11.7469 13.0732 11.9756L13.0723 11.9766C11.5312 12.5255 9.96477 13.0557 8.37305 13.5674L6.77734 14.0713C4.08128 14.9028 3.47459 17.5011 3.65625 19.1855L3.6582 19.1992L3.65918 19.2139C3.74501 19.9324 4.02866 20.6116 4.47559 21.1777C4.83493 21.6329 5.29033 21.9985 5.80469 22.2559C6.03436 23.8812 6.83507 25.2249 8.08301 26.0781C9.3714 26.959 10.9056 27.1605 12.251 26.9023C13.5985 26.6437 14.9443 25.8891 15.8281 24.6064C16.6699 23.3846 16.9603 21.8718 16.6445 20.2803C18.0345 19.4859 18.7229 18.1053 18.8203 16.7744C18.9209 15.3987 18.4181 13.9718 17.3887 12.9424L17.376 12.9297L17.1611 12.7324C16.7188 12.3539 16.2017 12.0728 15.6436 11.9072L15.3613 11.834L15.0752 11.7812ZM31.8115 11.9678C31.0331 11.7105 30.1999 11.6914 29.416 11.9062L29.083 12.0127C28.2059 12.3346 27.4638 12.9423 26.9746 13.7354L26.9678 13.7471L26.96 13.7588C26.1208 15.1536 25.83 16.8312 26.6025 18.4824L26.6055 18.4873C26.9764 19.2754 27.5745 19.8777 28.3193 20.25C28.0654 21.2749 28.1026 22.319 28.4658 23.3174C29.08 25.0051 30.4682 26.1199 31.8848 26.6357C33.2999 27.1511 35.0861 27.192 36.6406 26.2744C38.0583 25.4375 38.9242 24.0184 39.21 22.2969C39.9675 21.8912 40.5905 21.274 41.002 20.5195C41.3625 19.8582 41.5476 19.1169 41.541 18.3672L41.5264 18.0459L41.4883 17.7266C41.3893 17.0915 41.1533 16.4854 40.7959 15.9512L40.6074 15.6904L40.3994 15.4443C39.8965 14.8886 39.259 14.4687 38.5459 14.2266L38.5371 14.2236L31.8223 11.9707L31.8115 11.9678Z" stroke="#CD8C0C" stroke-opacity="0.07" stroke-width="5"/>
<path d="M13.4509 19.5109C13.526 19.6337 13.6147 19.7395 13.717 19.8282C13.9149 19.9988 14.0514 20.2138 14.1265 20.4731C15.3344 24.9567 8.61923 26.1954 8.25071 21.6503C8.18247 20.8723 7.78665 20.3503 7.06326 20.0841C6.81674 19.9922 6.60036 19.8347 6.43785 19.6288C6.27533 19.423 6.17296 19.1767 6.14197 18.9172C6.02937 17.873 6.41836 16.7982 7.51368 16.4604C9.69065 15.7848 11.8233 15.075 13.9115 14.3312C14.2033 14.2273 14.5184 14.2077 14.8207 14.2747C15.1231 14.3417 15.4005 14.4925 15.621 14.7099C16.6345 15.7233 16.614 17.5557 15.2525 18.1904C14.8089 18.4019 14.3449 18.5486 13.8604 18.6305C13.2939 18.7192 13.1574 19.0127 13.4509 19.5109Z" fill="#020202"/>
<path d="M31.2318 18.5794L29.6759 18.1085C29.3005 17.9993 29.031 17.7707 28.8672 17.4227C28.5191 16.6788 28.5976 15.8872 29.1026 15.0478C29.2985 14.7302 29.595 14.4877 29.9442 14.3596C30.2935 14.2314 30.675 14.225 31.0271 14.3415L37.7423 16.5935C38.0957 16.7135 38.4064 16.9343 38.636 17.2286C38.8656 17.5229 39.0042 17.8779 39.0346 18.2499C39.0651 18.6219 38.9861 18.9947 38.8074 19.3224C38.6287 19.6502 38.3581 19.9185 38.0289 20.0944L37.3226 20.4732C36.995 20.6438 36.8244 20.9133 36.8108 21.2819C36.5241 27.1576 28.0175 24.0662 31.4877 19.3369C31.7607 18.9616 31.6754 18.7091 31.2318 18.5794Z" fill="#020202"/>
<path d="M15.396 30.9043C19.3575 28.5396 24.5168 28.1711 29.2768 28.8467C30.2459 28.9832 30.7099 29.5394 30.669 30.5153L30.6485 30.8224C30.5871 32.2077 29.8603 32.8595 28.4681 32.7776C25.0081 32.5626 20.6064 32.4193 17.6583 34.4154C17.347 34.6258 16.9865 34.7556 16.6126 34.7922C16.2388 34.8287 15.8646 34.7706 15.5272 34.6236C15.1899 34.4767 14.901 34.246 14.6895 33.9545C14.4779 33.6629 14.3509 33.3207 14.3212 32.9618C14.2461 32.061 14.6044 31.3752 15.396 30.9043Z" fill="#020202"/>
<defs>
<linearGradient id="paint0_linear_5_1078" x1="22.5" y1="0" x2="22.5" y2="45" gradientUnits="userSpaceOnUse">
<stop stop-color="#FFE1A1"/>
<stop offset="1" stop-color="#FFAD00"/>
</linearGradient>
</defs>
</svg>
