<svg width="80" height="80" viewBox="0 0 80 80" fill="none" xmlns="http://www.w3.org/2000/svg">
<rect x="0.5" y="0.5" width="79" height="79" rx="19.5" fill="#F1F1F1"/>
<rect x="0.5" y="0.5" width="79" height="79" rx="19.5" stroke="#EBEBEB"/>
<path d="M22.2864 64.0996H36.25V75.5538H22.2864V64.0996Z" fill="#F5A888"/>
<path d="M32.918 64.0996V68.6546C32.918 68.6546 31.9362 74 25.9362 74C24.4209 74 23.2266 73.6586 22.2864 73.1488V75.5538H36.25V64.0996H32.918Z" fill="#D17862"/>
<path d="M9.55097 76.8007L9.41091 78.0617C9.29602 79.0957 10.1053 79.9999 11.1457 79.9999H47.3908C48.4311 79.9999 49.2404 79.0957 49.1255 78.0617L48.9855 76.8007C48.8325 75.4238 48.2734 74.1236 47.3792 73.0655C46.4851 72.0074 45.2964 71.2391 43.9644 70.8586L36.25 68.6544C36.25 68.6544 35.2682 73.9999 29.2683 73.9999C23.2682 73.9999 22.2865 68.6544 22.2865 68.6544L14.5721 70.8586C13.2401 71.2391 12.0514 72.0073 11.1572 73.0655C10.2631 74.1236 9.70396 75.4238 9.55097 76.8007Z" fill="#976DC9"/>
<path d="M42.5593 47.8788L42.7825 47.7028C44.3384 46.4728 46.6455 47.0827 47.3833 48.9192C47.5698 49.3831 47.6349 49.8868 47.5726 50.3829L47.0543 54.5108C46.8862 55.8487 46.0576 57.0146 44.8462 57.6176C44.3447 57.8671 43.7971 58.0103 43.2377 58.0383C42.6783 58.0663 42.1192 57.9785 41.5953 57.7803L40.9366 57.531H17.5998L16.9411 57.7803C16.4173 57.9785 15.8581 58.0663 15.2988 58.0383C14.7394 58.0103 14.1918 57.8671 13.6904 57.6176C12.4789 57.0146 11.6504 55.8487 11.4823 54.5108L10.964 50.3829C10.9017 49.8868 10.9668 49.3831 11.1533 48.9192C11.8911 47.0827 14.1982 46.4728 15.7541 47.7028L15.9773 47.8788H42.5593Z" fill="#D17862"/>
<path d="M43.6683 53.4865H14.8683C14.7256 53.4866 14.5844 53.4585 14.4525 53.4039C14.3207 53.3493 14.2009 53.2692 14.1 53.1684C13.9991 53.0675 13.9191 52.9477 13.8645 52.8159C13.8099 52.684 13.7818 52.5428 13.7819 52.4001C13.7818 52.2574 13.8099 52.1161 13.8645 51.9843C13.9191 51.8524 13.9991 51.7327 14.1 51.6318C14.2009 51.5309 14.3207 51.4509 14.4525 51.3963C14.5844 51.3417 14.7256 51.3136 14.8683 51.3136H43.6685C43.8111 51.3136 43.9524 51.3417 44.0842 51.3963C44.216 51.4509 44.3358 51.531 44.4367 51.6319C44.5376 51.7328 44.6176 51.8525 44.6722 51.9844C44.7268 52.1162 44.7549 52.2575 44.7549 52.4001C44.7549 52.5428 44.7267 52.6841 44.6721 52.8159C44.6175 52.9477 44.5375 53.0675 44.4366 53.1684C44.3357 53.2692 44.2159 53.3493 44.0841 53.4039C43.9523 53.4585 43.811 53.4865 43.6683 53.4865Z" fill="#B6553B"/>
<path d="M15.9774 36.7288V47.8789L16.6294 53.7464C16.9048 56.226 17.8397 58.5866 19.3367 60.5826L20.3936 61.9918C21.6437 63.6585 23.2054 65.0669 24.9919 66.1389C26.077 66.7899 27.3186 67.1338 28.584 67.1339H29.9527C30.982 67.1339 31.994 66.9027 32.9205 66.4673L33.8981 64.0996H36.2447C36.9359 63.4545 37.5733 62.7516 38.1432 61.9918L39.2001 60.5826C39.9054 59.6412 40.4888 58.6145 40.9367 57.5269L40.6792 53.7309L42.5593 47.8789V36.7288H15.9774Z" fill="#F5A888"/>
<path d="M39.2272 36.7288V47.8789L38.5753 53.7464C38.2998 56.226 37.3649 58.5866 35.868 60.5826L34.811 61.9918C33.5609 63.6585 31.9993 65.0669 30.2127 66.1389C29.413 66.6182 28.5254 66.9325 27.6023 67.0633C27.9275 67.1098 28.2555 67.1334 28.584 67.1339H29.9527C31.2181 67.1338 32.4597 66.7899 33.5448 66.1389C35.3314 65.067 36.8931 63.6586 38.1431 61.9918L39.2001 60.5826C40.6971 58.5866 41.6319 56.226 41.9074 53.7464L42.5593 47.8789V36.7288H39.2272Z" fill="#D17862"/>
<path d="M13.6683 47.0721C14.4187 47.0085 15.1649 47.2342 15.7542 47.7031L15.9774 47.879L16.5808 44.3836C16.9781 42.0817 18.9748 40.4001 21.3109 40.4001H37.226C39.5619 40.4001 41.5586 42.0817 41.956 44.3836L42.5595 47.879L42.7826 47.7031C43.3719 47.2343 44.1181 47.0086 44.8684 47.0721L46.4056 42.0301C47.0117 40.0422 46.8604 37.9003 45.9809 36.0173C45.1015 34.1343 43.5561 32.6436 41.6427 31.8324L39.2074 30.7999H19.3293L16.894 31.8324C14.9806 32.6436 13.4352 34.1343 12.5558 36.0173C11.6763 37.9003 11.5251 40.0422 12.1312 42.0301L13.6683 47.0721Z" fill="#58546A"/>
<path d="M71 20.3647C71 13.5734 65.4649 8.06091 58.6138 8.00049C51.6977 7.93953 45.9999 13.5233 46 20.3647C46 25.2298 48.8407 29.438 52.9706 31.4563C53.3346 31.6342 53.541 32.0241 53.4907 32.4225L53.0477 35.9281C52.9376 36.799 53.9775 37.3401 54.6407 36.7569L59.0004 32.9237C59.1545 32.7882 59.3478 32.7023 59.5532 32.6854C65.9637 32.1563 71 26.8427 71 20.3647Z" fill="#C4EAEA"/>
<path d="M20.8684 35.6L19.7692 32.8522C19.4233 31.9872 19.2756 31.0557 19.3371 30.1261C19.3985 29.1965 19.6676 28.2926 20.1245 27.4807C20.5813 26.6688 21.2144 25.9697 21.977 25.4347C22.7397 24.8997 23.6126 24.5425 24.5315 24.3893C27.6677 23.8666 30.8688 23.8666 34.005 24.3893C34.9239 24.5425 35.7968 24.8997 36.5595 25.4346C37.3222 25.9696 37.9553 26.6688 38.4122 27.4806C38.869 28.2925 39.1381 29.1965 39.1995 30.1261C39.261 31.0557 39.1133 31.9872 38.7673 32.8522L37.6681 35.6L36.4682 39.3087C36.0945 40.056 35.5552 40.708 34.8912 41.2152C34.2273 41.7223 33.4562 42.0711 32.637 42.2349L30.3441 42.6935C29.6338 42.8355 28.9025 42.8355 28.1923 42.6935L25.8994 42.2349C25.0801 42.0711 24.3091 41.7223 23.6451 41.2152C22.9811 40.7081 22.4418 40.056 22.0682 39.3087L20.8684 35.6Z" fill="#58546A"/>
<path d="M49.1256 78.0617L48.9856 76.8007C48.8326 75.4239 48.2735 74.1237 47.3794 73.0655C46.4853 72.0074 45.2966 71.2392 43.9646 70.8586L41.5853 70.1788C43.7525 71.2019 45.2725 73.2855 45.5431 75.7202L45.7938 78.0617C45.9086 79.0957 45.0991 79.9999 44.0589 79.9999H47.3909C48.4311 79.9999 49.2405 79.0957 49.1256 78.0617Z" fill="#8B5CC4"/>
<path d="M46.1695 36.4529C45.7572 35.4221 45.1449 34.4832 44.368 33.6901C43.591 32.8971 42.6648 32.2657 41.6426 31.8324L39.2441 30.8156C40.8637 31.8438 42.1348 33.4391 42.8374 35.3629C43.5485 37.3105 43.6318 39.4657 43.0734 41.472L42.0734 45.0648L42.5591 47.8788L42.7823 47.7029C43.3715 47.2342 44.1177 47.0085 44.868 47.0719L46.4052 42.03C46.964 40.1984 46.8808 38.2309 46.1695 36.4529Z" fill="#474457"/>
<path d="M58.5864 8.00049C58.0986 7.99614 57.6169 8.02089 57.1428 8.07093C63.4285 8.73379 68.3242 13.9847 68.3242 20.3646C68.3242 26.8427 63.2768 32.1562 56.8521 32.6852C56.6462 32.7022 56.4524 32.7881 56.298 32.9235L53.0249 35.7952L53.0081 35.9281C52.8978 36.799 53.9399 37.3401 54.6046 36.7569L58.9739 32.9235C59.1283 32.7881 59.322 32.7022 59.5279 32.6852C65.9527 32.1561 71 26.8425 71 20.3646C70.9999 13.5734 65.4527 8.0609 58.5864 8.00049Z" fill="#A7DDDD"/>
<path d="M37.9666 26.7977C37.0049 25.5154 35.5861 24.6529 34.005 24.3893C32.8179 24.1916 31.6195 24.0684 30.417 24.0206C30.5024 24.035 30.5879 24.0481 30.6731 24.0632C32.2541 24.3443 33.6729 25.2647 34.6346 26.6329C35.9398 28.4896 36.2432 30.938 35.4353 33.0929L35.3235 33.391C34.6655 35.1464 34.064 36.9224 33.5199 38.7164L33.1361 39.9818C32.5847 41.1585 31.6843 42.0873 30.5949 42.6432L32.6369 42.2348C33.4562 42.0709 34.2272 41.7222 34.8911 41.215C35.5551 40.7079 36.0945 40.0558 36.4681 39.3085L36.7571 38.4156C37.3643 36.539 38.0347 34.6835 38.7672 32.8522C39.1645 31.8591 39.2995 30.7805 39.1593 29.7201C39.0191 28.6598 38.6084 27.6534 37.9666 26.7977Z" fill="#474457"/>
<path d="M58.4993 21.3078C58.3653 21.3078 58.2332 21.2766 58.1135 21.2168C58.012 21.1664 57.9215 21.0966 57.8471 21.0114C57.7727 20.9261 57.716 20.8272 57.6801 20.7202C57.6442 20.6132 57.6299 20.5002 57.638 20.3876C57.646 20.2751 57.6763 20.1653 57.7271 20.0644L59.0079 17.5182L56.5944 17.5277H56.5911C56.4439 17.5277 56.2991 17.4904 56.1705 17.4192C56.0419 17.348 55.9337 17.2453 55.8562 17.1209C55.7787 16.9965 55.7345 16.8545 55.7277 16.7083C55.7209 16.5621 55.7519 16.4167 55.8175 16.2857L57.7265 12.476C57.7771 12.3751 57.8472 12.285 57.9328 12.2109C58.0185 12.1369 58.1179 12.0803 58.2255 12.0445C58.3331 12.0087 58.4468 11.9942 58.56 12.0021C58.6732 12.0099 58.7838 12.0398 58.8854 12.0901C58.9869 12.1404 59.0776 12.2101 59.1521 12.2952C59.2266 12.3803 59.2835 12.4791 59.3195 12.5861C59.3556 12.693 59.3701 12.806 59.3622 12.9185C59.3543 13.0311 59.3243 13.141 59.2737 13.2419L57.9898 15.8041L60.4057 15.7946H60.4091C60.5564 15.7946 60.7013 15.8321 60.8299 15.9034C60.9586 15.9747 61.0668 16.0775 61.1442 16.2021C61.2217 16.3266 61.2658 16.4688 61.2724 16.6151C61.279 16.7613 61.2479 16.9069 61.182 17.0378L59.273 20.8327C59.2012 20.9755 59.0907 21.0956 58.9541 21.1796C58.8174 21.2635 58.6599 21.3079 58.4993 21.3078ZM64.2262 27C64.0922 27 63.9601 26.9689 63.8404 26.9091C63.7389 26.8586 63.6483 26.7888 63.574 26.7036C63.4996 26.6184 63.4428 26.5194 63.407 26.4124C63.3711 26.3054 63.3568 26.1924 63.3648 26.0799C63.3729 25.9673 63.4032 25.8575 63.4539 25.7566L64.7348 23.2104L62.3213 23.2199H62.318C62.1707 23.2199 62.026 23.1825 61.8974 23.1113C61.7688 23.0402 61.6606 22.9375 61.5831 22.8131C61.5056 22.6887 61.4614 22.5467 61.4546 22.4005C61.4478 22.2544 61.4787 22.1089 61.5444 21.9779L63.4534 18.1682C63.504 18.0672 63.5741 17.9771 63.6597 17.9031C63.7453 17.829 63.8448 17.7725 63.9524 17.7366C64.06 17.7008 64.1736 17.6864 64.2869 17.6942C64.4001 17.702 64.5106 17.7319 64.6122 17.7822C64.7138 17.8325 64.8044 17.9022 64.8789 17.9873C64.9534 18.0724 65.0103 18.1712 65.0464 18.2782C65.0824 18.3852 65.0969 18.4981 65.0891 18.6107C65.0812 18.7232 65.0511 18.8331 65.0005 18.934L63.7166 21.4963L66.1325 21.487H66.1358C66.2831 21.487 66.428 21.5244 66.5567 21.5957C66.6853 21.667 66.7935 21.7698 66.871 21.8944C66.9484 22.019 66.9925 22.1611 66.9991 22.3074C67.0057 22.4537 66.9746 22.5992 66.9087 22.7302L64.9998 26.5251C64.928 26.6679 64.8176 26.7879 64.6809 26.8718C64.5443 26.9557 64.3868 27.0001 64.2262 27ZM52.7724 27C52.6385 27 52.5064 26.9689 52.3867 26.9091C52.2851 26.8586 52.1946 26.7888 52.1203 26.7036C52.0459 26.6184 51.9891 26.5194 51.9532 26.4124C51.9174 26.3054 51.903 26.1924 51.9111 26.0799C51.9192 25.9673 51.9494 25.8575 52.0002 25.7566L53.281 23.2104L50.8676 23.2199H50.8642C50.717 23.2199 50.5723 23.1825 50.4437 23.1113C50.3151 23.0402 50.2069 22.9375 50.1294 22.8131C50.0519 22.6887 50.0077 22.5467 50.0009 22.4005C49.9941 22.2544 50.025 22.1089 50.0907 21.9779L51.9995 18.1682C52.0501 18.0672 52.1202 17.9771 52.2059 17.9031C52.2915 17.829 52.3909 17.7725 52.4985 17.7366C52.6062 17.7008 52.7198 17.6864 52.833 17.6942C52.9462 17.702 53.0568 17.7319 53.1584 17.7822C53.26 17.8325 53.3506 17.9022 53.4251 17.9873C53.4996 18.0724 53.5565 18.1712 53.5925 18.2782C53.6286 18.3852 53.6431 18.4981 53.6352 18.6107C53.6274 18.7232 53.5973 18.8331 53.5467 18.934L52.2628 21.4963L54.6788 21.487H54.6821C54.8294 21.487 54.9743 21.5244 55.103 21.5957C55.2316 21.667 55.3398 21.7698 55.4172 21.8944C55.4947 22.019 55.5388 22.1611 55.5454 22.3074C55.552 22.4537 55.5209 22.5992 55.455 22.7302L53.546 26.5251C53.4742 26.6679 53.3638 26.7879 53.2272 26.8718C53.0905 26.9557 52.9331 27.0001 52.7724 27Z" fill="#63D6FB"/>
</svg>
