<svg width="25" height="24" viewBox="0 0 25 24" fill="none" xmlns="http://www.w3.org/2000/svg">
<path d="M10.3999 9.87994C10.1052 10.1546 9.86875 10.4858 9.70478 10.8538C9.54081 11.2218 9.45264 11.619 9.44554 12.0219C9.43843 12.4247 9.51253 12.8248 9.66341 13.1983C9.81429 13.5719 10.0389 13.9112 10.3237 14.1961C10.6086 14.481 10.948 14.7056 11.3215 14.8564C11.6951 15.0073 12.0952 15.0814 12.498 15.0743C12.9008 15.0672 13.2981 14.979 13.6661 14.8151C14.0341 14.6511 14.3653 14.4147 14.6399 14.1199M11.25 5.08006C11.6713 5.02757 12.0954 5.00085 12.52 5.00006C19.52 5.00006 22.52 12.0001 22.52 12.0001C22.0729 12.9572 21.5122 13.857 20.85 14.6801M7.13002 6.61017C5.14127 7.96479 3.54989 9.82543 2.52002 12.0002C2.52002 12.0002 5.52002 19.0002 12.52 19.0002C14.4359 19.0053 16.3108 18.4453 17.91 17.3902M2.52002 2.00006L22.52 22.0001" stroke="#09090B" stroke-width="2" stroke-linecap="round" stroke-linejoin="round"/>
</svg>
