<svg width="80" height="80" viewBox="0 0 80 80" fill="none" xmlns="http://www.w3.org/2000/svg">
<rect x="0.5" y="0.5" width="79" height="79" rx="19.5" fill="#F1F1F1"/>
<rect x="0.5" y="0.5" width="79" height="79" rx="19.5" stroke="#EBEBEB"/>
<g clip-path="url(#clip0_41_1328)">
<path d="M64.7334 48.6278L47.1672 53.7489C47.1079 53.7662 47.0532 53.7965 47.0071 53.8375C46.961 53.8786 46.9246 53.9295 46.9006 53.9864C46.8766 54.0433 46.8655 54.1048 46.8683 54.1665C46.8711 54.2282 46.8875 54.2885 46.9165 54.343L48.7597 57.8083C48.8144 57.9111 48.8282 58.0309 48.7983 58.1435C48.7684 58.2561 48.6971 58.3533 48.5985 58.4155L35.6093 66.6165C35.4111 66.7417 35.5401 67.0481 35.7682 66.9937L59.2249 61.4014C59.504 61.3348 59.6333 61.0122 59.4774 60.7713L56.8586 56.7252C56.7987 56.6328 56.7739 56.5221 56.7886 56.413C56.8032 56.3039 56.8563 56.2036 56.9383 56.1302L64.9296 48.9817C65.0944 48.8342 64.9454 48.5659 64.7334 48.6278Z" fill="#FFD15B"/>
<path d="M64.9298 48.9816C65.0945 48.8342 64.9455 48.5659 64.7334 48.6278L61.0447 49.7031L53.86 56.1301C53.778 56.2035 53.7249 56.3038 53.7103 56.4129C53.6957 56.522 53.7205 56.6327 53.7802 56.7251L56.3991 60.7712C56.555 61.0121 56.4257 61.3347 56.1466 61.4013L36.4208 66.1041L35.6094 66.6164C35.4112 66.7416 35.5402 67.048 35.7683 66.9936L59.225 61.4013C59.5041 61.3347 59.6334 61.0121 59.4775 60.7712L56.8587 56.7251C56.7989 56.6327 56.774 56.522 56.7887 56.4129C56.8033 56.3038 56.8564 56.2035 56.9385 56.1301L64.9298 48.9816Z" fill="#FDB441"/>
<path d="M53.9079 16H34.7852C34.5916 16.0001 34.4036 16.0645 34.2505 16.1831C34.0975 16.3017 33.9882 16.4678 33.9398 16.6552L28.2922 38.4547C28.1488 39.0079 28.4613 39.5768 29.0043 39.7518L37.6984 42.5512C37.8374 42.5961 37.9535 42.6933 38.0223 42.8222C38.091 42.9511 38.107 43.1017 38.0668 43.2422L31.4494 66.4137C31.3139 66.888 31.9201 67.2121 32.2378 66.8351L56.9702 37.5089C57.4128 36.9842 57.1715 36.1768 56.5139 35.9821L46.0344 32.8796C45.5394 32.7331 45.3214 32.1533 45.5967 31.7159L54.6466 17.342C55.0136 16.7593 54.5956 16 53.9079 16Z" fill="#FFD15B"/>
<path d="M56.5137 35.9821L46.0343 32.8796C45.5394 32.7331 45.3213 32.1533 45.5967 31.7159L54.6466 17.342C55.0135 16.7592 54.5956 16 53.9079 16H50.8294C51.5171 16 51.9351 16.7592 51.5681 17.342L42.5181 31.7159C42.2428 32.1533 42.4609 32.7331 42.9558 32.8796L53.4353 35.9821C54.0929 36.1769 54.3343 36.9842 53.8916 37.5089L32.4398 62.9453L31.4492 66.4137C31.3138 66.888 31.9199 67.2121 32.2376 66.8351L56.9701 37.5089C57.4127 36.9842 57.1715 36.1769 56.5137 35.9821Z" fill="#FDB441"/>
<path d="M14.0024 35.5235L16.6161 53.6333C16.6249 53.6944 16.6472 53.7528 16.6814 53.8042C16.7157 53.8556 16.7609 53.8987 16.8139 53.9304C16.8669 53.9622 16.9263 53.9817 16.9878 53.9876C17.0492 53.9934 17.1113 53.9856 17.1693 53.9645L20.8583 52.6241C20.9678 52.5843 21.0883 52.5874 21.1957 52.6327C21.303 52.6781 21.3892 52.7623 21.4371 52.8686L27.7405 66.8773C27.8368 67.0912 28.1582 67.0062 28.1363 66.7728L25.88 42.7645C25.8531 42.4788 25.5518 42.3057 25.2915 42.4263L20.9189 44.4534C20.819 44.4996 20.7059 44.5087 20.6 44.479C20.494 44.4492 20.4021 44.3826 20.341 44.2911L14.3802 35.3785C14.2574 35.1949 13.9708 35.3048 14.0024 35.5235Z" fill="#FFD15B"/>
<path d="M28.1362 66.7729L25.8799 42.7645C25.8531 42.4788 25.5517 42.3057 25.2914 42.4263L22.875 43.5465L25.7522 62.4586L27.7405 66.8774C27.8366 67.0912 28.1581 67.0063 28.1362 66.7729ZM14.7189 40.4882L17.2622 44.2912C17.9229 45.0747 20.3407 44.2912 20.3407 44.2912L14.3802 35.3785C14.2574 35.1949 13.9709 35.3048 14.0024 35.5234L14.7189 40.4882Z" fill="#FDB441"/>
</g>
<defs>
<clipPath id="clip0_41_1328">
<rect width="51" height="51" fill="white" transform="translate(14 16)"/>
</clipPath>
</defs>
</svg>
