<svg width="80" height="80" viewBox="0 0 80 80" fill="none" xmlns="http://www.w3.org/2000/svg">
<g clip-path="url(#clip0_41_1365)">
<rect width="80" height="80" rx="20" fill="#F1F1F1"/>
<path fill-rule="evenodd" clip-rule="evenodd" d="M17.0105 83.5179H62.9893C65.6799 83.5179 68.4778 81.2495 67.8814 78.6258L63.8491 60.8916C63.2527 58.2679 61.6476 55.9995 58.957 55.9995H21.0428C18.3522 55.9995 16.7473 58.2679 16.1507 60.8916L12.1185 78.6259C11.522 81.2495 14.3199 83.5179 17.0105 83.5179Z" fill="#19CFBA"/>
<path fill-rule="evenodd" clip-rule="evenodd" d="M53.6296 55.9995H26.0475C26.0105 56.5176 26.015 57.0491 26.0595 57.6076C25.9766 58.2296 25.9351 58.8565 25.9352 59.484C25.9345 60.7147 26.0952 61.9401 26.4131 63.129C26.3458 63.9192 26.1799 64.6827 25.909 65.4764L19.8054 83.4429C19.8077 83.4679 19.8107 83.4929 19.8133 83.5178H30.7706L33.7168 72.0698C37.6611 74.0429 42.339 74.043 46.2831 72.0698L49.2294 83.5178H60.1866C60.1894 83.4929 60.1922 83.4679 60.1945 83.4429L54.091 65.4764C53.8201 64.6829 53.6542 63.9194 53.5868 63.1291C53.9047 61.9402 54.0654 60.7147 54.0647 59.484C54.0647 58.8477 54.0224 58.2211 53.9405 57.6073C53.9848 57.0488 53.9894 56.5175 53.9524 55.9995H53.6296Z" fill="#129182"/>
<path d="M54.0371 54.1248C54.3556 46.3635 48.3221 39.8135 40.5608 39.495C32.7995 39.1764 26.2495 45.21 25.931 52.9713C25.6125 60.7326 31.646 67.2826 39.4073 67.6011C47.1686 67.9196 53.7186 61.8861 54.0371 54.1248Z" fill="#C89D8D"/>
<path fill-rule="evenodd" clip-rule="evenodd" d="M35.0893 66.7368C30.3596 64.9741 26.8341 60.7394 26.0841 55.6033C26.1721 54.8329 26.355 54.0853 26.6387 53.3143L28.6466 47.8592C28.8957 47.1825 29.4952 46.7744 30.2405 46.7744H34.9945C36.2996 46.7744 37.3351 48.0727 36.9744 49.3118L35.7279 53.5928C35.3547 54.8747 35.2464 56.0489 35.3747 57.4224L35.7674 61.6251C35.9631 63.718 35.5793 64.8329 35.0893 66.7368ZM53.9157 55.6033C53.1658 60.7394 49.6402 64.974 44.9105 66.7367C44.4205 64.8329 44.0369 63.7179 44.2324 61.6251L44.6251 57.4224C44.7534 56.0489 44.6451 54.8747 44.2719 53.5928L43.0254 49.3118C42.6646 48.0727 43.7001 46.7744 45.0053 46.7744H49.7593C50.5046 46.7744 51.1041 47.1824 51.3532 47.8592L53.3612 53.3143C53.645 54.0852 53.8279 54.8329 53.9157 55.6033Z" fill="#A37767"/>
<path fill-rule="evenodd" clip-rule="evenodd" d="M23.2891 62.1468C23.8501 60.8564 24.1005 59.6525 24.1005 58.2454V55.0914C24.1005 53.6079 24.3795 52.3381 25.0011 50.9911L27.3104 45.9876C27.5969 45.3669 28.1818 44.9927 28.8654 44.9927H33.2258C34.4325 44.9927 35.2575 46.1936 34.8242 47.32L33.314 51.2466C32.8616 52.4224 32.6618 53.4993 32.6618 54.759V58.6141C32.6618 59.7717 32.4933 60.7608 32.1101 61.8531L25.6619 80.2342L25.6616 80.2339C24.9928 82.1409 23.171 83.5182 21.043 83.5182C18.3522 83.5182 16.1509 81.3167 16.1509 78.626L23.2891 62.1468Z" fill="#F0B16E"/>
<path fill-rule="evenodd" clip-rule="evenodd" d="M64.7714 23.0846H61.3861L64.1643 18.8352H58.3993L54.4512 25.5129H58.0936L51.4158 37.6542L64.7714 23.0846ZM15.2286 23.0846H18.6139L15.8356 18.8352H21.6006L25.5487 25.5129H21.9064L28.5841 37.6542L15.2286 23.0846ZM40 34.5965L45.623 25.2024H42.7692L45.8095 18.4819H34.1907L37.231 25.2024H34.377L40 34.5965Z" fill="#FFBF31"/>
<path fill-rule="evenodd" clip-rule="evenodd" d="M56.7109 62.1468C56.1499 60.8564 55.8995 59.6525 55.8995 58.2454V55.0914C55.8995 53.6079 55.6206 52.3381 54.9989 50.9911L52.6896 45.9876C52.4032 45.3669 51.8182 44.9927 51.1347 44.9927H46.7742C45.5673 44.9927 44.7425 46.1936 45.1758 47.32L46.6861 51.2466C47.1384 52.4224 47.3383 53.4993 47.3383 54.759V58.6141C47.3383 59.7717 47.5067 60.7608 47.8899 61.8531L54.3382 80.2342L54.3385 80.2339C55.0074 82.1409 56.8292 83.5182 58.9572 83.5182C61.648 83.5182 63.8493 81.3167 63.8493 78.626L56.7109 62.1468Z" fill="#F0B16E"/>
</g>
<rect x="0.5" y="0.5" width="79" height="79" rx="19.5" stroke="#EBEBEB"/>
<defs>
<clipPath id="clip0_41_1365">
<rect width="80" height="80" rx="20" fill="white"/>
</clipPath>
</defs>
</svg>
