<svg width="80" height="80" viewBox="0 0 80 80" fill="none" xmlns="http://www.w3.org/2000/svg">
<rect x="0.5" y="0.5" width="79" height="79" rx="19.5" fill="#F1F1F1"/>
<rect x="0.5" y="0.5" width="79" height="79" rx="19.5" stroke="#EBEBEB"/>
<g clip-path="url(#clip0_41_1345)">
<path fill-rule="evenodd" clip-rule="evenodd" d="M48.7109 43.9868V52.2882C49.7038 53.0471 50.3504 54.3066 50.2439 56.1012L51.404 60.4416L54.6146 62.3121L57.1595 60.4416C59.7689 60.4416 59.6929 57.7364 57.8175 56.382L56.0411 55.092V43.9866L53.0816 42.3628L48.7109 43.9868Z" fill="#FED2A4"/>
<path fill-rule="evenodd" clip-rule="evenodd" d="M56.0411 43.9868L53.0817 42.7461V55.0921L54.8619 56.3821C56.7372 57.7366 56.8095 60.4417 54.2038 60.4417L55.1738 61.3788L57.1595 60.4417C59.7689 60.4417 59.6929 57.7365 57.8176 56.3821L56.0411 55.0921V50.7402V43.9868Z" fill="#FFBD86"/>
<path fill-rule="evenodd" clip-rule="evenodd" d="M23.959 43.9867V55.0921L22.1788 56.3821C20.3034 57.7366 20.2311 60.4417 22.8368 60.4417L25.2295 61.7848L28.5921 60.4417L31.2891 43.9868L26.9755 42.4351L23.959 43.9867Z" fill="#FED2A4"/>
<path fill-rule="evenodd" clip-rule="evenodd" d="M26.9146 43.9867V60.4415L26.8384 61.5229L28.592 60.4415L31.6883 52.1971L29.8701 43.9867L28.5996 43.0229L26.9146 43.9867Z" fill="#FFBD86"/>
<path fill-rule="evenodd" clip-rule="evenodd" d="M28.904 65.7344H11.7598V79.3172C11.7598 79.6929 12.0679 80.0002 12.4406 80.0002H24.3127C28.3258 79.1038 32.8429 76.7134 32.8429 76.7134L28.904 65.7344ZM51.0923 65.7344L50.575 74.4532H47.6138C50.4552 74.4532 55.6837 80.0002 55.6837 80.0002H67.5557C67.9322 80.0002 68.2366 79.6929 68.2366 79.3172V65.7344H51.0923ZM42.6362 65.7344H37.3602L36.4091 74.4532L37.3602 80.0002H42.6362L43.5643 74.4532L42.6362 65.7344Z" fill="#FAF7F7"/>
<path fill-rule="evenodd" clip-rule="evenodd" d="M30.2469 64.395H11.7598V69.1187H30.4485L30.2469 64.395ZM49.7495 64.395L49.5479 69.1187H62.4926C63.6071 69.1187 63.5044 69.6195 63.5044 70.6704V80.0002H67.5555C67.9321 80.0002 68.2364 79.6928 68.2364 79.3172V64.395H49.7495ZM36.0173 64.395H43.979V69.1187H36.0173V64.395Z" fill="#DEDBEE"/>
<path fill-rule="evenodd" clip-rule="evenodd" d="M50.5748 74.453H42.6362V80H55.6835C55.828 76.6991 53.4621 74.453 50.6205 74.453H50.5748ZM37.3602 74.453H29.3794C26.5341 74.453 24.168 76.6991 24.3126 80H37.36L37.3602 74.453ZM56.1134 60.4414H51.4042L50.3087 62.9038L51.0923 65.7342H71.0172C71.3748 65.7342 71.6676 65.4421 71.6676 65.0854V61.0902C71.6676 60.7335 71.3748 60.4414 71.0172 60.4414H57.1595H56.1134ZM22.8368 60.4414H8.97912C8.6254 60.4414 8.3324 60.7335 8.3324 61.0902V65.0854C8.3324 65.4421 8.62153 65.7342 8.97912 65.7342H28.904L30.0186 63.3097L28.5921 60.4414H23.8866H22.8368Z" fill="#554E56"/>
<path fill-rule="evenodd" clip-rule="evenodd" d="M33.7577 74.4531H37.36V80.0001H33.7577V74.4531ZM55.6835 80.0001C55.828 76.6992 53.462 74.4531 50.6204 74.4531H46.672C49.5135 74.4531 51.8796 76.6992 51.7351 80.0001H55.6835Z" fill="#433F43"/>
<path fill-rule="evenodd" clip-rule="evenodd" d="M32.9208 32.8359C27.9909 32.8359 23.9587 36.8614 23.9587 41.7786V43.9867H29.87V54.9668C32.1485 53.2292 36.234 54.1435 37.166 57.3647H42.83C43.762 54.1436 47.8474 53.2292 50.1259 54.9668V43.9867H56.0411V41.7786C56.0411 36.8614 52.0051 32.8359 47.0752 32.8359H32.9208Z" fill="#6FD7A3"/>
<path fill-rule="evenodd" clip-rule="evenodd" d="M47.1704 42.0783V51.4307C48.2355 51.3776 49.3006 51.6583 50.1261 52.2881V42.0783C50.1261 41.2701 49.4604 40.6061 48.6501 40.6061C47.8361 40.6061 47.1704 41.2701 47.1704 42.0783ZM46.9269 32.8359C50.4911 34.0425 53.0816 37.4799 53.0816 41.5054V43.9867H56.0411V41.7786C56.0411 36.8614 52.0051 32.8359 47.0753 32.8359H46.9269Z" fill="#3EC3A4"/>
<path fill-rule="evenodd" clip-rule="evenodd" d="M35.751 20.8466C34.3284 22.4629 33.9974 25.263 31.3955 25.8928C31.3955 30.6127 35.2679 34.4789 40.0037 34.4789C41.8867 34.4789 43.6327 33.868 45.0516 32.8361C47.2046 31.273 48.6121 28.7384 48.6121 25.8929V25.2631L46.4743 23.8478C46.113 23.6126 45.6222 23.8061 45.2152 23.7303C40.8559 22.9182 38.0219 18.259 35.751 20.8466Z" fill="#FED2A4"/>
<path fill-rule="evenodd" clip-rule="evenodd" d="M45.2152 25.7749C45.2152 28.6926 43.7355 31.284 41.4874 32.8358C40.4641 33.5415 39.2849 34.0347 38.0144 34.2434C38.6535 34.399 39.3192 34.4787 40.0038 34.4787C41.8867 34.4787 43.6328 33.8678 45.0517 32.8359C47.2046 31.2728 48.6122 28.7382 48.6122 25.8927V25.2629C47.5318 24.7317 46.2765 24.4548 45.2152 25.1453V25.7749Z" fill="#FFBD86"/>
<path fill-rule="evenodd" clip-rule="evenodd" d="M35.2489 15.8648C31.0874 16.2291 31.3955 21.7532 31.3955 22.4817V25.8925C33.9973 25.2627 34.3284 23.8741 35.751 22.2578C38.2311 19.4312 41.3846 25.2627 46.4742 25.2627H48.612V21.1841C48.6121 14.8821 38.4328 11.7368 35.2489 15.8648Z" fill="#554E56"/>
<path fill-rule="evenodd" clip-rule="evenodd" d="M45.2152 20.8086V25.1451C45.6222 25.221 46.0406 25.2627 46.4744 25.2627H48.6122V21.1841C48.6122 16.6047 43.2373 13.6908 39.0758 14.0285C42.2862 14.9543 45.2152 17.4281 45.2152 20.8086Z" fill="#433F43"/>
<path fill-rule="evenodd" clip-rule="evenodd" d="M28.3944 40.606C27.5803 40.606 26.9147 41.27 26.9147 42.0781V43.9865H29.8704V42.0781C29.8702 41.27 29.2046 40.606 28.3944 40.606Z" fill="#3EC3A4"/>
<path fill-rule="evenodd" clip-rule="evenodd" d="M71.6677 65.0854V61.0902C71.6677 60.7335 71.3748 60.4414 71.0172 60.4414H65.3341C65.6917 60.4414 65.9846 60.7335 65.9846 61.0902V65.0854C65.9846 65.4421 65.6917 65.7342 65.3341 65.7342H71.0171C71.3748 65.7342 71.6677 65.4421 71.6677 65.0854Z" fill="#433F43"/>
<path fill-rule="evenodd" clip-rule="evenodd" d="M42.8302 54.686H37.1662C36.0706 56.2226 36.4358 59.0379 37.3602 60.4417L39.8974 62.3388L42.6363 60.4417C43.4768 59.144 44.6332 56.6134 42.8302 54.686Z" fill="#7E4C42"/>
<path fill-rule="evenodd" clip-rule="evenodd" d="M42.6361 60.4414H37.3601L36.4091 62.8545L37.3601 65.7342H42.6361L43.5871 63.0556L42.6361 60.4414Z" fill="#554E56"/>
<path fill-rule="evenodd" clip-rule="evenodd" d="M42.8301 54.6859C42.7046 55.1146 42.6361 55.5889 42.6361 56.101V74.453H50.5749L51.0922 65.7342L51.4042 60.4414L51.6629 56.101C51.7694 54.3064 51.1189 53.0468 50.1261 52.288C47.8474 50.5503 43.7621 51.4685 42.8301 54.6859Z" fill="#AB695D"/>
<path fill-rule="evenodd" clip-rule="evenodd" d="M50.126 52.2882C48.8364 51.3017 46.9611 51.1728 45.4092 51.8292C45.6827 51.9532 45.9417 52.1072 46.1813 52.2882C47.1703 53.0471 47.8208 54.3067 47.7143 56.1013L46.6302 74.4533H50.5748L51.0921 65.7344L51.4041 60.4417L51.6628 56.1013C51.7693 54.3067 51.1188 53.0471 50.126 52.2882Z" fill="#935B50"/>
<path fill-rule="evenodd" clip-rule="evenodd" d="M37.1662 54.6859C36.2342 51.4685 32.1487 50.5503 29.8702 52.288C28.8774 53.0468 28.2308 54.3064 28.3372 56.101L28.5921 60.4414L28.904 65.7342L29.4213 74.453H37.3602V56.101C37.3602 55.5889 37.2916 55.1146 37.1662 54.6859Z" fill="#AB695D"/>
<path fill-rule="evenodd" clip-rule="evenodd" d="M33.5676 54.6862C33.6893 55.1149 33.7578 55.5891 33.7578 56.1013V74.4533H37.3601V56.1013C37.3601 55.5891 37.2916 55.1148 37.1661 54.6862C36.352 51.871 33.1263 50.82 30.8097 51.7572C32.0688 52.2351 33.1416 53.2254 33.5676 54.6862Z" fill="#935B50"/>
</g>
<defs>
<clipPath id="clip0_41_1345">
<rect width="66" height="66" fill="white" transform="translate(7 14)"/>
</clipPath>
</defs>
</svg>
