<svg width="80" height="80" viewBox="0 0 80 80" fill="none" xmlns="http://www.w3.org/2000/svg">
<rect x="0.5" y="0.5" width="79" height="79" rx="19.5" fill="#F1F1F1"/>
<rect x="0.5" y="0.5" width="79" height="79" rx="19.5" stroke="#EBEBEB"/>
<g clip-path="url(#clip0_41_1502)">
<path d="M40.2821 80H13.9649L11.8954 79.6919C11.8234 79.6918 11.7523 79.6768 11.6865 79.6476C11.6208 79.6185 11.5618 79.576 11.5134 79.5227C11.4651 79.4695 11.4284 79.4067 11.4057 79.3385C11.383 79.2702 11.3748 79.198 11.3816 79.1264C11.6262 76.5999 14.0824 75.0039 16.6129 74.4905L29.216 71.8961L29.9867 71.3799C29.9867 71.3799 31.3922 73.7156 32.094 74.849C33.8871 77.7455 36.453 80 40.2821 80ZM69.5519 79.4345C69.5587 79.5061 69.5505 79.5784 69.5279 79.6466C69.5052 79.7149 69.4684 79.7777 69.4201 79.8309C69.3717 79.8841 69.3127 79.9267 69.247 79.9558C69.1812 79.9849 69.11 80 69.0381 80H40.2821C43.6117 80 46.1477 78.2251 48.0429 75.9366C49.1799 74.5635 50.5762 71.38 50.5762 71.38L64.9099 74.2878C67.4402 74.8009 69.3072 76.908 69.5519 79.4345Z" fill="#F5F8F9"/>
<path d="M25.6521 56.2903C28.595 56.2903 30.9806 53.9047 30.9806 50.9618C30.9806 48.019 28.595 45.6333 25.6521 45.6333C22.7093 45.6333 20.3236 48.019 20.3236 50.9618C20.3236 53.9047 22.7093 56.2903 25.6521 56.2903Z" fill="#302620"/>
<path d="M50.5762 71.3799C49.9981 76.2308 45.6094 79.9999 40.2821 79.9999C34.9547 79.9999 30.5649 76.2308 29.9867 71.3799H31.9023C33.1024 71.1365 33.9653 70.0805 33.9653 68.8559L33.8236 60.6196H47.3659L46.6111 62.511L47.3659 63.9921V68.6228C47.3659 69.8474 48.2287 70.9034 49.4289 71.1468L50.5762 71.3799Z" fill="#F5A888"/>
<path d="M55.997 49.9318H24.5697C21.3356 49.9318 18.7139 47.31 18.7139 44.0759V43.1434C18.7139 41.2029 20.2869 39.6299 22.2274 39.6299H58.3392C60.2797 39.6299 61.8527 41.2029 61.8527 43.1434V44.0759C61.8527 47.31 59.231 49.9318 55.997 49.9318Z" fill="#D17862"/>
<path d="M30.6512 73.873L16.1694 76.8116L16.1539 76.8155C15.398 76.9726 14.794 77.5393 14.5468 78.2719L13.9649 80H11.5287C11.4567 80 11.3856 79.9849 11.3198 79.9558C11.2541 79.9266 11.1951 79.8841 11.1467 79.8309C11.0984 79.7776 11.0617 79.7149 11.039 79.6466C11.0163 79.5784 11.0081 79.5061 11.0149 79.4345C11.2595 76.908 13.1265 74.801 15.6569 74.2876L29.9868 71.3799L31.6049 72.1939L30.6512 73.873Z" fill="#E8EDF2"/>
<path d="M47.3659 60.6198V63.9923C45.2927 65.0714 42.8061 66.569 40.2834 66.4956C39.0061 66.5381 37.7312 66.1673 36.4937 65.6419C36.1537 65.4964 35.7764 65.7449 35.7764 66.1145V68.623C35.7764 71.0735 34.0509 73.1841 31.6493 73.6709L30.6513 73.873C30.312 73.078 30.0882 72.2385 29.9868 71.38L31.1381 71.1469C32.3382 70.9035 33.2011 69.8475 33.2011 68.6229V60.6196H47.3659V60.6198Z" fill="#D17862"/>
<path d="M45.322 62.1617L43.1628 63.2412C42.2688 63.6882 41.283 63.921 40.2834 63.921C39.2838 63.921 38.298 63.6882 37.404 63.2412L35.2448 62.1617C28.2647 58.6716 23.8555 51.5373 23.8555 43.7332V38.2067L23.8648 26.4136H56.7018L56.7112 38.2067V43.7332C56.7113 51.5373 52.3022 58.6716 45.322 62.1617Z" fill="#F5A888"/>
<path d="M63.9131 29.9717C63.9131 27.8024 62.5716 25.9476 60.6733 25.1886C60.5927 25.1566 60.5253 25.0984 60.4819 25.0234C60.4386 24.9484 60.4218 24.8609 60.4343 24.7752C60.4776 24.4747 60.5006 24.1676 60.5006 23.8551C60.5006 20.2991 57.618 17.4164 54.062 17.4164C53.0499 17.4152 52.0519 17.6538 51.1498 18.1126C51.0855 18.145 51.0134 18.1584 50.9418 18.1513C50.8701 18.1443 50.802 18.1169 50.7454 18.0726C50.3444 17.7583 49.7634 17.3937 49.0026 17.1712C48.5184 17.0296 48.0264 16.9849 47.5576 16.9991C46.0569 17.0444 44.8104 18.1801 44.8104 18.1801C44.8104 18.1801 44.4196 19.8043 44.4196 21.1359C44.4196 24.6319 43.848 25.1074 44.5328 28.9414C44.9711 31.3963 48.4463 31.8313 48.7766 31.8224C48.7377 32.062 48.7181 32.3043 48.7179 32.5471C48.7179 35.0362 50.7358 37.0541 53.2249 37.0541C53.3495 37.0536 53.4741 37.0481 53.5983 37.0374C54.0838 39.1492 56.0515 40.6948 58.3484 40.5171C60.5654 40.3454 62.3475 38.5332 62.4874 36.3139C62.5406 35.4679 62.3588 34.6693 62.003 33.9743C63.168 33.0299 63.9131 31.5881 63.9131 29.9717Z" fill="#504D4C"/>
<path d="M48.4201 25.0315C48.3962 25.0885 48.3866 25.1505 48.3923 25.212C48.4159 25.4679 48.4281 25.7238 48.4281 25.9796C48.4281 27.973 47.7276 29.8068 46.5596 31.2451C46.0774 31.0236 45.6008 30.7223 45.2264 30.3171C45.1546 30.2395 43.9523 30.241 43.9523 30.241C43.9523 30.241 44.611 29.3798 44.5328 28.9414C43.8476 25.1078 44.4194 24.6314 44.4194 21.1365C44.4194 19.8038 44.7713 17.7058 44.7713 17.7058C44.7713 17.7058 46.056 17.0441 47.5575 16.999C48.545 18.403 49.074 20.0781 49.0719 21.7945C49.0721 22.9061 48.8506 24.0066 48.4201 25.0315Z" fill="#302620"/>
<path d="M46.4926 21.5776C46.3819 18.561 43.9145 16.1028 40.8974 16.0033C39.2758 15.9499 37.7981 16.5636 36.7159 17.5903C36.6462 17.6572 36.5539 17.6956 36.4573 17.6978C36.3606 17.7 36.2667 17.6659 36.194 17.6021C35.0604 16.6051 33.5738 16 31.9454 16C29.4844 16 27.3465 17.3811 26.2629 19.4102C26.2229 19.4854 26.1589 19.5451 26.0811 19.5797C26.0033 19.6144 25.9162 19.6221 25.8335 19.6016C25.3264 19.4759 24.8058 19.4123 24.2834 19.4125C23.9583 19.4125 23.6388 19.4367 23.3266 19.4832C23.3266 19.4832 21.7635 20.106 21.0431 20.5479C19.1975 21.68 18.4189 23.5101 18.4189 25.834C18.4189 26.4857 18.5171 27.1144 18.6975 27.7071C18.7174 27.7736 18.7191 27.8441 18.7025 27.9114C18.6858 27.9787 18.6514 28.0404 18.6029 28.0899C17.6929 29.0188 16.953 30.2806 16.953 31.6838C16.953 33.1386 17.6826 34.3049 18.6525 35.2416C18.7379 35.3241 18.7849 35.4389 18.7736 35.557C18.76 35.6974 18.7532 35.8383 18.7531 35.9794C18.7531 38.4685 20.1843 40.3388 22.6734 40.3388C23.6924 40.3388 25.4519 39.7516 25.4519 39.7516C26.0052 39.3338 26.4551 38.7944 26.7669 38.1751C26.8051 38.0983 26.8679 38.0363 26.9453 37.9991C27.0226 37.9619 27.1102 37.9515 27.1941 37.9696C27.5428 38.0445 27.9044 38.0846 28.2754 38.0846C30.8259 38.0846 32.9426 36.2306 33.3534 33.7969C33.3673 33.7148 33.4075 33.6395 33.468 33.5823C33.5285 33.5251 33.6059 33.4892 33.6886 33.4799C35.1513 33.3146 36.4276 32.5366 37.2565 31.4087C37.3082 31.3377 37.3826 31.2866 37.4673 31.2637C37.5521 31.2408 37.6421 31.2476 37.7225 31.283C38.4583 31.608 39.2539 31.7755 40.0583 31.7747C43.2586 31.7747 45.853 29.1804 45.853 25.98C45.853 25.5924 45.8136 25.214 45.7408 24.8477C45.7226 24.7572 45.7372 24.6631 45.7819 24.5822C46.2872 23.6638 46.5329 22.6251 46.4926 21.5776Z" fill="#504D4C"/>
<path d="M25.4519 39.7516C24.6708 40.3427 23.7176 40.6618 22.7381 40.6601C20.249 40.6601 18.2311 38.6423 18.2311 36.1531C18.2311 36.0103 18.2389 35.8699 18.2518 35.7308C18.2634 35.6123 18.2158 35.4976 18.1308 35.4153C17.1611 34.4791 16.5571 33.1656 16.5571 31.7105C16.5571 30.3069 17.1186 29.0359 18.029 28.1074C18.0774 28.0578 18.1116 27.9962 18.1281 27.929C18.1446 27.8617 18.1429 27.7912 18.123 27.7249C17.9384 27.1175 17.8447 26.4861 17.8449 25.8513C17.8449 22.6204 20.2259 19.9456 23.3268 19.4834C21.5046 20.6205 20.2916 22.6435 20.2916 24.9499C20.2916 25.6015 20.3895 26.2299 20.5698 26.8235C20.5896 26.8899 20.5914 26.9603 20.5749 27.0276C20.5583 27.0948 20.5241 27.1564 20.4758 27.206C19.5654 28.1345 19.0039 29.4055 19.0039 30.8091C19.0039 32.2643 19.6079 33.5778 20.5775 34.5139C20.6625 34.5963 20.7101 34.7109 20.6985 34.8294C20.6851 34.9698 20.6782 35.1107 20.6779 35.2518C20.6779 37.7409 22.6958 39.7588 25.1849 39.7588C25.2749 39.7586 25.3643 39.7568 25.4519 39.7516Z" fill="#302620"/>
<path d="M63.6048 62.1524L61.447 63.2313C61.3733 63.268 61.2992 63.3032 61.2246 63.3369C61.2246 63.3369 57.9468 63.2949 56.2087 62.4259L53.6187 61.2775C46.6426 57.7894 42.7407 50.6189 42.7407 42.8193L42.7691 35.1497C42.7705 33.0883 45.1201 29.4848 45.1201 29.4848C45.8046 29.1635 46.5516 28.9975 47.3077 28.9985H69.8307C72.6742 28.9985 74.9798 31.3027 74.9816 34.1462L74.9877 43.7344C74.9877 51.5342 70.581 58.6644 63.6048 62.1524Z" fill="#A6E7F0"/>
<path d="M61.2245 63.3372C60.3525 63.7327 59.4031 63.9284 58.4458 63.9101C57.4885 63.8918 56.5473 63.6599 55.691 63.2315L53.534 62.1524C46.5571 58.6652 42.1505 51.5337 42.1505 43.7354L42.1569 34.147C42.1581 32.0854 43.3699 30.307 45.1199 29.4854L45.1121 42.4476C45.1121 50.2461 49.5188 57.3775 56.4956 60.8646L61.2245 63.3372ZM58.3115 50.8466C57.3508 50.8466 56.39 50.5841 55.5331 50.059C55.3201 49.9226 55.1691 49.7082 55.1124 49.4617C55.0558 49.2152 55.0981 48.9563 55.2302 48.7406C55.3624 48.525 55.5738 48.3697 55.8192 48.3083C56.0645 48.2468 56.3242 48.2841 56.5424 48.412C57.6335 49.0807 58.9893 49.0807 60.0805 48.412C60.2988 48.2815 60.5597 48.2424 60.8067 48.3032C61.0536 48.3639 61.2666 48.5196 61.3995 48.7364C61.5324 48.9533 61.5744 49.2138 61.5164 49.4614C61.4584 49.709 61.3051 49.9237 61.0898 50.059C60.233 50.5841 59.2723 50.8466 58.3115 50.8466Z" fill="#6BD9E7"/>
<path d="M58.3748 57.1522C56.8897 57.1522 55.4046 56.7464 54.0801 55.9347C53.8671 55.7983 53.716 55.5838 53.6594 55.3373C53.6027 55.0908 53.645 54.832 53.7772 54.6163C53.9093 54.4007 54.1208 54.2454 54.3661 54.184C54.6115 54.1225 54.8711 54.1597 55.0893 54.2877C57.1158 55.5297 59.6337 55.5297 61.6602 54.2877C61.8785 54.1572 62.1395 54.1181 62.3864 54.1789C62.6333 54.2396 62.8464 54.3953 62.9792 54.6121C63.1121 54.8289 63.1541 55.0894 63.0961 55.337C63.0381 55.5846 62.8848 55.7994 62.6695 55.9347C61.345 56.7464 59.86 57.1522 58.3748 57.1522ZM67.4526 41.6898C67.2748 41.6898 67.1004 41.6405 66.9488 41.5474C65.7516 40.8137 64.264 40.8137 63.0667 41.5474C62.8484 41.6778 62.5875 41.7169 62.3406 41.6562C62.0936 41.5954 61.8806 41.4398 61.7477 41.2229C61.6149 41.0061 61.5729 40.7456 61.6309 40.498C61.6888 40.2504 61.8421 40.0357 62.0575 39.9004C63.8774 38.7852 66.1383 38.7852 67.9582 39.9004C68.1376 40.0105 68.2762 40.1761 68.3528 40.3722C68.4294 40.5682 68.4399 40.7839 68.3826 40.9865C68.3254 41.189 68.2036 41.3673 68.0357 41.4943C67.8678 41.6212 67.6631 41.6899 67.4526 41.6898ZM54.5753 41.6898C54.3975 41.6898 54.2231 41.6405 54.0716 41.5474C52.8743 40.8137 51.3867 40.8137 50.1895 41.5474C49.9712 41.6778 49.7102 41.7169 49.4633 41.6562C49.2164 41.5954 49.0033 41.4398 48.8705 41.2229C48.7376 41.0061 48.6956 40.7456 48.7536 40.498C48.8116 40.2504 48.9649 40.0357 49.1802 39.9004C51.0001 38.7852 53.2611 38.7852 55.081 39.9004C55.2604 40.0105 55.3989 40.1761 55.4755 40.3722C55.5521 40.5682 55.5626 40.7839 55.5054 40.9865C55.4482 41.189 55.3263 41.3673 55.1585 41.4943C54.9906 41.6212 54.7858 41.6899 54.5753 41.6898ZM52.1306 46.0682C51.8745 46.0682 51.6288 45.9664 51.4477 45.7853C51.2666 45.6042 51.1648 45.3585 51.1648 45.1024V43.4284C51.1648 43.1723 51.2666 42.9266 51.4477 42.7455C51.6288 42.5644 51.8745 42.4627 52.1306 42.4627C52.3867 42.4627 52.6324 42.5644 52.8135 42.7455C52.9946 42.9266 53.0963 43.1723 53.0963 43.4284V45.1024C53.0963 45.3585 52.9946 45.6042 52.8135 45.7853C52.6324 45.9664 52.3867 46.0682 52.1306 46.0682ZM65.0079 46.0682C64.7517 46.0682 64.5061 45.9664 64.325 45.7853C64.1438 45.6042 64.0421 45.3585 64.0421 45.1024V43.4284C64.0421 43.1723 64.1438 42.9266 64.325 42.7455C64.5061 42.5644 64.7517 42.4627 65.0079 42.4627C65.264 42.4627 65.5096 42.5644 65.6907 42.7455C65.8719 42.9266 65.9736 43.1723 65.9736 43.4284V45.1024C65.9736 45.3585 65.8719 45.6042 65.6907 45.7853C65.5096 45.9664 65.264 46.0682 65.0079 46.0682Z" fill="#6BD9E7"/>
</g>
<defs>
<clipPath id="clip0_41_1502">
<rect width="64" height="64" fill="white" transform="translate(11 16)"/>
</clipPath>
</defs>
</svg>
