<svg width="26" height="26" viewBox="0 0 26 26" fill="none" xmlns="http://www.w3.org/2000/svg">
<path d="M13.0005 5.0194C14.8632 4.99074 16.6646 5.6847 18.0267 6.95565L21.6955 3.36815C19.3417 1.16257 16.2259 -0.0468398 13.0005 -0.00685156C10.5905 -0.00740842 8.22797 0.662444 6.17696 1.92779C4.12596 3.19315 2.46738 5.0041 1.38672 7.15815L5.59047 10.4219C6.10448 8.85897 7.09614 7.49682 8.42559 6.52754C9.75505 5.55826 11.3552 5.03075 13.0005 5.0194Z" fill="#E43E2B"/>
<path d="M25.48 13.2825C25.4953 12.3888 25.403 11.4966 25.205 10.625H13V15.45H20.165C20.0291 16.2959 19.7235 17.1056 19.2666 17.8304C18.8097 18.5552 18.2109 19.1801 17.5062 19.6675L21.6087 22.845C22.8873 21.6106 23.8928 20.1218 24.5602 18.4746C25.2277 16.8275 25.5423 15.0587 25.4837 13.2825H25.48Z" fill="#3B7DED"/>
<path d="M5.60543 15.5625C5.3212 14.7349 5.17467 13.8663 5.17168 12.9913C5.17686 12.1176 5.31814 11.2501 5.59043 10.42L1.38668 7.15625C0.47492 8.96642 0 10.965 0 12.9919C0 15.0187 0.47492 17.0173 1.38668 18.8275L5.60543 15.5625Z" fill="#F0B501"/>
<path d="M13.0011 25.9913C16.1677 26.0808 19.2483 24.954 21.6098 22.8425L17.5073 19.665C16.1772 20.5568 14.6019 21.0112 13.0011 20.965C11.3573 20.9552 9.75823 20.4281 8.43086 19.4584C7.10349 18.4886 6.11516 17.1256 5.60609 15.5625L1.40234 18.8275C2.48009 20.9806 4.13595 22.7911 6.18449 24.0564C8.23302 25.3216 10.5933 25.9916 13.0011 25.9913Z" fill="#2BA24C"/>
</svg>
