<svg width="32" height="32" viewBox="0 0 32 32" fill="none" xmlns="http://www.w3.org/2000/svg">
<path d="M16 25C20.9706 25 25 20.9706 25 16C25 11.0294 20.9706 7 16 7C11.0294 7 7 11.0294 7 16C7 20.9706 11.0294 25 16 25Z" fill="#FFC93C"/>
<path fill-rule="evenodd" clip-rule="evenodd" d="M17 30V28C17 27.7348 16.8946 27.4804 16.7071 27.2929C16.5196 27.1054 16.2652 27 16 27C15.7348 27 15.4804 27.1054 15.2929 27.2929C15.1054 27.4804 15 27.7348 15 28V30C15 30.2652 15.1054 30.5196 15.2929 30.7071C15.4804 30.8946 15.7348 31 16 31C16.2652 31 16.5196 30.8946 16.7071 30.7071C16.8946 30.5196 17 30.2652 17 30ZM23.866 27.624L22.866 25.892C22.7324 25.6642 22.5142 25.4985 22.2589 25.431C22.0036 25.3635 21.732 25.3997 21.5033 25.5317C21.2746 25.6638 21.1074 25.8809 21.0383 26.1357C20.9691 26.3906 21.0035 26.6624 21.134 26.892L22.134 28.624C22.2676 28.8518 22.4858 29.0175 22.7411 29.085C22.9964 29.1525 23.268 29.1163 23.4967 28.9843C23.7254 28.8522 23.8926 28.6351 23.9617 28.3803C24.0309 28.1254 23.9965 27.8536 23.866 27.624ZM9.866 28.624L10.866 26.892C10.9965 26.6624 11.0309 26.3906 10.9617 26.1357C10.8926 25.8809 10.7254 25.6638 10.4967 25.5317C10.268 25.3997 9.99638 25.3635 9.74108 25.431C9.48579 25.4985 9.26755 25.6642 9.134 25.892L8.134 27.624C8.00348 27.8536 7.96906 28.1254 8.03825 28.3803C8.10744 28.6351 8.27462 28.8522 8.50331 28.9843C8.73199 29.1163 9.00362 29.1525 9.25892 29.085C9.51421 29.0175 9.73245 28.8518 9.866 28.624ZM4.376 23.866L6.108 22.866C6.33581 22.7324 6.50154 22.5142 6.56904 22.2589C6.63653 22.0036 6.60031 21.732 6.46827 21.5033C6.33624 21.2746 6.11911 21.1074 5.86426 21.0383C5.60942 20.9691 5.33756 21.0035 5.108 21.134L3.376 22.134C3.14819 22.2676 2.98246 22.4858 2.91496 22.7411C2.84747 22.9964 2.88369 23.268 3.01573 23.4967C3.14776 23.7254 3.36489 23.8926 3.61974 23.9617C3.87458 24.0309 4.14644 23.9965 4.376 23.866ZM28.624 22.134L26.892 21.134C26.6624 21.0035 26.3906 20.9691 26.1357 21.0383C25.8809 21.1074 25.6638 21.2746 25.5317 21.5033C25.3997 21.732 25.3635 22.0036 25.431 22.2589C25.4985 22.5142 25.6642 22.7324 25.892 22.866L27.624 23.866C27.8536 23.9965 28.1254 24.0309 28.3803 23.9617C28.6351 23.8926 28.8522 23.7254 28.9843 23.4967C29.1163 23.268 29.1525 22.9964 29.085 22.7411C29.0175 22.4858 28.8518 22.2676 28.624 22.134ZM28 17H30C30.2652 17 30.5196 16.8946 30.7071 16.7071C30.8946 16.5196 31 16.2652 31 16C31 15.7348 30.8946 15.4804 30.7071 15.2929C30.5196 15.1054 30.2652 15 30 15H28C27.7348 15 27.4804 15.1054 27.2929 15.2929C27.1054 15.4804 27 15.7348 27 16C27 16.2652 27.1054 16.5196 27.2929 16.7071C27.4804 16.8946 27.7348 17 28 17ZM2 17H4C4.26522 17 4.51957 16.8946 4.70711 16.7071C4.89464 16.5196 5 16.2652 5 16C5 15.7348 4.89464 15.4804 4.70711 15.2929C4.51957 15.1054 4.26522 15 4 15H2C1.73478 15 1.48043 15.1054 1.29289 15.2929C1.10536 15.4804 1 15.7348 1 16C1 16.2652 1.10536 16.5196 1.29289 16.7071C1.48043 16.8946 1.73478 17 2 17ZM26.892 10.866L28.624 9.866C28.8518 9.73245 29.0175 9.51421 29.085 9.25892C29.1525 9.00362 29.1163 8.73199 28.9843 8.50331C28.8522 8.27462 28.6351 8.10744 28.3803 8.03825C28.1254 7.96906 27.8536 8.00348 27.624 8.134L25.892 9.134C25.6642 9.26755 25.4985 9.48579 25.431 9.74108C25.3635 9.99638 25.3997 10.268 25.5317 10.4967C25.6638 10.7254 25.8809 10.8926 26.1357 10.9617C26.3906 11.0309 26.6624 10.9965 26.892 10.866ZM6.108 9.134L4.376 8.134C4.14644 8.00348 3.87458 7.96906 3.61974 8.03825C3.36489 8.10744 3.14776 8.27462 3.01573 8.50331C2.88369 8.73199 2.84747 9.00362 2.91496 9.25892C2.98246 9.51421 3.14819 9.73245 3.376 9.866L5.108 10.866C5.33756 10.9965 5.60942 11.0309 5.86426 10.9617C6.11911 10.8926 6.33624 10.7254 6.46827 10.4967C6.60031 10.268 6.63653 9.99638 6.56904 9.74108C6.50154 9.48579 6.33581 9.26755 6.108 9.134ZM22.866 6.108L23.866 4.376C23.9965 4.14644 24.0309 3.87458 23.9617 3.61974C23.8926 3.36489 23.7254 3.14776 23.4967 3.01573C23.268 2.88369 22.9964 2.84747 22.7411 2.91496C22.4858 2.98246 22.2676 3.14819 22.134 3.376L21.134 5.108C21.0035 5.33756 20.9691 5.60942 21.0383 5.86426C21.1074 6.11911 21.2746 6.33624 21.5033 6.46827C21.732 6.60031 22.0036 6.63653 22.2589 6.56904C22.5142 6.50154 22.7324 6.33581 22.866 6.108ZM10.866 5.108L9.866 3.376C9.73245 3.14819 9.51421 2.98246 9.25892 2.91496C9.00362 2.84747 8.73199 2.88369 8.50331 3.01573C8.27462 3.14776 8.10744 3.36489 8.03825 3.61974C7.96906 3.87458 8.00348 4.14644 8.134 4.376L9.134 6.108C9.26755 6.33581 9.48579 6.50154 9.74108 6.56904C9.99638 6.63653 10.268 6.60031 10.4967 6.46827C10.7254 6.33624 10.8926 6.11911 10.9617 5.86426C11.0309 5.60942 10.9965 5.33756 10.866 5.108ZM17 4V2C17 1.73478 16.8946 1.48043 16.7071 1.29289C16.5196 1.10536 16.2652 1 16 1C15.7348 1 15.4804 1.10536 15.2929 1.29289C15.1054 1.48043 15 1.73478 15 2V4C15 4.26522 15.1054 4.51957 15.2929 4.70711C15.4804 4.89464 15.7348 5 16 5C16.2652 5 16.5196 4.89464 16.7071 4.70711C16.8946 4.51957 17 4.26522 17 4Z" fill="#FEDD87"/>
</svg>
