<svg width="32" height="32" viewBox="0 0 32 32" fill="none" xmlns="http://www.w3.org/2000/svg">
<path d="M26.8115 15.664C25.9635 11.574 22.341 8.5 18 8.5C15.065 8.5 12.466 9.9115 10.823 12.0855C10.5523 12.0288 10.2765 12.0001 10 12C8.304 12 6.8575 13.0575 6.276 14.548C3.3045 14.906 1 17.432 1 20.5C1 23.8135 3.6865 26.5 7 26.5H25.5C28.5375 26.5 31 24.0375 31 21C31 18.4155 29.2145 16.253 26.8115 15.664Z" fill="#6E83B7"/>
<path d="M21.5995 18.652C16.7665 18.652 12.848 14.734 12.848 9.9005C12.848 8.882 13.031 7.909 13.3505 7C9.9455 8.198 7.5 11.434 7.5 15.2485C7.5 20.082 11.418 24 16.2515 24C20.0665 24 23.3025 21.5545 24.5 18.1495C23.5686 18.4801 22.5878 18.65 21.5995 18.652Z" fill="#FFE352"/>
<path d="M16.795 9.5985L15 9L16.795 8.4015C17.0528 8.31559 17.287 8.17084 17.4792 7.97869C17.6713 7.78655 17.8161 7.5523 17.902 7.2945L18.5 5.5L19.0985 7.295C19.1844 7.5528 19.3292 7.78705 19.5213 7.97919C19.7135 8.17133 19.9477 8.31609 20.2055 8.402L22 9L20.205 9.5985C19.9472 9.68441 19.713 9.82917 19.5208 10.0213C19.3287 10.2135 19.1839 10.4477 19.098 10.7055L18.5 12.5L17.9015 10.705C17.8157 10.4473 17.671 10.2131 17.4789 10.0211C17.2869 9.82899 17.0527 9.68432 16.795 9.5985ZM22.5255 15.342L21.5 15L22.5255 14.658C22.6728 14.6089 22.8066 14.5262 22.9164 14.4164C23.0262 14.3066 23.1089 14.1728 23.158 14.0255L23.5 13L23.842 14.0255C23.8911 14.1728 23.9738 14.3066 24.0836 14.4164C24.1934 14.5262 24.3272 14.6089 24.4745 14.658L25.5 15L24.4745 15.342C24.3272 15.3911 24.1934 15.4738 24.0836 15.5836C23.9738 15.6934 23.8911 15.8272 23.842 15.9745L23.5 17L23.158 15.9745C23.109 15.8271 23.0264 15.6932 22.9166 15.5834C22.8068 15.4736 22.6729 15.391 22.5255 15.342ZM5.269 20.7565L4.5 20.5L5.269 20.2435C5.493 20.169 5.6685 19.993 5.7435 19.769L6 19L6.2565 19.769C6.331 19.993 6.507 20.1685 6.731 20.2435L7.5 20.5L6.731 20.7565C6.62051 20.7934 6.52012 20.8554 6.43776 20.9378C6.35541 21.0201 6.29335 21.1205 6.2565 21.231L6 22L5.7435 21.231C5.70669 21.1205 5.64464 21.0201 5.56228 20.9377C5.47992 20.8554 5.37951 20.7933 5.269 20.7565ZM19.769 26.7565L19 26.5L19.769 26.2435C19.993 26.169 20.1685 25.993 20.2435 25.769L20.5 25L20.7565 25.769C20.831 25.993 21.007 26.1685 21.231 26.2435L22 26.5L21.231 26.7565C21.1205 26.7934 21.0201 26.8554 20.9378 26.9378C20.8554 27.0201 20.7934 27.1205 20.7565 27.231L20.5 28L20.2435 27.231C20.2067 27.1205 20.1446 27.0201 20.0623 26.9377C19.9799 26.8554 19.8795 26.7933 19.769 26.7565ZM7.269 7.2565L6.5 7L7.269 6.7435C7.493 6.669 7.6685 6.493 7.7435 6.269L8 5.5L8.2565 6.269C8.331 6.493 8.507 6.6685 8.731 6.7435L9.5 7L8.731 7.2565C8.62051 7.29335 8.52012 7.35541 8.43776 7.43776C8.35541 7.52012 8.29335 7.62051 8.2565 7.731L8 8.5L7.7435 7.731C7.70669 7.62049 7.64464 7.52008 7.56228 7.43772C7.47992 7.35536 7.37951 7.29331 7.269 7.2565ZM24.769 5.7565L24 5.5L24.769 5.2435C24.993 5.169 25.1685 4.993 25.2435 4.769L25.5 4L25.7565 4.769C25.831 4.993 26.007 5.1685 26.231 5.2435L27 5.5L26.231 5.7565C26.1205 5.79335 26.0201 5.85541 25.9378 5.93776C25.8554 6.02012 25.7934 6.12051 25.7565 6.231L25.5 7L25.2435 6.231C25.2067 6.12049 25.1446 6.02008 25.0623 5.93772C24.9799 5.85536 24.8795 5.79331 24.769 5.7565Z" fill="#FFE352"/>
</svg>
