<svg width="37" height="57" viewBox="0 0 37 57" fill="none" xmlns="http://www.w3.org/2000/svg">
<path d="M14.6021 49.1453C14.426 49.1454 14.2536 49.0948 14.1055 48.9995C13.9575 48.9043 13.8399 48.7684 13.767 48.6081C13.7175 48.4995 12.5423 45.9051 11.4729 42.2884C10.0257 37.394 9.50547 33.1774 9.92663 29.7558C9.95834 29.5161 10.0834 29.2986 10.2747 29.1507C10.4659 29.0028 10.7078 28.9363 10.9478 28.9659C11.1878 28.9954 11.4064 29.1185 11.5561 29.3084C11.7058 29.4983 11.7744 29.7396 11.7471 29.9798C10.8114 37.5829 15.3898 47.746 15.436 47.8479C15.4997 47.9875 15.5273 48.1409 15.5162 48.294C15.5052 48.4471 15.456 48.595 15.373 48.7241C15.29 48.8532 15.1759 48.9594 15.0412 49.033C14.9066 49.1066 14.7556 49.1452 14.6021 49.1453Z" fill="#F95428"/>
<path d="M22.6269 16.2521C20.5813 14.2065 19.2399 13.1872 21.2854 11.1415L27.9323 14.149C30.935 17.1517 32.7695 21.126 33.1069 25.359L33.2402 27.028C33.3761 28.7355 34.1161 30.3386 35.3273 31.5497L25.2801 41.5969L23.5193 39.8361C22.2885 38.6048 20.6717 37.8342 18.9402 37.6535C18.0809 37.5633 17.2432 37.3276 16.4629 36.9566C15.6827 36.5848 14.9718 36.0823 14.361 35.4709L10.1121 31.222L0.755724 21.8656C-0.193126 20.9168 -0.193126 19.3786 0.755724 18.4297C0.981039 18.2037 1.24881 18.0245 1.54363 17.9024C1.83845 17.7803 2.15451 17.7176 2.47363 17.7181C3.09473 17.7181 3.71716 17.9553 4.19031 18.4297L0.711637 14.951C-0.237212 14.0022 -0.237212 12.464 0.711637 11.5151C0.936952 11.2891 1.20472 11.1099 1.49954 10.9878C1.79437 10.8657 2.11043 10.803 2.42954 10.8035C3.05187 10.8035 3.67308 11.0407 4.14745 11.5151L1.46867 8.83623C0.519819 7.88738 0.519819 6.34915 1.46867 5.40031C1.94304 4.92716 2.56547 4.68992 3.18657 4.68992C3.80767 4.68992 4.43011 4.92716 4.90448 5.40031L7.0491 7.54493C6.11985 6.59486 6.12597 5.07133 7.06747 4.1286C7.29279 3.90262 7.56056 3.72341 7.85538 3.60129C8.1502 3.47916 8.46626 3.41653 8.78538 3.41699C9.4077 3.41699 10.0289 3.65423 10.5033 4.1286L22.6269 16.2521Z" fill="#AC9576"/>
<path d="M38.791 28.1326L28.7438 38.1798L26.9831 36.419C25.9804 35.4155 24.7162 34.7136 23.3344 34.3929C23.0277 34.3217 22.717 34.2694 22.4039 34.2364C22.0896 34.2034 21.7777 34.1511 21.4698 34.0799C20.9377 33.955 20.4204 33.7738 19.9266 33.5394C19.1465 33.1676 18.4356 32.6651 17.8248 32.0537L4.21947 18.4486C3.27062 17.4998 3.27062 15.9616 4.21947 15.0127C4.44478 14.7867 4.71255 14.6075 5.00738 14.4854C5.3022 14.3633 5.61826 14.3006 5.93737 14.3011C6.55847 14.3011 7.18091 14.5383 7.65405 15.0127L4.17538 11.534C3.22653 10.5852 3.22653 9.04697 4.17538 8.09812C4.47364 7.79835 4.84559 7.58244 5.25382 7.47212C5.46218 7.41509 5.67726 7.3863 5.89329 7.38651C6.51561 7.38651 7.13682 7.62375 7.61119 8.09812L4.93219 5.41912C3.98334 4.47027 3.98334 2.93205 4.93219 1.9832C5.40656 1.51006 6.029 1.27282 6.6501 1.27282C7.2712 1.27282 7.89363 1.51006 8.368 1.9832L10.5126 4.12783C9.77775 3.37703 9.62857 2.26809 10.0626 1.37056C10.1804 1.126 10.3388 0.903165 10.531 0.7115C10.7564 0.48558 11.0242 0.306423 11.3191 0.184322C11.6139 0.0622205 11.93 -0.000419014 12.2491 2.10935e-06C12.8714 2.10935e-06 13.4927 0.237242 13.967 0.711612L26.0905 12.835C25.5799 12.326 25.1806 11.7164 24.9179 11.045C24.6756 10.4277 24.5528 9.77007 24.556 9.10698C24.556 8.99821 24.5597 8.88933 24.5682 8.78168C24.649 7.55896 25.1564 6.36062 26.0905 5.42647L31.396 10.7319C34.3987 13.7346 36.2333 17.7089 36.5706 21.9419L36.7039 23.6109C36.8397 25.3184 37.5796 26.9216 38.791 28.1326Z" fill="#D6B787"/>
<path d="M23.3346 34.3934C23.3053 34.4652 23.2747 34.5366 23.2428 34.6073C18.9071 44.4174 15.4528 48.6383 15.3073 48.813C15.2305 48.9059 15.1362 48.9827 15.0297 49.039C14.9233 49.0954 14.8067 49.1302 14.6868 49.1414C14.5668 49.1527 14.4459 49.1401 14.3308 49.1045C14.2157 49.069 14.1087 49.011 14.0161 48.9341C13.626 48.6112 13.5722 48.0328 13.8951 47.6429C15.0616 46.2306 18.1319 41.5903 21.4699 34.0803C21.5018 34.0094 21.5335 33.9385 21.5653 33.8663C24.0206 28.3103 24.1258 21.5706 23.7797 16.8948C23.5473 13.7401 23.0864 11.0844 22.766 9.51075C23.1296 9.50945 23.4859 9.61257 23.7925 9.80785C24.0992 10.0031 24.3433 10.2824 24.4959 10.6123L25.0367 11.7814C25.2945 13.4326 25.4854 15.0936 25.6089 16.7603C25.9646 21.5852 25.8546 28.5353 23.3346 34.3934Z" fill="#F95428"/>
<path d="M18.287 11.9025L10.5128 4.12836C9.77795 3.37756 9.62877 2.26862 10.0628 1.37109L18.287 11.9025ZM14.9123 15.3996L5.25391 7.47254C5.46227 7.41551 5.67735 7.38672 5.89337 7.38693C6.5157 7.38693 7.13691 7.62417 7.61128 8.09854L14.9123 15.3996ZM14.955 22.314L5.29665 14.387C5.50502 14.33 5.7201 14.3012 5.93612 14.3014C6.55845 14.3014 7.17966 14.5387 7.65403 15.013L14.955 22.314Z" fill="#EDD2AB"/>
<path d="M17.2917 51.1307H15.5187V48.8594H13.6845V51.1307H11.9116V52.9648H13.6845V56.9998H15.5187V52.9648H17.2917V51.1307Z" fill="#E09B2D"/>
<path d="M28.6314 15.3742L26.0905 12.8346C25.5799 12.3256 25.1806 11.716 24.9179 11.0446C24.6756 10.4273 24.5527 9.76965 24.556 9.10655C24.556 8.99778 24.5596 8.8889 24.5682 8.78125L28.6314 15.3742Z" fill="#EDD2AB"/>
</svg>
