<svg width="80" height="80" viewBox="0 0 80 80" fill="none" xmlns="http://www.w3.org/2000/svg">
<g clip-path="url(#clip0_19_1312)">
<rect width="80" height="80" rx="20" fill="#F1F1F1"/>
<g clip-path="url(#clip1_19_1312)">
<path d="M21.7972 23.9715C21.7972 24.9721 22.2775 25.9565 23.1726 26.5707L42.9346 37.9138L49.2749 24.2063C51.0278 24.4285 51.5795 21.78 50.6575 19.3308C49.8056 17.3043 47.3443 16.4112 45.363 17.4114C43.4669 18.3598 42.7079 20.6442 43.6665 22.5155L45.5574 26.5224L34.14 18.685C32.6857 17.6863 30.6866 18.04 29.6751 19.4744C29.3005 20.0033 29.0998 20.6329 29.1002 21.278C29.1002 22.2459 29.5492 23.1974 30.3892 23.8157L26.8381 21.3774C25.3837 20.3798 23.3847 20.7325 22.3721 22.167C21.9975 22.6961 21.7968 23.3261 21.7972 23.9715Z" fill="#DF8D79"/>
<path d="M42.9347 37.9138L52.6224 43.4741L56.0488 38.3066L55.0768 37.6391C54.8096 37.4556 54.7026 37.1203 54.8086 36.8168C56.2879 32.5689 55.0134 28.4051 54.2525 27.0988C54.2546 27.0978 50.6577 19.3309 50.6577 19.3309C50.9784 21.8429 50.0816 23.008 49.2751 24.2064L42.9347 37.9138Z" fill="#E17556"/>
<path d="M82.5 76L50.6581 42.9371L54.5049 37.4859C55 36 55.7994 36.916 56.5 37C61.6309 37.6159 68.5 45.5 72 49C74.926 52.8751 89.5 70 89.5 64.5L82.5 76Z" fill="#2E67D0"/>
<path d="M20.4778 44.4812C20.4778 45.4815 20.9582 46.4658 21.8543 47.0799L26.6001 50.3385L30.2848 52.8671L31.3457 54.2732L32.0997 54.1126C46.5654 52.547 52.3647 35.3544 49.2748 24.2061C48.3202 22.3389 45.9942 21.5775 44.094 22.531C42.1979 23.4795 41.4391 25.7627 42.3967 27.6339L44.2868 31.6409L32.8707 23.803C31.4165 22.8047 29.4175 23.1581 28.4053 24.5933C28.0309 25.1221 27.8305 25.7517 27.8311 26.3967C27.8311 27.3632 28.2792 28.3137 29.1178 28.9318L22.4677 26.1867C21.9349 26.4127 21.4586 26.7829 21.1024 27.2855C20.0585 28.7493 20.4385 30.7464 22.0368 31.7803L25.5425 34.1895L22.4455 33.8813C21.8919 34.1127 21.4163 34.4945 21.0741 34.9821C20.0278 36.4455 20.4777 38.4545 22.0075 39.4769L25.471 41.8552L22.4183 41.5779C21.8854 41.8029 21.4091 42.1731 21.0539 42.6767C20.6791 43.2059 20.478 43.8357 20.4778 44.4812Z" fill="#F5A888"/>
<path d="M49.275 24.2063L52.9852 32.2161C53.7254 33.4906 54.9541 37.4791 53.6454 41.6152C53.4854 42.1227 53.686 42.6744 54.1288 42.9779L57.3586 45.1957L47.2749 59.4846L43.8266 57.1182C43.4898 56.8865 43.0615 56.8393 42.6748 56.9757C40.1248 57.8769 36.7108 57.2781 34.3677 55.6704L32.3755 54.3026L32.1327 54.368L32.0993 54.113C44.0008 50.1208 49.4917 35.1333 49.275 24.2063Z" fill="#E38B75"/>
<path d="M22.4183 41.5779L29.4841 46.4299C29.6163 46.5205 29.7666 46.5633 29.916 46.5633C30.1552 46.5633 30.3913 46.4518 30.5376 46.2438C30.7768 45.9054 30.692 45.4396 30.3489 45.2047L25.471 41.8552C24.5366 41.2371 23.385 41.1678 22.4183 41.5779ZM22.4455 33.8813L33.1492 41.2365C33.2804 41.3271 33.4317 41.3708 33.5811 41.3708C33.8203 41.3708 34.0554 41.2584 34.2027 41.0504C34.2595 40.9699 34.2997 40.8792 34.321 40.7835C34.3423 40.6877 34.3442 40.5887 34.3267 40.4922C34.3092 40.3957 34.2725 40.3036 34.2189 40.2211C34.1652 40.1385 34.0956 40.0673 34.014 40.0113L25.5425 34.1894C24.601 33.5435 23.4274 33.4672 22.4455 33.8813ZM22.4677 26.1867L36.8183 36.0371C36.9495 36.1277 37.1009 36.1714 37.2502 36.1714C37.4894 36.1714 37.7245 36.06 37.8719 35.851C37.9287 35.7705 37.9689 35.6798 37.9902 35.5841C38.0114 35.4883 38.0134 35.3893 37.9958 35.2928C37.9783 35.1963 37.9417 35.1042 37.888 35.0217C37.8344 34.9391 37.7648 34.8679 37.6831 34.8119L25.5677 26.4962C24.6242 25.8483 23.4516 25.7707 22.4677 26.1867Z" fill="#D97456"/>
<path d="M32.3752 54.3028C33.0089 56.03 34.0213 58.487 35.2525 60.4068C37.0729 57.4789 38.6744 52.0873 39.6141 45.6276C40.6205 38.7085 40.6333 32.1393 39.6474 28.4835C39.6218 28.3888 39.6155 28.29 39.6286 28.1929C39.6418 28.0957 39.6742 28.002 39.724 27.9172C39.7739 27.8324 39.8402 27.7581 39.9192 27.6986C39.9981 27.6391 40.0882 27.5955 40.1842 27.5703C40.2803 27.5451 40.3804 27.5388 40.479 27.5517C40.5775 27.5647 40.6724 27.5967 40.7584 27.6459C40.8444 27.695 40.9197 27.7604 40.9801 27.8383C41.0404 27.9162 41.0847 28.005 41.1102 28.0997C42.1451 31.937 42.146 38.7345 41.1124 45.8395C40.0354 53.2437 38.0685 59.3535 35.8509 62.1834C35.7802 62.2736 35.6894 62.3467 35.5856 62.3969C35.4818 62.4472 35.3676 62.4733 35.252 62.4733H35.2455C35.1288 62.4723 35.0139 62.4447 34.9097 62.3926C34.8056 62.3405 34.7151 62.2654 34.6453 62.173C32.3277 59.1073 30.6674 54.0883 30.2844 52.8674L32.3752 54.3028Z" fill="#5C85DA"/>
<path d="M32.5826 63.7617H34.1674V61.5483C34.1674 61.0033 34.652 60.5616 35.2501 60.5616C35.8481 60.5616 36.3327 61.0033 36.3327 61.5483V63.7617H37.9174C38.5154 63.7617 39 64.2033 39 64.7483C39 65.2933 38.5154 65.7349 37.9174 65.7349H36.3327V69.438C36.3327 69.983 35.8481 70.4247 35.2501 70.4247C34.652 70.4247 34.1674 69.983 34.1674 69.438V65.7349H32.5826C31.9846 65.7349 31.5 65.2933 31.5 64.7483C31.5 64.2033 31.9847 63.7617 32.5826 63.7617Z" fill="#FFB25A"/>
<path d="M57.0008 78.845L44.8929 60.6537C43.258 59.5314 42.8551 57.3144 43.993 55.702L52.6219 43.4738C53.7598 41.8613 53.5833 42.299 57.6425 42.5862C62.2724 42.9139 88.4715 74.6765 91.0833 75.1849C93.6952 75.6933 93.1665 75.0223 93.1666 75.5959L91.5 94.5C91.5 96.7204 63.5 90 57.0008 78.845Z" fill="#5C85DA"/>
</g>
</g>
<rect x="0.5" y="0.5" width="79" height="79" rx="19.5" stroke="#EBEBEB"/>
<defs>
<clipPath id="clip0_19_1312">
<rect width="80" height="80" rx="20" fill="white"/>
</clipPath>
<clipPath id="clip1_19_1312">
<rect width="68" height="76" fill="white" transform="matrix(-1 0 0 1 82 17)"/>
</clipPath>
</defs>
</svg>
