<svg width="80" height="80" viewBox="0 0 80 80" fill="none" xmlns="http://www.w3.org/2000/svg">
<g clip-path="url(#clip0_22_1319)">
<rect width="80" height="80" rx="20" fill="#F1F1F1"/>
<g clip-path="url(#clip1_22_1319)">
<path d="M44.9588 58.1039L62.7598 38.5725C67.8145 33.0265 67.6166 24.4866 62.3106 19.1806L62.2638 19.1338C56.779 13.649 47.8864 13.649 42.4016 19.1338L40.711 20.8244C40.494 21.0414 40.1998 21.1634 39.893 21.1637C39.5861 21.164 39.2917 21.0426 39.0743 20.826L37.3345 19.0935C31.8465 13.6278 22.9695 13.6368 17.4925 19.1138C12.1594 24.4468 11.9907 33.04 17.1102 38.5784L35.1908 58.1385C37.8279 60.9913 42.3418 60.9753 44.9588 58.1039Z" fill="#FF2733"/>
<path d="M43.2158 58.9907L25.1352 39.4306C20.0157 33.8922 20.1844 25.2991 25.5175 19.9661C27.598 17.8856 30.1694 16.5962 32.8589 16.0941C27.7551 13.9543 21.6464 14.9598 17.4925 19.1137C12.1595 24.4467 11.9906 33.0399 17.1102 38.5782L35.1909 58.1382C37.3909 60.5182 40.8962 60.8999 43.5175 59.2948C43.4137 59.1966 43.3131 59.0952 43.2158 58.9907Z" fill="#CA1B28"/>
<path d="M55.8849 70.386L70.4861 75.4852C70.9482 75.6466 71.0129 76.2735 70.5933 76.5257L53.4416 86.8428C53.2653 86.9488 53.0628 87.0033 52.8572 87C52.6515 86.9967 52.4509 86.9358 52.2781 86.8242L41.2611 79.7071C40.8016 79.4099 40.4238 79.0023 40.1623 78.5217C39.9008 78.041 39.7638 77.5025 39.7638 76.9553V30.6929C39.7638 29.3969 40.6965 28.256 41.9805 28.0798C42.6481 27.9883 43.2944 28.1601 43.8093 28.5193C44.2323 28.8144 44.5667 29.2374 44.7513 29.7447L55.3063 58.6377C55.6889 59.6862 55.8848 60.7937 55.8849 61.9099V70.386Z" fill="#F5A888"/>
<path d="M44.0664 79.7069C43.6069 79.4097 43.2291 79.0022 42.9676 78.5215C42.7061 78.0408 42.5691 77.5023 42.5691 76.9551V30.6929C42.5691 29.7849 43.0277 28.9546 43.7432 28.4774C43.223 28.136 42.5967 27.9948 41.9804 28.0798C40.6963 28.256 39.7637 29.397 39.7637 30.693V76.9551C39.7637 78.0671 40.3277 79.1036 41.2609 79.7069L52.278 86.824C52.4507 86.9357 52.6514 86.9966 52.857 86.9999C53.0627 87.0032 53.2652 86.9487 53.4415 86.8426L54.3067 86.3222L44.0664 79.7069Z" fill="#D7775E"/>
<path d="M39.7638 30.6929V76.9551C39.7638 78.0671 39.1998 79.1036 38.2665 79.7069L27.2684 86.8118C27.0899 86.9271 26.8827 86.99 26.6703 86.9934C26.4578 86.9967 26.2487 86.9405 26.0666 86.831L9.57733 76.9125C8.90225 76.5065 9.00633 75.4973 9.75002 75.2377L23.6427 70.3861V61.9097C23.6427 60.7933 23.8389 59.6856 24.2212 58.6375L34.7763 29.7445C34.9609 29.2372 35.2952 28.8142 35.7182 28.5191C36.2507 28.1473 36.9039 27.9904 37.5471 28.0796C38.8311 28.256 39.7638 29.3968 39.7638 30.6929Z" fill="#F5A888"/>
<path d="M32.308 62.1437C32.0189 62.1437 31.7416 62.0289 31.5371 61.8244C31.3326 61.62 31.2178 61.3426 31.2178 61.0535V58.4747C31.2178 58.1418 31.2675 57.815 31.3655 57.5037L35.0065 45.6913C35.194 45.0796 35.5679 44.5523 36.0875 44.1679C36.6012 43.7866 37.2243 43.5815 37.8641 43.5834C39.5128 43.5834 40.8542 44.9241 40.8542 46.5721C40.8542 47.1744 40.3662 47.6624 39.764 47.6624C39.4748 47.6624 39.1975 47.5475 38.9931 47.343C38.7886 47.1386 38.6737 46.8613 38.6737 46.5721C38.6737 46.1266 38.3105 45.7639 37.8641 45.7639C37.6914 45.7631 37.5232 45.8181 37.3844 45.9207C37.2448 46.0226 37.1419 46.1668 37.0907 46.3318L33.4473 58.1518C33.4144 58.2563 33.3979 58.3652 33.3983 58.4747V61.0535C33.3983 61.3426 33.2834 61.62 33.0789 61.8244C32.8745 62.0289 32.5972 62.1437 32.308 62.1437Z" fill="#D7775E"/>
<path d="M47.2196 62.1437C47.0765 62.1437 46.9347 62.1156 46.8024 62.0608C46.6701 62.006 46.5499 61.9257 46.4487 61.8244C46.3474 61.7232 46.2671 61.603 46.2123 61.4707C46.1576 61.3384 46.1294 61.1967 46.1294 61.0535V58.4747C46.13 58.3674 46.1141 58.2607 46.0824 58.1582L42.4375 46.3336C42.3865 46.1679 42.2833 46.0231 42.1435 45.9207C42.0047 45.8181 41.8365 45.7631 41.6639 45.7639C41.2175 45.7639 40.8542 46.1264 40.8542 46.5721C40.8542 47.1744 40.3662 47.6623 39.764 47.6623C39.4748 47.6623 39.1975 47.5475 38.993 47.343C38.7886 47.1386 38.6737 46.8613 38.6737 46.5721C38.6737 44.9241 40.0151 43.5834 41.6639 43.5834C42.309 43.5834 42.9233 43.7854 43.4403 44.1677C43.9599 44.5524 44.3338 45.0796 44.5218 45.6931L48.1642 57.5096C48.2616 57.822 48.3108 58.1474 48.31 58.4747V61.0535C48.31 61.3426 48.195 61.6199 47.9906 61.8244C47.7861 62.0288 47.5088 62.1437 47.2196 62.1437Z" fill="#D7775E"/>
<path d="M37.5471 28.0797C37.0584 28.0121 36.5606 28.0863 36.1128 28.2934C37.012 28.716 37.6122 29.6539 37.6122 30.6928V80.1295L38.2665 79.7069C38.726 79.4097 39.1038 79.0022 39.3653 78.5216C39.6268 78.0409 39.7638 77.5024 39.7638 76.9552V30.693C39.7638 29.3969 38.8311 28.256 37.5471 28.0797Z" fill="#D7775E"/>
<path d="M13.0837 78.8815L25.7306 74.4649C26.0946 74.3377 26.4101 74.1005 26.6333 73.7861C26.8565 73.4717 26.9764 73.0957 26.9764 72.7101V65.5535C26.9764 64.4371 27.1726 63.3294 27.5549 62.2813L38.11 33.3883C38.2946 32.881 38.6289 32.458 39.0519 32.1629C39.27 32.0117 39.51 31.8952 39.7636 31.8173V30.6928C39.7636 29.3967 38.831 28.2557 37.547 28.0795C36.9037 27.9902 36.2505 28.1472 35.7181 28.519C35.2854 28.8207 34.9564 29.2487 34.7761 29.7444L24.2211 58.6374C23.8385 59.6859 23.6427 60.7934 23.6425 61.9096V70.3859L9.7499 75.2375C9.00621 75.4972 8.90212 76.5062 9.5772 76.9122L12.9488 78.9402C12.9913 78.9181 13.0362 78.8982 13.0837 78.8815Z" fill="#D7775E"/>
</g>
</g>
<rect x="0.5" y="0.5" width="79" height="79" rx="19.5" stroke="#EBEBEB"/>
<defs>
<clipPath id="clip0_22_1319">
<rect width="80" height="80" rx="20" fill="white"/>
</clipPath>
<clipPath id="clip1_22_1319">
<rect width="72" height="72" fill="white" transform="translate(4 15)"/>
</clipPath>
</defs>
</svg>
