<svg width="80" height="80" viewBox="0 0 80 80" fill="none" xmlns="http://www.w3.org/2000/svg">
<rect x="0.5" y="0.5" width="79" height="79" rx="19.5" fill="#F1F1F1"/>
<rect x="0.5" y="0.5" width="79" height="79" rx="19.5" stroke="#EBEBEB"/>
<path d="M39.5 40C30.9528 40 24 33.0472 24 24.5C24 15.9528 30.9528 9 39.5 9C48.0472 9 55 15.9528 55 24.5C55 33.0472 48.0473 40 39.5 40Z" fill="#F2AE27"/>
<path d="M55 24.5C55 15.9528 48.0472 9 39.5 9V40.0001C48.0473 40 55 33.0472 55 24.5Z" fill="#FF5100"/>
<path d="M39.5 12.4443C32.8532 12.4443 27.4443 17.8532 27.4443 24.5C27.4443 31.1467 32.8532 36.5555 39.5 36.5555C46.1467 36.5555 51.5556 31.1466 51.5556 24.4999C51.5556 17.8531 46.1467 12.4443 39.5 12.4443Z" fill="#FFF2D9"/>
<path d="M46.389 26.2222H39.5001C38.5482 26.2222 37.778 25.452 37.778 24.5001V17.6111C37.778 16.6592 38.5482 15.8889 39.5001 15.8889C40.4521 15.8889 41.2223 16.6592 41.2223 17.6111V22.7778H46.389C47.3409 22.7778 48.1112 23.548 48.1112 24.4999C48.1112 25.452 47.3409 26.2222 46.389 26.2222Z" fill="#5C5F66"/>
<path d="M46.389 26.2222C47.3409 26.2222 48.1112 25.452 48.1112 24.5001C48.1112 23.5481 47.3409 22.7779 46.389 22.7779H41.2223V17.6111C41.2223 16.6592 40.4521 15.8889 39.5001 15.8889V26.2222H46.389Z" fill="#8E3105"/>
<g clip-path="url(#clip0_22_1315)">
<path fill-rule="evenodd" clip-rule="evenodd" d="M61.3616 80H47.0658C47.0026 80 46.9404 79.9843 46.8848 79.9542C46.8292 79.9241 46.7819 79.8807 46.7473 79.8278L42.2263 72.9175C40.2337 70.0773 39.9982 68.1658 39.9982 65.4484L36.9406 57.75L39.9983 48.6848C39.9983 47.0608 41.2983 45.716 42.9223 45.7043C43.1289 45.7017 43.3353 45.721 43.5378 45.762L40.1794 32.9919C38.9839 29.1833 44.1139 27.615 45.3999 31.9404L51.1531 47.3484C52.0987 49.8779 54.7107 53.4119 53.8666 57.4373L52.3812 66.6625C52.0696 69.7304 53.2906 71.1288 54.5404 72.6538L61.6228 79.3428C61.8732 79.5792 61.7059 80 61.3616 80Z" fill="#F5A888"/>
<path fill-rule="evenodd" clip-rule="evenodd" d="M50.7291 57.3324L49.2438 66.5613C48.9321 69.6292 50.1568 71.9274 51.403 73.4523L58.3335 79.9999H61.3614C61.7058 79.9999 61.873 79.5791 61.6228 79.3427L54.5404 72.6537C53.2905 71.1288 52.0696 69.7303 52.3811 66.6624L53.8665 57.4372C54.7106 53.4117 52.0985 49.8777 51.153 47.3483L45.3999 31.9403C44.6029 29.2554 42.324 28.8436 40.9945 29.8228C41.5306 30.2456 41.9871 30.9033 42.2661 31.8392L48.0156 47.2436C48.9611 49.7766 51.5733 53.3106 50.7291 57.3324Z" fill="#D7775E"/>
<path fill-rule="evenodd" clip-rule="evenodd" d="M43.0921 49.1225V54.55C43.0921 55.7353 43.5595 56.9603 44.371 58.2646C45.1861 59.5691 47.1787 58.85 47.1787 57.7876C46.3636 56.4831 45.8962 55.2581 45.8962 54.0694V48.6455C45.8962 47.229 44.8782 46.0365 43.5377 45.7619C43.3434 45.7224 43.1455 45.703 42.9472 45.704C42.2796 45.703 41.6316 45.9299 41.1105 46.3473C42.2625 46.7485 43.0921 47.8434 43.0921 49.1225Z" fill="#D7775E"/>
<path fill-rule="evenodd" clip-rule="evenodd" d="M18.6385 80H32.9306C32.9938 80 33.0561 79.9843 33.1117 79.9542C33.1673 79.9241 33.2145 79.8807 33.2491 79.8278L37.7701 72.9175C39.7664 70.0773 39.9982 68.1658 39.9982 65.4484V48.6455C39.9982 47.0267 38.6722 45.7042 37.0492 45.7042C36.85 45.7042 36.6507 45.7223 36.4624 45.762L39.8207 32.9919C41.0162 29.1833 35.8826 27.615 34.5966 31.9404L28.8471 47.3484C27.9015 49.8779 25.2895 53.4119 26.1336 57.4373L27.619 66.6625C27.9306 69.7304 26.706 71.1288 25.4597 72.6538L18.3774 79.3428C18.1269 79.5792 18.2941 80 18.6385 80Z" fill="#F5A888"/>
<path fill-rule="evenodd" clip-rule="evenodd" d="M38.6252 29.5951C38.6252 29.5951 33.2198 43.7383 32.18 46.7267C31.1149 49.791 32.1728 51.2617 31.7598 53.3177C31.604 54.1055 31.1077 54.6583 30.633 55.4425C28.9267 58.2682 31.9083 59.5475 32.8213 57.7876C33.6364 56.4831 34.1038 55.2581 34.1038 54.0693V48.6455C34.1038 47.6373 34.6147 46.7447 35.3935 46.2136C35.7158 45.9927 36.0793 45.8391 36.4623 45.762L39.8207 32.9918C40.3388 31.3368 39.6613 30.1046 38.6252 29.5951ZM34.7124 71.389L29.452 80H32.9307C32.9939 80 33.0561 79.9842 33.1117 79.9541C33.1673 79.9241 33.2145 79.8806 33.2492 79.8277L37.7702 72.9175C39.7664 70.0772 39.9983 68.1657 39.9983 65.4483V48.6455C39.9983 47.0266 38.6723 45.7041 37.0493 45.7041C36.9695 45.7041 36.8863 45.7077 36.8065 45.7113C36.8953 45.9956 36.9405 46.2917 36.9405 46.5895V63.3923C36.9405 66.1132 36.705 68.5487 34.7124 71.389Z" fill="#D7775E"/>
</g>
<defs>
<clipPath id="clip0_22_1315">
<rect width="64" height="64" fill="white" transform="translate(8 16)"/>
</clipPath>
</defs>
</svg>
