<svg width="80" height="80" viewBox="0 0 80 80" fill="none" xmlns="http://www.w3.org/2000/svg">
<g clip-path="url(#clip0_41_1522)">
<rect width="80" height="80" rx="20" fill="#F1F1F1"/>
<g clip-path="url(#clip1_41_1522)">
<path d="M69 51.2759C69 67.1034 67.1379 74.5517 64.3448 74.5517C62.641 74.5517 61.7193 72.9969 61.5797 71.3117C57.778 72.2189 53.917 72.8567 50.0255 73.2203H33.9745C30.083 72.8567 26.222 72.2189 22.4203 71.3117C22.2807 72.9969 21.359 74.5517 19.6552 74.5517C16.8621 74.5517 15 67.1034 15 51.2759C15 35.4483 16.8621 28 19.6552 28C21.359 28 22.2807 29.5548 22.4203 31.24C25.2212 30.5695 28.0555 30.0474 30.9114 29.6759L47.8655 29.1452C52.4862 29.4703 57.0727 30.1709 61.5797 31.24C61.7193 29.5548 62.641 28 64.3448 28C67.1379 28 69 35.4483 69 51.2759Z" fill="#C7C5B6"/>
<path d="M46.6552 71.7588C49.2956 72.6386 55.2645 75.1831 55.9087 80.9649C55.9224 81.0954 55.9086 81.2273 55.868 81.3522C55.8275 81.477 55.7612 81.5919 55.6734 81.6895C55.5857 81.7871 55.4784 81.8652 55.3585 81.9187C55.2387 81.9722 55.109 82 54.9777 82.0002H29.0223C28.8911 82 28.7613 81.9722 28.6415 81.9187C28.5216 81.8652 28.4144 81.7871 28.3266 81.6895C28.2388 81.5919 28.1726 81.477 28.132 81.3522C28.0915 81.2273 28.0776 81.0954 28.0913 80.9649C28.7356 75.1831 34.7016 72.6386 37.3448 71.7588H46.6552Z" fill="#002FFF"/>
<path d="M46.6552 71.7586C46.6552 71.7586 45.7242 73.6206 42 73.6206C38.2759 73.6206 37.3448 71.7586 37.3448 71.7586C37.8677 71.4905 38.3132 71.0931 38.6391 70.6042C38.965 70.1153 39.1605 69.5512 39.2069 68.9655V66.0327H44.7931V68.9655C44.8395 69.5512 45.035 70.1153 45.3609 70.6042C45.6868 71.0931 46.1324 71.4905 46.6552 71.7586Z" fill="#F5A888"/>
<path d="M25.9862 52.179C24.2451 49.721 23.3793 45.4383 23.3793 42.8966C23.3793 32.6552 30.8275 28 38.2758 28C47.5862 28 59.6896 30.7931 59.6896 42.8966C59.6896 47.5517 58.7306 50.2797 57.6786 51.8717L25.9862 52.179Z" fill="#85502D"/>
<path d="M28.9655 51.2759H28.0344C27.2949 51.2798 26.5867 51.5753 26.0637 52.0983C25.5408 52.6212 25.2452 53.3294 25.2413 54.069C25.2413 54.8098 25.5356 55.5202 26.0594 56.044C26.5832 56.5678 27.2937 56.8621 28.0344 56.8621H29.2913L28.9655 51.2759ZM55.0344 51.2759H55.9655C56.5874 51.2759 57.1907 51.4863 57.6786 51.8717C58.0167 52.1291 58.2903 52.4616 58.4777 52.843C58.6652 53.2243 58.7613 53.6441 58.7586 54.069C58.7586 54.8098 58.4643 55.5202 57.9405 56.044C57.4167 56.5678 56.7062 56.8621 55.9655 56.8621H54.7086L55.0344 51.2759ZM44.7931 66.0328V67.7924C44.1767 67.8855 43.5548 67.9321 42.931 67.9321H41.0689C40.4451 67.9321 39.8232 67.8855 39.2069 67.7924V66.0328H44.7931Z" fill="#D17862"/>
<path d="M54.0103 44.386C48.3235 41.5715 46.6551 37.4116 46.6551 37.4116C42.3537 43.1477 34.1867 44.4661 30.659 44.7668C30.1957 44.8072 29.7645 45.0201 29.4509 45.3635C29.1372 45.7068 28.9639 46.1554 28.9655 46.6205V54.0688C28.9655 60.7536 34.3841 66.1722 41.0689 66.1722H42.931C46.141 66.1722 49.2196 64.897 51.4894 62.6272C53.7592 60.3574 55.0344 57.2788 55.0344 54.0688V46.0442C55.0344 45.3422 54.6378 44.7007 54.0103 44.386Z" fill="#F5A888"/>
</g>
</g>
<rect x="0.5" y="0.5" width="79" height="79" rx="19.5" stroke="#EBEBEB"/>
<defs>
<clipPath id="clip0_41_1522">
<rect width="80" height="80" rx="20" fill="white"/>
</clipPath>
<clipPath id="clip1_41_1522">
<rect width="54" height="54" fill="white" transform="translate(15 28)"/>
</clipPath>
</defs>
</svg>
