<svg width="30" height="30" viewBox="0 0 30 30" fill="none" xmlns="http://www.w3.org/2000/svg">
<path fill-rule="evenodd" clip-rule="evenodd" d="M15 0.9375C11.8922 0.9375 9.375 3.45609 9.375 6.5625V14.5312C9.375 17.6377 11.8922 20.1562 15 20.1562C18.1078 20.1562 20.625 17.6377 20.625 14.5312V6.5625C20.625 3.45609 18.1078 0.9375 15 0.9375Z" fill="#225AEE"/>
<path fill-rule="evenodd" clip-rule="evenodd" d="M14.0625 23.8598V27.1875H11.7188C11.2031 27.1875 10.7812 27.6075 10.7812 28.125C10.7812 28.6425 11.2031 29.0625 11.7188 29.0625H18.2812C18.7969 29.0625 19.2188 28.6425 19.2188 28.125C19.2188 27.6075 18.7969 27.1875 18.2812 27.1875H15.9375V23.8598C20.6766 23.3897 24.375 19.3927 24.375 14.5312V12.1875C24.375 11.67 23.9531 11.25 23.4375 11.25C22.9219 11.25 22.5 11.67 22.5 12.1875V14.5312C22.5 18.6736 19.1438 22.0312 15 22.0312C10.8562 22.0312 7.5 18.6736 7.5 14.5312V12.1875C7.5 11.67 7.07812 11.25 6.5625 11.25C6.04688 11.25 5.625 11.67 5.625 12.1875V14.5312C5.625 19.3927 9.32344 23.3897 14.0625 23.8598Z" fill="#051541"/>
</svg>
