<svg width="80" height="80" viewBox="0 0 80 80" fill="none" xmlns="http://www.w3.org/2000/svg">
<g clip-path="url(#clip0_41_1485)">
<rect width="80" height="80" rx="20" fill="#F1F1F1"/>
<g clip-path="url(#clip1_41_1485)">
<path d="M65.075 70.2032C63.2251 69.8309 61.3139 69.8936 59.4925 70.3866L59.0066 70.1116L49.0058 64.4466L54.6891 58.1399C55.0323 57.7466 55.4968 57.4789 56.0091 57.3791C56.3933 57.3053 56.7895 57.3233 57.1655 57.4316C57.5414 57.5399 57.8864 57.7355 58.1725 58.0024C61.4597 61.1361 64.1169 64.8699 66.0008 69.0024C66.0671 69.1442 66.093 69.3016 66.0759 69.4572C66.0587 69.6128 65.999 69.7607 65.9034 69.8847C65.8079 70.0086 65.68 70.1039 65.5339 70.1601C65.3878 70.2163 65.229 70.2312 65.075 70.2032ZM29.9941 64.4466L19.9933 70.1116L19.5075 70.3866C17.686 69.8936 15.7749 69.8309 13.925 70.2032C13.7709 70.2312 13.6122 70.2163 13.4661 70.1601C13.3199 70.1039 13.1921 70.0086 13.0965 69.8847C13.0009 69.7607 12.9413 69.6128 12.9241 69.4572C12.9069 69.3016 12.9329 69.1442 12.9991 69.0024C14.883 64.8699 17.5403 61.1361 20.8275 58.0024C21.1135 57.7355 21.4585 57.5399 21.8345 57.4316C22.2104 57.3233 22.6066 57.3053 22.9908 57.3791C23.5032 57.4789 23.9676 57.7466 24.3108 58.1399L29.9941 64.4466Z" fill="#BC3F5A"/>
<path d="M59.0066 70.1114L49.0058 64.4464L54.6891 58.1397C55.0323 57.7464 55.4968 57.4787 56.0091 57.3789L59.0066 70.1114ZM29.9941 64.4464L19.9933 70.1114L22.9908 57.3789C23.5031 57.4787 23.9676 57.7464 24.3108 58.1397L29.9941 64.4464Z" fill="#DD4B64"/>
<path d="M59.6666 59.5059V52.75C59.0027 52.8013 58.3582 52.9985 57.7792 53.3275C57.6726 53.3837 57.5512 53.4057 57.4317 53.3904C57.3121 53.3752 57.2001 53.3235 57.111 53.2423C57.0218 53.1612 56.9598 53.0546 56.9334 52.937C56.907 52.8194 56.9175 52.6965 56.9634 52.585C57.9842 50.1479 59.295 47.8427 60.8675 45.7192C60.9436 45.6247 61.0399 45.5485 61.1494 45.4961C61.2588 45.4437 61.3786 45.4165 61.5 45.4165C61.6213 45.4165 61.7411 45.4437 61.8506 45.4961C61.96 45.5485 62.0564 45.6247 62.1325 45.7192C63.7049 47.8427 65.0157 50.1479 66.0366 52.585C66.0825 52.6965 66.0929 52.8194 66.0665 52.937C66.0401 53.0546 65.9781 53.1612 65.889 53.2423C65.7998 53.3235 65.6879 53.3752 65.5683 53.3904C65.4487 53.4057 65.3274 53.3837 65.2207 53.3275C64.6418 52.9985 63.9973 52.8013 63.3333 52.75V60.0834C63.3343 61.1388 63.0829 62.1791 62.6 63.1175L59.6666 59.5059Z" fill="#F95A6D"/>
<path d="M44.0833 62.8335L53.1354 65.7989C55.4319 66.5474 57.4714 67.9271 59.0207 69.78C60.5701 71.633 61.5668 73.8846 61.8969 76.2773L62.4001 80.0082C62.4336 80.2686 62.411 80.5332 62.3338 80.7841C62.2566 81.0351 62.1265 81.2666 61.9525 81.4632C61.7784 81.6598 61.5643 81.8168 61.3245 81.9238C61.0847 82.0308 60.8248 82.0852 60.5622 82.0835H18.4377C18.1755 82.0846 17.9161 82.0297 17.6769 81.9224C17.4377 81.8151 17.2241 81.658 17.0505 81.4615C16.877 81.265 16.7473 81.0337 16.6704 80.783C16.5935 80.5324 16.5709 80.2682 16.6044 80.0082L17.1076 76.2773C17.4377 73.8846 18.4344 71.633 19.9838 69.78C21.5331 67.9271 23.5726 66.5474 25.8691 65.7989L34.9166 62.8335H44.0833Z" fill="#422B30"/>
<path d="M45.9167 82.0835H33.0834C28.555 76.4277 29.27 68.0402 29.8292 64.5018L34.9167 62.8335H44.0834L49.1709 64.5018C49.73 68.0402 50.445 76.4277 45.9167 82.0835Z" fill="#EAF9F9"/>
<path d="M37.0525 70.1668L37.6667 72.9168H41.3333L41.9475 70.1668L39.5 68.3335L37.0525 70.1668Z" fill="#DD4B64"/>
<path d="M41.3333 72.9165L43.0126 79.6338C43.0595 79.8218 43.057 80.0186 43.0053 80.2053C42.9536 80.3919 42.8544 80.562 42.7174 80.699L41.3333 82.0832H37.6666L36.2824 80.699C36.1455 80.562 36.0463 80.3919 35.9946 80.2053C35.9429 80.0186 35.9404 79.8218 35.9873 79.6338L37.6666 72.9165H41.3333Z" fill="#BC3F5A"/>
<path d="M48.3091 64.2177L43.7991 70.2402C43.7161 70.351 43.6121 70.4444 43.493 70.515C43.3739 70.5856 43.242 70.632 43.1049 70.6516C42.9679 70.6712 42.8283 70.6636 42.6941 70.6291C42.56 70.5947 42.434 70.5342 42.3233 70.451L39.5 68.3335L36.6766 70.451C36.5659 70.5342 36.4399 70.5947 36.3058 70.6291C36.1717 70.6636 36.0321 70.6712 35.895 70.6516C35.7579 70.632 35.626 70.5856 35.5069 70.515C35.3878 70.4444 35.2838 70.351 35.2008 70.2402L30.6908 64.2177L34.9166 62.8335H44.0833L48.3091 64.2177Z" fill="#D4E6E7"/>
<path d="M44.0833 61.33V62.8333L39.5 68.3333L34.9166 62.8333V61.33H44.0833ZM48.4558 33.1617C50.1784 32.1868 51.6455 30.8174 52.7366 29.166C52.801 29.081 52.8858 29.0137 52.9832 28.9704C53.0806 28.9271 53.1874 28.9092 53.2936 28.9183C53.3998 28.9275 53.5019 28.9634 53.5905 29.0228C53.679 29.0821 53.7511 29.1629 53.8 29.2576C54.4233 31.2184 54.4875 35.1784 51.9758 37.7991L48.4558 33.1617ZM27.0241 37.7991C24.5125 35.1784 24.5766 31.2184 25.2 29.2576C25.2488 29.1629 25.3209 29.0821 25.4094 29.0228C25.498 28.9634 25.6001 28.9275 25.7063 28.9183C25.8125 28.9092 25.9193 28.9271 26.0167 28.9704C26.1141 29.0137 26.1989 29.081 26.2633 29.166C27.3545 30.8174 28.8215 32.1868 30.5441 33.1617L27.0241 37.7991Z" fill="#BC3F5A"/>
<path d="M53.25 49.0835V43.5835C53.25 39.9368 51.8013 36.4394 49.2227 33.8608C46.6441 31.2822 43.1467 29.8335 39.5 29.8335C35.8533 29.8335 32.3559 31.2822 29.7773 33.8608C27.1987 36.4394 25.75 39.9368 25.75 43.5835V49.0835H53.25Z" fill="#422B30"/>
<path d="M28.5 46.3334C27.7707 46.3334 27.0712 46.6231 26.5555 47.1388C26.0397 47.6545 25.75 48.354 25.75 49.0834C25.75 49.8127 26.0397 50.5122 26.5555 51.0279C27.0712 51.5436 27.7707 51.8334 28.5 51.8334L28.9858 54.7392C29.1388 55.6603 29.4778 56.5406 29.9821 57.3264C30.4864 58.1122 31.1455 58.787 31.9192 59.3097C33.7754 60.5655 36.4998 62.8334 39.5 62.8334C42.5002 62.8334 45.2246 60.5655 47.0854 59.3097C47.8591 58.787 48.5182 58.1122 49.0225 57.3264C49.5268 56.5406 49.8658 55.6603 50.0187 54.7392L50.5 51.8334C51.2293 51.8334 51.9288 51.5436 52.4445 51.0279C52.9603 50.5122 53.25 49.8127 53.25 49.0834C53.25 48.354 52.9603 47.6545 52.4445 47.1388C51.9288 46.6231 51.2293 46.3334 50.5 46.3334C50.5 44.5138 49.3945 42.9637 47.9159 42.7529C45.2236 42.4133 42.6289 41.5274 40.2911 40.1495C40.0553 39.9974 39.7806 39.9165 39.5 39.9165C39.2194 39.9165 38.9447 39.9974 38.7089 40.1495C36.3711 41.5274 33.7764 42.4133 31.0841 42.7529C29.6055 42.9637 28.5 44.5138 28.5 46.3334Z" fill="#DD4B64"/>
</g>
</g>
<rect x="0.5" y="0.5" width="79" height="79" rx="19.5" stroke="#EBEBEB"/>
<defs>
<clipPath id="clip0_41_1485">
<rect width="80" height="80" rx="20" fill="white"/>
</clipPath>
<clipPath id="clip1_41_1485">
<rect width="55" height="55" fill="white" transform="translate(12 28)"/>
</clipPath>
</defs>
</svg>
