<svg width="30" height="30" viewBox="0 0 30 30" fill="none" xmlns="http://www.w3.org/2000/svg">
<g clip-path="url(#clip0_41_1450)">
<path d="M22.7586 1.03448C22.7578 0.760373 22.6486 0.497723 22.4547 0.303897C22.2609 0.110071 21.9982 0.000818652 21.7241 0L7.66966 0C7.39532 5.85904e-05 7.13223 0.109087 6.93828 0.303103L0.303103 6.93828C0.109087 7.13223 5.85904e-05 7.39532 0 7.66965L0 28.9655C0.000818652 29.2396 0.110071 29.5023 0.303897 29.6961C0.497723 29.8899 0.760373 29.9992 1.03448 30H21.7241C21.9985 30 22.2616 29.891 22.4556 29.697C22.6496 29.503 22.7586 29.2399 22.7586 28.9655V1.03448Z" fill="#CED6EA"/>
<path d="M19.1379 10.8621H3.10342C2.96624 10.8621 2.83468 10.8076 2.73768 10.7106C2.64068 10.6136 2.58618 10.4821 2.58618 10.3449C2.58618 10.2077 2.64068 10.0761 2.73768 9.97913C2.83468 9.88213 2.96624 9.82764 3.10342 9.82764H19.1379C19.2751 9.82764 19.4066 9.88213 19.5037 9.97913C19.6007 10.0761 19.6551 10.2077 19.6551 10.3449C19.6551 10.4821 19.6007 10.6136 19.5037 10.7106C19.4066 10.8076 19.2751 10.8621 19.1379 10.8621ZM15.3983 13.4483H3.10342C2.96624 13.4483 2.83468 13.3938 2.73768 13.2968C2.64068 13.1998 2.58618 13.0683 2.58618 12.9311C2.58618 12.7939 2.64068 12.6623 2.73768 12.5653C2.83468 12.4683 2.96624 12.4138 3.10342 12.4138H15.3983C15.5354 12.4138 15.667 12.4683 15.764 12.5653C15.861 12.6623 15.9155 12.7939 15.9155 12.9311C15.9155 13.0683 15.861 13.1998 15.764 13.2968C15.667 13.3938 15.5354 13.4483 15.3983 13.4483ZM11.6534 16.0345H3.10342C2.96624 16.0345 2.83468 15.98 2.73768 15.883C2.64068 15.786 2.58618 15.6545 2.58618 15.5173C2.58618 15.3801 2.64068 15.2485 2.73768 15.1515C2.83468 15.0545 2.96624 15.0001 3.10342 15.0001H11.6534C11.7906 15.0001 11.9222 15.0545 12.0192 15.1515C12.1162 15.2485 12.1707 15.3801 12.1707 15.5173C12.1707 15.6545 12.1162 15.786 12.0192 15.883C11.9222 15.98 11.7906 16.0345 11.6534 16.0345ZM6.99308 20.6897H3.10342C2.96624 20.6897 2.83468 20.6352 2.73768 20.5382C2.64068 20.4412 2.58618 20.3096 2.58618 20.1725C2.58618 20.0353 2.64068 19.9037 2.73768 19.8067C2.83468 19.7097 2.96624 19.6552 3.10342 19.6552H6.99308C7.13026 19.6552 7.26182 19.7097 7.35882 19.8067C7.45582 19.9037 7.51032 20.0353 7.51032 20.1725C7.51032 20.3096 7.45582 20.4412 7.35882 20.5382C7.26182 20.6352 7.13026 20.6897 6.99308 20.6897ZM5.22928 23.2759H3.10342C2.96624 23.2759 2.83468 23.2214 2.73768 23.1244C2.64068 23.0274 2.58618 22.8959 2.58618 22.7587C2.58618 22.6215 2.64068 22.4899 2.73768 22.3929C2.83468 22.2959 2.96624 22.2414 3.10342 22.2414H5.22928C5.36647 22.2414 5.49803 22.2959 5.59503 22.3929C5.69203 22.4899 5.74653 22.6215 5.74653 22.7587C5.74653 22.8959 5.69203 23.0274 5.59503 23.1244C5.49803 23.2214 5.36647 23.2759 5.22928 23.2759ZM8.19308 25.8621H3.10342C2.96624 25.8621 2.83468 25.8076 2.73768 25.7106C2.64068 25.6136 2.58618 25.4821 2.58618 25.3449C2.58618 25.2077 2.64068 25.0761 2.73768 24.9791C2.83468 24.8821 2.96624 24.8276 3.10342 24.8276H8.19308C8.33026 24.8276 8.46182 24.8821 8.55882 24.9791C8.65582 25.0761 8.71032 25.2077 8.71032 25.3449C8.71032 25.4821 8.65582 25.6136 8.55882 25.7106C8.46182 25.8076 8.33026 25.8621 8.19308 25.8621Z" fill="#6D7898"/>
<path d="M20.1724 27.9312H17.5862C17.449 27.9312 17.3175 27.8767 17.2205 27.7797C17.1235 27.6827 17.069 27.5512 17.069 27.414C17.069 27.2768 17.1235 27.1453 17.2205 27.0482C17.3175 26.9512 17.449 26.8968 17.5862 26.8968H19.6552V24.8278C19.6552 24.6906 19.7097 24.559 19.8067 24.462C19.9037 24.365 20.0352 24.3105 20.1724 24.3105C20.3096 24.3105 20.4412 24.365 20.5382 24.462C20.6352 24.559 20.6897 24.6906 20.6897 24.8278V27.414C20.6897 27.5512 20.6352 27.6827 20.5382 27.7797C20.4412 27.8767 20.3096 27.9312 20.1724 27.9312Z" fill="white"/>
<path d="M20.1724 3.10333H16.0345C15.8973 3.10333 15.7657 3.04884 15.6687 2.95183C15.5717 2.85483 15.5172 2.72327 15.5172 2.58609C15.5172 2.44891 15.5717 2.31735 15.6687 2.22034C15.7657 2.12334 15.8973 2.06885 16.0345 2.06885H20.1724C20.3096 2.06885 20.4411 2.12334 20.5381 2.22034C20.6351 2.31735 20.6896 2.44891 20.6896 2.58609C20.6896 2.72327 20.6351 2.85483 20.5381 2.95183C20.4411 3.04884 20.3096 3.10333 20.1724 3.10333ZM20.1724 5.1723H17.5862C17.449 5.1723 17.3174 5.1178 17.2204 5.0208C17.1234 4.9238 17.0689 4.79224 17.0689 4.65505C17.0689 4.51787 17.1234 4.38631 17.2204 4.28931C17.3174 4.19231 17.449 4.13781 17.5862 4.13781H20.1724C20.3096 4.13781 20.4411 4.19231 20.5381 4.28931C20.6351 4.38631 20.6896 4.51787 20.6896 4.65505C20.6896 4.79224 20.6351 4.9238 20.5381 5.0208C20.4411 5.1178 20.3096 5.1723 20.1724 5.1723Z" fill="#6D7898"/>
<path d="M7.24142 0.0932617V5.68981C7.24142 6.10136 7.07793 6.49604 6.78693 6.78705C6.49592 7.07805 6.10123 7.24154 5.68969 7.24154H0.0931396C0.144864 7.12774 0.217278 7.0243 0.305209 6.93637L6.93624 0.305331C7.02417 0.2174 7.12762 0.144986 7.24142 0.0932617Z" fill="#225AEE"/>
<path d="M29.7259 11.6796L28.5466 9.97788C28.3124 9.64005 27.9538 9.40891 27.5494 9.33521C27.1451 9.26151 26.728 9.35127 26.3897 9.58478L23.4104 11.6434L21.2845 13.1124L11.1518 20.1205C11.1242 20.1367 11.0996 20.1577 11.0793 20.1825L14.0121 24.4187C14.0413 24.4063 14.0691 24.3907 14.0949 24.3722L24.2276 17.3687L26.3535 15.8998L29.3328 13.836C29.6705 13.6019 29.9015 13.2433 29.9752 12.8391C30.0489 12.4348 29.9592 12.0178 29.7259 11.6796Z" fill="#BDC3C7"/>
<path d="M29.3328 13.8365L26.3535 15.9003L23.4104 11.6434L26.3897 9.58478C26.728 9.35127 27.1451 9.26151 27.5495 9.33521C27.9538 9.40891 28.3125 9.64005 28.5466 9.97788L29.7259 11.6796C29.9594 12.0179 30.0492 12.435 29.9755 12.8394C29.9018 13.2437 29.6707 13.6024 29.3328 13.8365Z" fill="#FF5364"/>
<path d="M21.286 13.1271L23.4129 11.6592L26.3524 15.9181L24.2255 17.3861L21.286 13.1271Z" fill="#BDC3C7"/>
<path d="M24.2276 17.3697C13.4524 24.818 14.0643 24.4042 14.0121 24.4197L11.0793 20.1835C11.1212 20.1318 10.4623 20.5973 21.2845 13.1128L24.2276 17.3697Z" fill="#3B97D3"/>
<path d="M14.0121 24.4193C13.9604 24.4509 14.0995 24.4079 10.7845 25.2159L9.20178 22.9193C11.1207 20.104 11.0204 20.2421 11.0794 20.1831L14.0121 24.4193Z" fill="#FDD7AD"/>
<path d="M10.7845 25.216L8.32239 25.8103C8.22049 25.8352 8.11342 25.8286 8.0154 25.7912C7.91737 25.7538 7.83303 25.6875 7.77355 25.6011C7.71407 25.5147 7.68227 25.4123 7.68237 25.3074C7.68248 25.2025 7.71447 25.1001 7.77412 25.0138L9.2017 22.9189L10.7845 25.216Z" fill="#464F5D"/>
</g>
<defs>
<clipPath id="clip0_41_1450">
<rect width="30" height="30" fill="white"/>
</clipPath>
</defs>
</svg>
